<mxfile host="app.diagrams.net" modified="2023-07-12T08:46:05.157Z" agent="Mozilla/5.0 (Macintosh; Intel Mac OS X 10_15_7) AppleWebKit/537.36 (KHTML, like Gecko) Chrome/114.0.0.0 Safari/537.36" etag="4PEWgytVzDetDW5t8Vma" version="21.6.2" type="github">
  <diagram name="Page-1" id="BxID3ReW6DlUit20XBQ8">
    <mxGraphModel dx="1434" dy="703" grid="1" gridSize="10" guides="1" tooltips="1" connect="1" arrows="1" fold="1" page="1" pageScale="1" pageWidth="827" pageHeight="1169" math="0" shadow="0">
      <root>
        <mxCell id="0" />
        <mxCell id="1" parent="0" />
        <mxCell id="i60HTQ7OFVrk5xtHkpp4-10" value="" style="rounded=0;whiteSpace=wrap;html=1;" vertex="1" parent="1">
          <mxGeometry x="10" y="211.66" width="1150" height="538.34" as="geometry" />
        </mxCell>
        <mxCell id="i60HTQ7OFVrk5xtHkpp4-1" value="User 1" style="shape=umlActor;verticalLabelPosition=bottom;verticalAlign=top;html=1;outlineConnect=0;" vertex="1" parent="1">
          <mxGeometry x="30" y="465" width="20" height="35" as="geometry" />
        </mxCell>
        <mxCell id="i60HTQ7OFVrk5xtHkpp4-11" style="edgeStyle=orthogonalEdgeStyle;rounded=0;orthogonalLoop=1;jettySize=auto;html=1;" edge="1" parent="1" source="i60HTQ7OFVrk5xtHkpp4-2" target="i60HTQ7OFVrk5xtHkpp4-4">
          <mxGeometry relative="1" as="geometry">
            <Array as="points">
              <mxPoint x="85" y="410" />
            </Array>
          </mxGeometry>
        </mxCell>
        <mxCell id="i60HTQ7OFVrk5xtHkpp4-14" style="edgeStyle=orthogonalEdgeStyle;rounded=0;orthogonalLoop=1;jettySize=auto;html=1;entryX=0;entryY=0.75;entryDx=0;entryDy=0;" edge="1" parent="1" source="i60HTQ7OFVrk5xtHkpp4-2" target="i60HTQ7OFVrk5xtHkpp4-5">
          <mxGeometry relative="1" as="geometry">
            <Array as="points">
              <mxPoint x="140" y="480" />
              <mxPoint x="140" y="550" />
            </Array>
          </mxGeometry>
        </mxCell>
        <mxCell id="i60HTQ7OFVrk5xtHkpp4-27" style="edgeStyle=orthogonalEdgeStyle;rounded=0;orthogonalLoop=1;jettySize=auto;html=1;entryX=0.5;entryY=1;entryDx=0;entryDy=0;exitX=0.5;exitY=1;exitDx=0;exitDy=0;exitPerimeter=0;" edge="1" parent="1" source="i60HTQ7OFVrk5xtHkpp4-2" target="i60HTQ7OFVrk5xtHkpp4-5">
          <mxGeometry relative="1" as="geometry">
            <mxPoint x="80" y="590" as="sourcePoint" />
            <mxPoint x="240" y="620" as="targetPoint" />
            <Array as="points">
              <mxPoint x="85" y="630" />
              <mxPoint x="270" y="630" />
            </Array>
          </mxGeometry>
        </mxCell>
        <mxCell id="i60HTQ7OFVrk5xtHkpp4-2" value="" style="verticalLabelPosition=bottom;html=1;verticalAlign=top;align=center;strokeColor=none;fillColor=#00BEF2;shape=mxgraph.azure.laptop;pointerEvents=1;" vertex="1" parent="1">
          <mxGeometry x="60" y="465" width="50" height="30" as="geometry" />
        </mxCell>
        <mxCell id="i60HTQ7OFVrk5xtHkpp4-4" value="Github" style="dashed=0;outlineConnect=0;html=1;align=center;labelPosition=center;verticalLabelPosition=bottom;verticalAlign=top;shape=mxgraph.webicons.github;gradientColor=#DFDEDE" vertex="1" parent="1">
          <mxGeometry x="230" y="360" width="80" height="80.4" as="geometry" />
        </mxCell>
        <mxCell id="i60HTQ7OFVrk5xtHkpp4-16" style="edgeStyle=orthogonalEdgeStyle;rounded=0;orthogonalLoop=1;jettySize=auto;html=1;startArrow=classic;startFill=1;" edge="1" parent="1" source="i60HTQ7OFVrk5xtHkpp4-5" target="i60HTQ7OFVrk5xtHkpp4-6">
          <mxGeometry relative="1" as="geometry" />
        </mxCell>
        <mxCell id="i60HTQ7OFVrk5xtHkpp4-5" value="GIthub PR" style="shape=image;verticalLabelPosition=bottom;labelBackgroundColor=default;verticalAlign=top;aspect=fixed;imageAspect=0;image=data:image/png,iVBORw0KGgoAAAANSUhEUgAABLAAAAZACAQAAADDJXN0AAAABGdBTUEAALGPC/xhBQAAACBjSFJNAAB6JgAAgIQAAPoAAACA6AAAdTAAAOpgAAA6mAAAF3CculE8AAAAAmJLR0QA/4ePzL8AAG7FSURBVHja7d13oB5lnTb+65wkhJKEktARCB1C71VAiiBFpIgsZe19RddVdvfdXbDsCrYVlXUFcVXAAojSBAnSJHTpHYFQQ0noLaSc9w8bJeWUp8zc8/nMP7/353Ly3N/7nvlez8w8MwkAnXSUEgAAtDZe9SkCAEBr45WABQDQ4nglYAEAtDheCVgAAC2OVwIWAECL45WABQDQ4nglYAEAtDheCVgAAC2OVwIWAECL45WABQDQ4nglYAEAtDheCVgAAC2OVwIWAECL45WABQDQ4nglYAEAtDheCVgAAC2OVwIWAECL45WABQDQ4nglYAEAtDheCVgAAC2OVwIWAECL45WABQDQ4nglYAEAtDheCVgAAC2OVwIWAECL45WABQDQ4nglYAEAtDheCVgAAC2OVwIWAECL45WABQDQ4nglYAEAtDheCVgAAC2OVwIWAECL45WABQDQ4nglYAEAtDheCVgAAC2OVwIWAECL45WABQDQ4nglYAEA4lWL45WABQCIVwIWAEC145WABQCIVwIWAEC145WABQCIVwIWAEC145WABQCIVwIWAEC145WABQCIVwIWAEC145WABQCIVwIWAEC145WABQCIVwIWAEC145WABQCIVwIWAEC145WABQCIVwIWAEC145WABQCIVwIWAEC145WABQCIVwIWAEC145WABQCIVwIWAEC145WABQCIVwIWAEC145WABQCIVwIWAEC145WABQCIVwIWAEC145WABQCIVwIWAEC145WABQCIVwIWAEC145WABQCIVwIWAEC145WABQCIVwIWAEC145WABQCIVwIWACBe9QlYAABNilcCFgAgXglYAIB4JWABADQqXglYAIB4JWABAOKVgAUA0Kh4JWABAOKVgAUAiFcCFgBAo+KVgAUAiFcCFgAgXglYAACNilcCFgAgXglYAIB4JWABADQqXglYAIB4JWABAOKVgAUA0Kh4JWBBAwxXgg4ZnbFZMmNfty2cBZOMzvD0ZLEkC2SRJC/m1STPpC8z83ySl/Nypr1uezLT8ryS0sB4daQiAPXQowRtsnhWySpZJctl2ayStbJIi//+q3k492VKHs19uS/3ZXJmKzrilSMvYDcvzYJZJ+tlvayblbNyRnb4X38lD+T+3Jpbc0tuy3TTgXjlyAvYzetruayTCdkk62TdjoequZmZB3N7/pDbcnvucGYL8cqRF7Cb18OobJFtslW2yqIV/6TP5spckUm5Ji+YNsQrR17Abl5Fy2WTbJNts1kWqNknn5W7cnkm5Q+5zTQiXjnyAnbzKlgqu2a37JDlCxjLw7kk5+eCPGlaEa8ceQG7eTcMy4bZOXtlq/QWNrLZuSEX5sJcmhmmGfHKkRewm3fGctktb88uWbzwcT6diTk/52eKKUe8cuQFaJ/lc3guz6xCnhjd3+22HFHEBVBKilfl7m8AjTIuh+XszGxYtPrbNiuX5/AsZyEgXglYAK0wNofl7MxobLR6c8xa1qJAvBKwAAZrRPbNbxp81mpu28ycm3dlhAWCeCVgAQzM6jkqDwpT89im5Nisa6EgXglYAP0xMgdkYmaLUP3arsuHs7BFg3glYAHM3Vo5Nk+JTQPcpuXYrGnxIF4JWABvtm1Odb/VoLfZmZi9LCLEKwEL4C96s1euFJJasN2Qw9z8jnglYAGMzuF5QDRq6c3vRxX/jHvEKwELYK6WzzfznEjUhu3ZfMNDSRGvBCygeZbM0XlJFGrjNj3f90hSxCsBC2iOsTnKmauObC/m2CxtwSFeCVhA6ZbIUXlG9Ong9kKOdk8W4pWABZRrVI7I0yJPF7bnc3QWswARrwQsoDTD88lMFXW6uD2Zj2W4hYh4JWAB5dgpN4s4FdjuyDssRsQrAQsoweo5VbSp0DYx61iUiFcCFlBni+XovCLUVGx7NcdmUYsT8UrAAupoWD6WJ8WZim6P58PptUgRrwQsaJ6eWn/69XJCtjCJlXZ9PpgblIHXxasjHXktAyhdfc8vLJijcp14VXkb5+ocnZEKgXgF+B5Vfdvm+Kxt+mrjj/lwLlYGxKuaH3mBfqvjGaxFc2wuFa9qZbX8Lj/JEgohXikC4HtUNe2V4/IWE1dLU/KpnK4M4hXOYIHdvFrG5Ls51KTV2mn5SJ5WBvHKkRewm1fFljk5q5qy2nsgh+UyZRCvHHmBktXlHqzhOSqXi1dFWCkX5eiMUAjxCsD3qO4an5OztckqyrU5OPcog3jlyAuUqQ5nsA7LzeJVcTbLjTlcGcQrAN+jumHx/DD7mKZinZ4P5lllEK8ceQG7eSdtkF+676pwf8y+uUUZxCtHXqAsVb5E+HeZJF4Vb7Vck/cqg3gFIGB1wvAcnVOyiAlqgAXzf/m+XxWKVwAlqeaJ6qXy8+xochrl8rw7U5RBvHLkBcpQxTNY2+ZG8apxzLp4BSBgtdHHc1GWNTENtFTOz0eVQbwCELBarSdH5Th34zTWAvlejq3N2wUQrwDmEWmqY8H8KAeaksb7VQ7JS8ogXjnyAnbzVhiXX2cbE0KSa7J3HlcG8cqRF7CbD9XqOTermw7+7P7skTuUQbxy5AXqqhr3u7wt14hXvMb4TMoOyiBeAQhYg3dYzstipoLXWTzn52BlEK8ABKzB+Vj+LwuYCN5kZE7Kp5VBvAIQsAbuiPyPn+UzFz357/yHMohXAHVsYd2NV0ebAubjmPyzIohXjryA3by///I38hkTQD8cl39InzKIV468gN18/v/ut/NJ5aefTshHM1sZxCtHXsBuPi/DcmL+XvEZgJ/nsMxQBvHKkRewm8/N8Pw8+yk9A/TLvCczlUG8cuQF6qC3C//ij8QrBmG//CzDlEG8AhCw5vS97X88PpJB2j8n+OYvXgEIWG92TD6i6Aza+/ItRRCvAASs1/tyPqfkDMmn8gVFEK8Aqq6TF1w+k28qOC3wLx5QK1458gJ28z/5ZL6j3LTIZ4V18cqRF7CbJ4flRw4ptExfDs0pyiBeOfICzd7N35oLMlKxaaEZ2T2/UwbxypEXaO5uvnYmZXGlpsWeyta5SxnEK0deoJm7+bhcmdUUmja4P1vlcWUQrxx5gepp92MaFsrZ4hVtMj7nZGFlEK8AmhawenNytlRk2mbT/KQLr3sSrwDoasD6RvZVYtpqvxyjCOIVQNW0806Aj+c4BaYDPprvK4J45cgLNGM33yqXZAEFpgNmZKf8XhnEK0deoPzdfJn8IcspLx3yWDbJo8ogXglYQFW05x6sETlVvKKDlslpzpeKVwClB6xvZjulpaO29gJo8QqgOtpxovrvvCWOrvj7/EQRxKvGHnmBwnfz9XOlhz/SFS9my9yqDOKVgAWUt5svnmuzqrLSJfdk8zyjDOKVgAV0W6vvwfqheEUXrZ7jFUG8AigtYH0o+ygpXXVA3qsI4hVAt7XyRPWquSGjlZQuezEb525lEK8ac+QFKql1Z7CG5xTxigpYJKdkhDKIVwBlBKwvZAvlpBI2zb8pgngF0E2tOlG9bS7JMOWkImbnbblUGcSr4o+8QOG7+aK5MSsrJhVyfzbMc8ogXglYQHe05hLh/4hXVMz4HKcI4hVAnb9H7ZmzFZIKeld+rQjiVbFHXqDw3XxMbs/yCkkFTck6nusuXglYQDcM/RLh18QrKmrZ/KciiFcAdfwe9dZc4rsYlTU72+dyZRCvijvyAoXv5iNzQ9ZWRCrsrmyYV5RBvBKwgM4a2iXC/xCvqLg188+KIF4B1Ol71Hr5g1eSUHmvZuPcpgziVTFHXqAWeofwX35fvKIGFsiJ3jIgXgHUJWB9JFspH7WwRd6vCOIVQCcN9kT14rk745SPmngia+RZ8Uq8qv2RF6iNwZ7B+g/xihpZKv9PvBKvAKr+PWq13JYFFI8aeTXr5W7xilofeYHid/NzsofSDcELuT/35/48liczLVMzLdPzTPoyIy8kGZUR6cliGZmxGZexWSrLZHzGZ+WMUrohODP7iFfQcs9n5p+/xLyYF/NSns9zeTkv5ulMzdRM++vWp1QIWPPz9pyvcIMIVbfmptyUm3N3nhzk31gya2a9bJANsq6wNQg753fiFXTFjEzJQ3kkj+ahPJoHcl8eVxQErNcbnpuyjsL1232ZlMszKXdkdgv/am/WzrbZJttmvBL32y3ZKLPEK6jIl857c1/uzX25O7dnioIgYH0y31G2fng6E/ObTMyjbf53lsuueUd2yWJK3g8fy/+KV1DJI+ZtuT2357bc4twWzQxYi+bejFW2ebovp+XcXPnn+xI6Y3i2zjvybuez5uPJrJrnxSuotEdyQ67P9bkhDyoGzQlYDtjz8nBOzS9yTRc/wRY5MAdkBVMxV/+eL4tXUBNTc02uyhW5plFfjGhkwFoi92VRRZuD6flVjs+lLb3ParB6s2M+lHd5kMYcPZ1V8ox4BbUyK7fmilyZ32eyYlBmwPrP/KuSvcndOSE/HvQvA9tlybw3H8wapudNvtiI4CFeUabJuSQX5xIXDykrYC2Z+zwc4A0uzddzbmWf79KTPfNPeatpep3nskqmiVdQa/flklyQC4vfl2lIwPpa/knB/mpWzsjXcm0NPunm+VzelWGm7K+Ozr+IV1DEcfjanJ/zc10DH8BCQQFrmdybhRUsSTI7p+Wo3FmjT7x2vpD9vZ7jz17IKpW7pCteweBNy8Scnd805P5KaqL/5zW+nO2UK0lyYd6d72RqrT7z1JyW07Nk1hGykiyQnkwUr6AYC2fd7JfPZdcsmSfylIJQBf1tt8vnj1lQuXJNPp0ra/z5t863splpzEtZrcgnR4tXkNyQM3NablcIuqu/Z7C+4PxVpuQf8g95qNZjeCgn5oFs0fgfK4xIX4HnsMQrSJJls0M+kf0yNo+5CZ7u6d8ZrEXzUEY3uk4z8s18OS8UMprR+fd8JsMbPaPPZsU8J15B4W7IqflF7lcIOq9/Z7A+lT0bXaWbsndOyqvFjOfVTMyZ2TTLN3hOF8yTuUq8gsItm51zePbKQrk3LykHndSfM1gj8ses2NgKvZyv5j8zo8CRDc8n8p9ZpLEz+3BWKWZexSuYn+mZmJ/k10UezaltwDo4Jze2PtfkkNxT8PjWyMkNvun9oPxcvIJGeSKn5ITcoRBUI2D9IRs3sjaz8918rqALg3M2PP+Wf2voY0j/kE3FK2jkvn98TsmLCkF3A9aOuaiRlXkwh+ayhox1+5yUtzRylnfIpeIVNNIzOTkn5GaFoHsB65zs0cC6nJ+DG/WwuiXy07y9gfN8dvYWr6DB/pDj85O8ohB0PmCtldsb9+zvvvxnjszsho16WL6Yf2ncXM/OOrlLvIJGm5Lv5/giHz1Ml9vqvP17tmxYRZ7Ngfnf9DVuJfTlotyUd2Rkw75gzMr54hU02ujskH/IOnk0DysGrWww87JgHskSjarH5Lyj0b8vmZBzs1KjRjwtK9Ty8oB4Ba33h3w7P81MhaAVeuf5v+7XsHh1U7Zt+M93b8uWua5RIx6bd4lXQJJkk/w4d+fwBj8fkI4FrA82qhZnZZs80vgV8Vh2zDmNGnH9Vrl4Be0zPt/KA/lyllYKhmZelwhXz10Nuun5xHwksyyIJMmwnJD3NWa0fVk994pXwOu8nB/ka3lIIRh8K527I7JtY+rwvXyscb8bnFfkOCuLNubnDT15oUbPehOvoDNGZIt8Mqvn9kxTDAbXXOa+uB5qzCnSo/MvlsIcqnJEQ0Y6JSvW5LZW8Qo6bVZOzVdyi0IwUHM/g7VP3t+QGhyZ/7AQ5uDCJDs0YqSjc30tnoYlXkHn9Wa9fCTr5rY8qRi0JmB9M6s1ogL/nX+1DObi0izYkMvEi+Rn4hUwFz2ZkI9l3dzsciEDWTZztkwebsQLgL+TT1kE86nQJxswyplZruLfTsUrqMKR4pR8MfcpBP0xt8c07NeIeHViDrcE5uNT+b8GjHJ49hWvgPkeKf4+d+Z/s6xSMPiA9e4GjP3cfKSBr8QZqL58KGc2YJwHiFdAP4zIR/LHHJ3FlIJ5m/MlwiZcIPxDts+LFkC/LJyLs3nhY5yV5fO4eAX001P5ao6t5Yu26JDeuXybLz1eTc6e4lW/vZR98mDhYxxW0YuE4hVU0xI5OnfkkAY9jpuWBKzSLxA+mz3ymMkfgCl5R54rfIxVXPXiFVTZyjkpV2drhWBO5pS9l83D83lHYb31Zf+cYeoHbO/8uujvarPzljwqXgEDdk4+lfuVgdebU5A6sOh4lXxJvBqUs3J04ftCtS4SildQF3vmzhybMQrBa83pjMSkok94np89vHVwkIblvOxS8Ph+n7eKV8AgPZojcorfpjP3gLVcHi74QtCD2ShPmfZBG5sbs0Kxo5ud5SryS0LxCur6Ne2TuVkZSOZ0iXC3guPV7LxXvBqSaTk4swreG94uXgFDsF3+kGOzqEIw54BVrq/kYlM+RJfl6wWPrgqrX7yCOhueT+XOHObxDfS8aWk8kcULHes12TYzTPmQjcgV2bTQsU3L0l0+QydeQRkuzUdzpzI02RvPYG1RbLx6OYeIVy0xIwfn5ULHNrbL0VG8glJsnxtzVEYqhID1F+VeIPyP3GO6W+TufLHYsXVzDxCvoCQjc2Ruzc4K0VRvvER4baEXf27M5s5ftdDwXJVNihzZVdlKvAJapi8n5x8zVSGaHrCWypQiHzI6I5vlJpPdUhvn6gwvcFyzsnSmiVdACz2ej3vAdfO8Pk7tWugz3L8pXrXc9Tm2yHEN68qjVMUrKNnS+WV+kSUVoskBq8w7sKbkyya6Db5YkYdytlrn9wLxCsr37txWyVfK06GAtX2RY/znvGCi2+C5/GuR49pBvALaYMn8ImdnOYVoitfeg7VSJhc4wmuypXdDtS2eX13kjyJWyCPiFdAWU/OxnK4MzWiRf1PiK5778mnxqm1m59NFjqtze4J4BU0zLqflJ16m07SAtU2B4zsrV5rkNpqUcwocVaf2BPEKmunQ3Jy3KYOAVWd9OcoUt9m/ZraAJV4BA7JiLsz3s7BCNCNgjcq6xY3u1NxoitvslgKf7rJBFhGvgLbqyYdzTdZXiCYErC2Ke2zkLOevOuLILr8eufVGZDPxCmi7Cbk6n3zTG1UoLmBtW9zYTvcm8464Pb8ubkztvUgoXgF/smC+k/OzjEKUHbDK+w3hf5veDjlGwBKvgEHaNTcW+phvAStJ0pMtChvZpbna9HbItfl9YSPasm0n7cUr4I2Wzrn5ryLf7ipgJRlf3FM5vmZyVXvQFs+K4hXQwV78L7koyytEiQGrtF8Q3p3fmNwOOif3FDai9cQroKO2y/XZWRnKC1gbFDauEzy/vaP68gMBS7wChmSpXJCjM0whygpY6xU1qlfzE1PbYT/MdAFLvAKGpCdHZKJfFZYVsMq6RHhGnjC1HTY1ZwlY4hUwZDvmumylDKUErAWzelGjOsHEdsHxRY1mzSwgXgFdsXwuyUeVoYyANaGon4c+lEtMbBdclEcKGs2IrCVeAV2yQL6Xk7KQQtQ/YJV1B9apBb5+uA5m57SixtOavUK8AgbnkEzKyspQ94BV1h1YvzCtKl+RgCVeAYO3Ua7JDspQ74A1oaAR3ZfrTGuXXJ37CxrN0PcK8QoYmiVzQT6mDHUOWKsUNKLTPAGra/pyekGjGepeIV4BQzci/5PjvEanrgGrp02vBemOc0xqF51b0FhWGtL7CMUroFU+nouypDLUTU+S5Qr69dfTWSozTWvXDM+TWayY0Sw96OepiVdAa92bvXO7MtRJb1LUrxQuEK+6amYuLGg048UroCJWzRXZTRnqFrDGFzSe80ypGWiZwX31EK+Adlg05+QTylCvgLVSQeOZaErNQFcDlngFtMuwfDdf/esr7qhBwFq5mNHcm0dNaZc9lAcaHLDEK6C9PpfTsrAyCFiddrkJNQtdDFjiFdB+++aiLK0MAlZnXWlCK2BSMSMZ2N2J4hXQGVvkiqyhDHUIWOU8BcsZLLPQSgPZM8QroHNWyeXZXBmqrSeL5plCxvJCFvWa50qE9ueySCFjGZ0XxCugkl7Mu/MbZahyMxxbzFhuFq8qYXZuK2Ys/ds7xCug8xbJmfmgMghYnQlYVMNNjQpY4hXQHcNzfI5SBgFLwGqOcmZinHgFVFhPjsx/D+m9qQhYApaZ6IL57R3iFdBtn86JGaYMVQxY44oZy12msyLubkjAEq+AKnhffpkFlaF6AauUM1jPZ6rprIjH81IhIxknXgE18M6cm1HKULWAVcoZrMkmszL6ipmNseIVUAtvy++yhDJUK2CVMiH3m8wKua/wgCVeAVWzeSYWdNOPgCVgUfRsLCFeAbWxcS7KUspQnYBVylu5p5jMCnmskHEsJF4BNbJeLstyylCVgLVAISNxi7vZaL2R4hVQK2vm4qygDAJWK00zmWaj5RYQr4CaWSO/z3hlELBaxxmsKnmykHGMFK+A2lk5v8tKytD9gDWykJE4g2U2Wm8B8QqoofG5OG9Rhm4HrFLOYD1vMivkhULGMVK8AmoasS7K8srQ3YBVyhmsV01mhUwvZBwLiFdATa2Wi/2isLsBq5QzWNNNptlouZHiFVBbq+eiLKMMAtZQOYMlYLXeAuIVUGNr5uIsrQzd0ZOZGVbESIZnlumsjGGZWcQ4ZuXL4hVQa9fnbXlWGTqvNz2KAHP9AvKyIgC1tnHOyyhl6EbAmlnISBYwmRVSyk8nZuSY/LPpBGptq/yqmKOygCVgCViFBKyIWEDt7ZyfZ7gydDpgzdDSMRtz8aevHyIWUHf75MT0KoOAJWCZjSoFrOSYfMGkArV2WL6uCJ0NWKVcInQLn9lovb99/ThKxAJq7jP5vCIIWAM3zmSajZZ77d4hYgF1d3QOU4TOBayXtHRabslCxvHi6/5fR7kXC6i1nvwguytDpwJWKS9JFrDMRuu9ce9wuztQbyNyerZSBgFrIMaaTLPR9oAlYgF1t3DOyprK0ImA9VwhI1nWZFZIKa8XndPXD78oBOptXM4t5kaOSgesUs5grWwyK2R8IeOY89cP92IB9bZqzs3CyiBgNaull2GVQsYxt73DhUKg3jbLjz14tN0Bq5RLhAJWdfRkpcIDlguFQN3tn68oQnsD1tRCRjLK7wgrY+liTj0/OY//zYVCoN4+n48rQjsD1hPFjGUt01kRaxQzknnvHc5iAfV2bHZTBAFr/tY3nRWxYTEjeXw+/7uzWECdDc+pmaAMApaAVRfrFTOS+e8dbncH6mx0znaDjYA1PxuYTjPR8YAlYgH1Nj6/zALK0Ho9GZlXChnLixmT2aa064bluUJucu/LyMzo1//lETnaxAO1dVw+qQit1pvpeaaQsSyStU1oBaxTzG8In+pnvHK7O1Bvn8hHFaH1ASt5sJjRbGtCzUILDWTPOErEAmrs29leEVofsB4oZjTbmFABq4UGtmf4RSFQXyPyS6+cE7Ca0NrNQv0CltvdgTobmzOykDK0NmBNLmY047O8Ke2yFbNiMWMZ+MVz92IB9bVRvqMIrQ1YDxY0nl1MaZftWtBYBvPVw4VCoL4+kI8oQisD1gMFjWd3U2oGWmZwe4YLhUB9fSfbKUJr9CRZItOKGc8zWTIzTWvXjMjUjClmNEvk6UH+l0flSIsBqKVHsnFBjyDvot4kT+XJYsazWLYyqV20TUHx6vFBxysXCoH6Wj4/zzBlaE3ASu4saER7mtQu2qOgsQxtr3C7O1BXO+bfFEHAerMD0mNau6Qn+xc0mjuG+N87iwXU1X8U9YOlrgasuwoa0fhsblq7ZKuiHlM39L3C7e5AXbPBSR571JqAdWdRYzrQtKp8C7RirxCxgHpaKqdlhDIMPWDdUdSYDvjzqOj0WjqgqPG0Zq9wLxZQT1vlKEUYesC6P88VNKYVsqOJ7YKdsmxBo3mmZQ/g9RpooJ7+WTcdesDqy01FjeqDJrYLPlzUaG5IX8v+ltvdgXomhJMyThmGFrCSG4oa1b5ZytR22LjsVVjAaiX3YgF1tHx+7Jf5AtZrLZDDTG2HfSAjixrPjS3+eyIWUEfvyCcUYXD+kkw3aHlD6a67s1YLL/Ew/6B+Z1YvakTr55aW/00v0AHq55VskZuVYTCN8U9uz/SixrWGJ7p31J6FxatX2vLLWre7A/WzYH6aBZVh4P7yvqHZ2auwh4otnx+Z3o75QVYsajzX5YS2/N1L0pMdLBegVpbKIvmtMgzU354YdUVhI3trtjS9HbJ5ti1sRJPa9pf9ohCon8PzNkUYfMC6srixfdb0dkh5kaGde4Pb3YH6ZYUfZ3FlGJi//fxyhTxU2NhmZb3CnlFfTRNyc3HPzl8+j7b177vdHaibn+TvFWFgqfQvHm7Zk6urYpjH/HfEF4uLV/e3OV65UAjUz2F5tyIMLmCVeJHwgGxoitts47yruDF1Yk/wjkKgbo7zEO/BBqxJxY2uJ180xW32xQKf8tuZPcFDG4B6GZfjFGFwAeviAse3V7Y2yW20bfYocFSd2hNELKBe9s8BitBfPa/7/340yxQ3wuuzWWab6DbF86uyWXGjmpLlO/gWgCNytIUE1MbUTMgTytC/Fvk3fUWew9rY7x7a5gMFxqvkdx19yZKHNgB1Mi7HKkL/DHvd/2ux7F3gGLfMCYW9CKgaxuSMjCpwXP/d4fdyTsor2dlyAmpi3dzqEUj98fof2F9Y5BiXzv8z0W1wVIEXlJPkoo7/i35RCNTJdz10tD/e+Auwe7JagaOcmS3zB5PdUhvmmowocFz3ZI2u/LvuxQLq44R8WBHm542PiDy/yFEOz4lFhgEVbb3zuvTvuhcLqI8PZkdFGGjAOqfQcW6QfzTZLfT5bFzoyM7u2r8sYgF10ZPvZaQyzK9IrzcyU4u8cTl5ORvmbhPeEmvmxixY5Miez7i82sV/3zsKgbo40qO85+2NZ7CmZ2KhI10oP80CJrwFRuTHhcar5LddjVfeUQjUx79mbUWYl2Fv+v+zcN5Z6FiXy/D8zpQP2VdyYLFj+2pu6vInmJSe7GCRAZU3PBPyE2WYuze/R26pTHnTea1SzM4uXfgRflm2z+/mEMtLWR/LVuIJxX5RCNTDITlFEfofsJIrslWx430oG2WaaR+0cbkxyxc7usuzXUU+iXuxgDqYkrXynDLM2ZzORYzJ24sd76LZJKd09FUoJenNL7NRweP7eq6pyCe5xNPdgRoYnQXzW2Xof8B6OJ+e45mtMqyS4S4TDtLRRb/XcXY+lOcr82m8QAeog81yVh5Xhv4GrOeya1YseMzb5rbcbuoHbJ98u+DgnVyW71Tq84hYQPX1Zt38SBn6G7CSUdm94DH3ZLecnSdN/oCsl3MKf6zcNypzgfBvEcsvCoGqWzF/zM3KMKewMSfL5uFif0n4J49kyzxs+vtt2VxV9FnNZHbekkcr+Ln8ohCousezeoVusKiMOZ/BeiE7ZaWixz0m2+enXX6oZH2MzsSsVfgYL813K/m5nMUCqm5UZuZiZXijuZ2nKv/hYZvk1Ay3APoVwk8u+reDf/Ljyn4yT3cHqu6fCj8pM8jmOWf35vCMKHzsq2flnOWRDfPRk+NzUPGjfDEfqPD5TLe7A9U2Ikvnl8rQv4A1PWtn/eJHv0HG5TcWwTx9Mx9vwCh/llMr/flELKDa1s3v8qAy9CdgJc/nsAaMf/Ms5iFp8/CVfK4R4/zHTK74JxSxgCrryYScqAz9C1iT8/4s2oAKbJnkUgthjo7MvzVinJPzjzW4VOx2d6DKVsjduUUZ+hOw+jI2b21EDXbIQrnQUniToxsSr5Jv1+T3L5eIWECFbZT/zSxlmH/ASv6YTxX+NKy/2DbL5Dy3u79GT76VzzZkrLPyvjxbk8/qHYVAdS2eablaGfoTsJ7NplmzIXXYNCvmHBHrz4bn//KRxoz27Hy/Rp/WhUKgujbJ9zNdGeYfsJJnc3BjKrFRtsxZFkaSUTktBzRovIfn3lp9XmexgKpaxCNH/6ZnPv/r3VmtQdW4OXs0/gU6y+bsbNKg8d6bNTK7dp/aC3SAano5a3gR3Z8Mm8//vnCjvisvnf1zYZ5o8HpYLxcX/1Kc1zs6k2r4qV0oBKppRBbOucqQzO8MVrJkHsyCjarIc3lvftXQ1bBf/i+jG/Zda8VMrelnPypHOoABlTMja+Z+ZZj/GayXsnI2blRFRubdWSIX1vCy0VBXwpE5LiMbNuofVvwJ7vPiXiygmt1kdM5ShvmfwUrWzm39+L8qzcQclGkNGu+4/Dw7NW6WZ2ed3FXrETiLBVTPzKyTe5Rh2Hz/L6Zms6zRuLqsmsNyW/7YkNHumAuyQQNX/9n5bs1H4CwWUD29Wayxt9oMKGAlU/L3DazMqBycJXJR8U+lHZ7/yImNeCnSm304D9R+DN5RCFTPujmttve3djRgTc7eWbaBtenJFtk9lxV9qXDNnJeDGngJOEmuK+RVQH5RCFRNb8bldAGrP57Pfg2tz3L5QGblqiJveR+RI/KzrNjYtf+Z3FbISLyjEKiadfLLPClgzd8dOTDjGlqhEdk5++QPebSwcW2QM3Nohjd25d+TTxT0aiT3YgHV0pNFc4aANX99eT77NLhKS+d9WTRXFfMinUXzlZyYFRq98j+dm4oajwuFQLVMyE/zlIA1f7fmoIxtcJ16s3U+nOm5rvZnPXpyWM7Kzult9I5/bz5a3GVfZ7GAavXNhXK2gDV/fXk5ezd8sSyc3fKO3JaHajyGbXNGPp5Rjd/x/ynXFzgqZ7GAKlkvP85zAtb83ZJDs1jjl8ty+UC2ze2ZUsul/t18LcvZ5/NgPlTo4zecxQKqlDCG5XwBa/5m56XsZb0kWSUfyrq5rVa/j5iQ7+XbmdDQBzK80WdzXbFjcxYLqI7184O8KGDN3815T6Pvw/qbnqyTj2X9PJBHavBpt8qxOVa4+qu78pGi3zTpoQ1AVYzIK7m4uVFhIN6dX1gvbzhfcGzOqOzlpp7smU+5ZPQG++eXxY/xiBxtooEKeCorNvUc1rAB/V/fnj3dw/M6K+aAHJQF88fKLaCl8on8Xz6ZVUzS61ybzzYi+DuLBVTBQnk01zZz6AO9bLRrfmu9zMGrOTPH56JKXHrqzc75UPbOAqZlDnbO7xoy0qNypOkGuu6PWav4t/q2JGAlF2Yn62UupuaMnJRJXXxW1oQcmkOdZZyridm1QaN1oRCogv2a+Uz3gQesTXJNwx9SOT+Tc1rOzaTM7OC/OSLbZI8ckJWUfx5mZdPc2KgRO4sFdN8V2UbA6p8T837rZb6ezcScl4ltfyzpitklu2eXjFHy+fpBPtS4MYtYQPdtlasErP5YJndntPXSTw/k8kzK73N7S+/P6s2EbJttsl1WVOJ+ei5r5PEGjlvEArrtpzlYwOof93YM3Eu5NTfl5tycu/PYIP/GMlkz62X9bJB1s7CSDnjVfrWhIxexgO56NSsNuvM1LGCNzG1Z1YoZtJdzf+7L/Xk8T+bJTMu0vJwXMiMz83yS0RmeERmVhTI24zIuS2bprJLxGZ+FlG7Q7s2ETG/s6EUsoLuOzBcFrP55Z35tvVAj++TMRo9fxCrjyFs9i6Y3i2RklsxSWSbLZNmskTWyginmDR7NyplhN++fs7OnFUNNnJ29G18DEUvA6pxRWSPrZ7Nslg08kY8/e0/T3gUz+N18pdyWRawYauDFTMgDyiBiCVhdMDIbZYfsnG2yoGlvuMuznd28vz6fY6wYauDz+ZoiiFgCVlctlG2yW/bNeJPfYOvnFrt5/4zI9VnXiqHibskmTbvyL2IJWJW1cfbLflnTEmik7+RTdvP+2jaXNfhAQR3Mzna5Qhlew0NWBKzu2ySH5eCMtRAa5pksn5eaM9xhQ/qvH8zS2cyaocL+J99XhNeZlJ7soAxd9oWGj39Kzs93cnvGZmWLoUEWzF252feo/lokN3kiFpU1OevneWV4E2ex6n7kLccG+XgO9Yy/xrgs29vN+2/nXOBgQSX1ZedcpAxz5F4sAas6ls7H8g9ZQiEacVReJ3c2ZbDDhvwX7sty2cSqoYK+n+8qwlxc4kJhV31BCV7jxVyS7+WFbOAVYA34ajE9F/ge1X9jcotXDlM5D2Q9lwfnyVmseh95yzMqn8jn3PpeuMezQmY2Y6jDWvA3pue2HOKAQaXMzgHNORE9SM5idY8zWHPyaibl+AzLphmuGAXH6Ktzj4DVf/dlsWxp3VAh3/DrwX5FrFeyszIIWBXySibmx1kkG/nSXnDu+GUzBtqqJTwy12R964aKuDFbZroy9IsLhXU+8pZrq3wvGyhDkV7Osnm2CQPtbdHfmZ6D8rJ1Q0W+Ax8mXg0gYP2zIlA5V2bTfDrPKUSBFsr+zRjosJb9pSfzXHa3cqiAw3OuIgyAR492nkuE8zc7V+fkjM/aSlGcxfKjJgyzp6V/65y8w8qhy87OO9OnDAPkQmF9j7ylOyjf9YyswvRllUwuf5i9LS3ZoU0oGZX2UN4vXg0qYLlQSDX9LOvk18pQ2BeMA5swzN6W/rWn8neZYe3QNa/mgExVhkE5xmUrKurxvCsfyIsKUZB3C1gDd6XvwXTR53O1Igyas1hU1w+zSW5ShmJsnNXLH+Swlv/Fq7KemxLpirPyGUUYkkmei9UhzhYO3LT8KGOyhUIU4rH8vvQhtuNWy8VyXVa1euiwP2bTZjxbpc3c7l7XI28zvCc/yCLKUICbsqHdfDDWzlUZY/3QQS9kq9yqDC1xRI5WBAGrstbPrzNeGQqwTu4oe4C9bfmrd+R9fslFB83OIeJVy7jdnSq7OZvnYmUowH6lD3BYm/7uHR5dSAcdmeMVoYW8BrrdRNiheCmnZFw2U4iaW7T043ZPG//yL3KAFUQH/Cr7OWPaci4U1vPI2xyH55ttugZDZ/RlpTxU8gCHtfFvn5+9spQ1RJvdnL3yqjK0nBfotJMzWEN3de7OXhmuEDX+mnFvri15gO3M/89nzzxmDdFWj2bPvKAMbXGUGECl/Ty75RllqLF3lp4g22vjXOYntbTNS9kx1yhDG7lQWM8jb3NslN9mSWWoqRlZOk+XO7x2X8G+PgdmllVEW8zK34lXbXaMp7tTaTfkrXlEGWpqRHYreXjtv0XwXE/Xpk0+lTMVoQMRy4VCquzO7Fj2rdJF26vkwXXmRPU3hSxa7uv5nCJ0iKe71/PI2xwr57K8RRlqaGqWzmy7+dD+lRPzPiuJFjo5f1/ubllB7sUSsKpttVyWZZWhhrYo90aPzjxFpC8fyhnWES1zdt4nXnWUe7Gotj9mxzyuDDVU8F1YnXpM26wcUv6bs+mQS3NgZipDxyOWe7GosrvyDq97F7CqpJMnqsfkkmxkNTFEN2eHkn/YW2kuFNbxyNskb80FGakMtTIrS+WpMofWyRcNPJd35C6riSG5I7uIV13jLBbVdlne57VZNTMsO5c6tM6+yemxvC33WE8M2t3ZKU8oQxd5ujvV9jN3C9bOLqUOrPMnqt+SS7KKFcUg3JvtPVKwEiHLQxvqd+RtkuPycUWo1ZF9Nbt56yLWpRlvTTFAD2b7TFaGSnAvloBVZcNzQXZUhhpZKQ+WOKzeLvybD2WnMouJeNUQ7sWiymbm3Y4WtbJDmcPq7cq/en+2yx+tKfptcnZ0wKyUo9zpQoVNzT55URlqY3sBq5UezPa5w6qiX27PNrlPGSrGWSyq7KZ8SBFqo9ALur1d+5cfzba51rpivm7IDnlUGSrIWSyq7Gc5XhFqYnxWFrBa66m8PVdbWczTlXlbnlSGinIWiyr7dG5RhJrYTsBqtaezSy60spirC7JrnlGGCvNcLKrr5RzoTqya2ErAar3ns0d+am0xRydlz7ygDCIWDNId+ZQiCFjdMqzrn2BWfpVif6TJEHw7H8ssZaiBS/JKuS+7aBOhtFNuyAZZWxkqb8l8M6+WNqjeCnyGvhyVwzPbCuM1a+Lz1kSNHON2dyrrE6W+Srgow7JZiYOqhqtzV/bMcKuMJK/kkJygDLUyKT3OQw+AM1id80Iezn7KUHn35PelDam3Mp/kF3lbHrfGyGPZMacqQ+24F4uq+ml+pQiVt2V5Q6rWG7FWyJnZ2DprtFuyVx5QhpryjsJ6HnnLt0LuyChlqLQnsnRpQ+qt1Kd5ONvnLOuswc7PtuJVjbkXi2p6OEcpQsUtleUFrPZ6Ifvmm1ZaQ309e+Q5Zah5xHKhkCo6NjcpQsUVd/2qt3KfaFY+m4PzkrXWMC/moHzO7wYL4F4sqmhmPpY+ZRCwmh2wkuSn2Sr3Wm0N8sdslZ8rQzERy4VCqudKx5iK26i0AVX3Vssx+XH2seIa4bwcnKeVoShud6/rkbdkK+fOjFSGynooK5Y1oGGV/WTTc1p6sp0DUeFm54v5SF5WiMJ4Lta8uYzaDc9k0WytDJW1aP6nrNuDqh5fdsrJWca6K9aUHJKLlKFQR+VIRajpkbdUi+eejFWGCnf8ovpBb8U/3++yfs6z6gr1u2wiXhUdsNyLRbU8nW8oQoWtU9Zweiv/CZ/MHvl0Zlh5hZmZL2TXTFGIonkuFlXz7TypCJVV2Gu5h9XiU16d32XHLG71FePe7JWT/Wi6AdyLNWfuweqWGRmRnZShol7Kj0oaTn3uBFg4X8k/uHOhCCfl43lBGRrDLwrrfOQtz6jcn3HKUElTs2RJw+mtzSd9KYdn7zxmBdbcY9kjh4lXjeLp7lTJCzlOESpqnIDVPedkvfzSGqyx07NefqMMjePp7lTJ9zJdESpqgoDVPVOzfw7KE1ZhDT2Rg3JApiqEiAVd9Xh+pggVtbqA1V0/z1o53g3SNXNaJnhRRcMjll8UUhXf0EEqalUBq9uezkfyjjxgLdbE5OyWdzt31XjuxaIqbs2liiBgCVhzc37Wzbczy3qsuJn5VtbLbxWCuFBIdZygBJW0WkmDqfuPhTfIcdnGmqysa/OJXKsMvIaHNpRw5K2/hfJoFlOGynkui5YzmN6af/6bsl3+Po9blRU0LZ/OluIVb+Dp7lTBy/mFIlTQmJIe1NBb+xH05SdZK9+1LivmO1ktx2a2QjCHiOVCId33QyWopILuwirnRLXfhFhZ1MdROdL+QZfdlTUUoXLeU865xV6zCXQhYLlQSLd5bHUVLV/OUAQsoBvci0W3naEEApaABYhY0FrX5X5FELAELKDEiOV2d7rpTCUQsAQsoETuxaKbzleCylmhnKH4FSFWFt0OWUfaP+iKhTMtCypDpUzPQqX0c2ewgG4HLGex6I6XcoUiVMzIcp6wL2AB3eZ2d7rlQiWonHECFkDrIpbb3emGi5VAwBKwgJK5UEg33JDpilAxYwUsgFZyoZDOm55bFKFinMECELGovWuVQMASsIDyI5Z7sRCwms0lQoA2cC8WneUSYdWMEbAA2sGFQjrpLo+prphRAhaAiEXdPZ/HFEHAErAAEQta6y4lELAELKA5Ecvt7nTG3UogYAlYQHO43Z3OeFQJKmURAQugvVwopBPcg1UtzmABiFgU4HElqJQFBSwAEQsBi9YaLmABdCZiud2ddpqqBJUyQsAC6Ay3u9NOryhBpQwTsAA6xYVCBKymcIkQQMRCwELAErAAEQve6GUlqJRi7sHqKWZKvK7TyqJ8R+Ro+wf6h/5RB85gAfXhLBYgYAGIWICABSBiAQhYgIgFIGABiFiAgAUgYgEIWICIBSBgAYhYgIAFIGIBCFiAiAUgYAGIWICABSBiAQhYgIgFIGABiFiAgAUgYgECFoCIBSBgAYhYgIAFIGIBAhaAiAUgYAEiFoCABSBiAQIWgIgFIGABIhaAgAUgYgECFoCIBQhYSgCIWAACFoCIBQhYACIWIGABiFgAAhaAiAUIWAAiFiBgAYhYAAIWgIgFCFgAIhYgYAGIWAACFiBiKQIgYAGIWICABSBiAQIWgIgFIGABiFiAgAUgYgECFoCIBSBgAYhYgIAFIGIBAhaAiAUgYAGIWICABSBiAQIWgIgFIGABiFiAgAUgYgECFoCIBQhYAIhYgIAFIGIBAhaAiAUIWAAiFoCABSBiAQIWgIgFCFgAIhaAgAUgYgECFoCIBQhYACIWgIAFIGIBAhaAiAUIWAAiFiBgASBiAQIWgIgFCFgAIhYgYAEgYgECFoCIBQhYACIWIGABiFgAAhaAiAUIWAAiFiBgAYhYAAIWgIgFCFgAIhYgYAGIWICABYCIBQhYACIWIGABiFiAgAWAiAUIWAAiFiBgAYhYgIAFgIgFCFgAIhYgYAGIWICABYCIBQIWACIWIGABiFiAgAUgYgECFgAiFiBgAYhYgIAFIGIBAhYAIhYgYAGIWICABSBiAQIWACIWIGABiFhA+wxXAoCORqyFFAHK11PMSPpMppUFoH/oH9XgEiEAgIAFACBgAQAIWAAACFgAAAIWAICABQCAgAUAIGABAAhYAAAIWAAAAhYAgIAFACBgAQAgYAEACFgAAAIWAAACFgCAgAUAIGABACBgAQAIWAAAAhYAAAIWAICABQAgYAEACFgAAAhYAAACFgCAgAUAgIAFACBgAQAIWAAACFgAAAIWAICABQCAgAUAIGABAAhYAAACFgAAAhYAgIAFACBgAQAgYAEACFgAAAIWAAACFgCAgAUAIGABACBgAQAIWAAAAhYAgIAFAICABQAgYAEACFgAAAhYAAACFgCAgAUAgIAFACBgAQAIWAAAAhYAAAIWAICABQAgYAEAIGABAAhYAAACFgAAAhYAgIAFACBgAQAgYAEACFgAAAIWAICABQCAgAUAIGABAAhYAAAIWAAAAhYAgIAFAICABQAgYAEACFgAAAhYAAACFgCAgAUAIGABACBgAQAIWAAAAhYAAAIWAICABQAgYAEAIGABAAhYAAACFgAAAhYAgIAFACBgAQAIWAAACFgAAAIWAICABQCAgAUAIGABAAhYAAAIWAAAAhYAgIAFACBgAQAgYAEACFgAAAIWAAACFgCAgAUAIGABACBgAQAIWAAAAhYAAAIWAICABQAgYAEACFgAAAhYAAACFgCAgAUAgIAFACBgAQAIWAAACFgAAAIWAICABQCAgAUAIGABAAhYAAACFgAAAhYAgIAFACBgAQAgYAEACFgAAAIWAAACFgCAgAUAIGABACBgAQAIWAAAAhYAgIAFAICABQAgYAEACFgAAAhYAAACFgCAgAUAgIAFACBgAQAIWAAAAhYAAAIWAICABQAgYAEAIGABAAhYAAACFgAAAhYAgIAFACBgAQAgYAEACFgAAAIWAICABQCAgAUAIGABAAhYAAAIWAAAAhYAgIAFAICABQAgYAEACFgAAAhYAAACFgCAgAUAIGABACBgAQAIWAAAAhYAAAIWAICABQAgYAEAIGABAAhYAAACFgAAAhYAgIAFACBgAQAIWAAACFgAAAIWAICABQCAgAUAIGABAAhYAAAIWAAAAhYAgIAFACBgKQEAgIAFACBgAQAIWAAACFgAAAIWAICABQCAgAUAIGABAAhYAAAIWAAAAhYAgIAFACBgAQAgYAEACFgAAAIWAAACFgCAgAUAIGABACBgAQAIWAAAAhYAAAIWAICABQAgYAEACFgAAAhYAAACFgCAgAUAgIAFACBgAQAIWAAACFgAAAIWAICABQCAgAUAIGABAAhYAAACFgAAAhYAgIAFACBgAQAgYAEACFgAAAIWAAACFgCAgAUAIGABACBgAQAIWAAAAhYAgIAFAICABQAgYAEACFgAAAhYAAACFgCAgAUAgIAFACBgAQAIWAAAAhYAAAIWAICABQAgYAEAIGABAAhYAAACFgAAAhYAgIAFACBgAQAgYAEACFgAAAIWAICABQCAgAUAIGABAAhYAAAIWAAAAhYAgIAFAICABQAgYAEACFgAAAhYAAACFgCAgAUAIGABACBgAQAIWAAAAhYAAAIWAICABQAgYAEAIGABAAhYAAACFgAAAhYAgIAFACBgAQAIWAAACFgAAAIWAICABQCAgAUAIGABAAhYAAAIWAAAAhYAgIAFACBgAQAgYAEACFgAAAIWAAACFgCAgAUAIGABACBgAQAIWAAAAhYAAAIWAICABQAgYAEACFgAAAhYAAACFgCAgAUAgIAFACBgAQAIWAAACFgAAAIWAICABQCAgAUAIGABAAhYAAACFgAAAhYAgIAFACBgAQAgYAEACFgAAAIWAAACFgCAgAUAIGABACBgAQAIWAAAAhYAgIAFAICABQAgYAEACFgAAAhYAAACFgCAgAUAgIAFACBgAQAIWAAAAhYAAAIWAICABQAgYAEAIGABAAhYAAACFgAAAhYAgIAFACBgAQAgYAEACFgAAAIWAICABQCAgAUAIGABAAhYAAAIWAAAAhYAgIAFAICABQAgYAEACFgAAAhYAAACFgCAgAUAIGABACBgAQAIWAAAAhYAAAIWAICABQAgYAEAIGABAAhYAAACFgAAAhYAgIAFACBgAQAIWAAACFgAAAIWAICABQCAgAUAIGABAAhYAAAIWAAAAhYAgIAFACBgAQAgYAEACFgAAAIWAAACFgCAgAUAIGABACBgAQAIWAAAAhYAAAIWAICABQAgYAEACFgAAAhYAAACFgCAgAUAgIAFACBgAQAIWAAACFgAAAIWAICABQCAgAUAIGABAAhYAAACFgAAAhYAgIAFACBgAQAgYAEACFgAAAIWAAACFgCAgAUAIGABACBgAQAIWAAAAhYAgIAFAICABQAgYAEACFgAAAhYAAACFgCAgAUAgIAFACBgAQAIWAAAApYSAAAIWAAAAhYAgIAFAICABQAgYAEACFgAAAhYAAACFgCAgAUAgIAFACBgAQAIWAAAAhYAAAIWAICABQAgYAEAIGABAAhYAAACFgAAAhYAgIAFACBgAQAgYAEACFgAAAIWAICABQCAgAUAIGABAAhYAAAIWAAAAhYAgIAFAICABQAgYAEACFgAAAhYAAACFgCAgAUAIGABACBgAQAIWAAAAhYAAAIWAICABQAgYAEAIGABAAhYAAACFgAAAhYAgIAFACBgAQAIWAAACFgAAAIWAICABQCAgAUAIGABAAhYlbG2qTQjACBgtc7COSo3mMqKuSnHZrQyANBMw2o/ggNzTvbKcFNZuZW1RQ7NI7lNKYAKWyxfy+bKUCnjcmVeUYbuWju/S5+t0tuFWctCBSqpJ+/N447TFdwez3vTY4F2y4gckVcswxpsr+bojLRggYrZMJc7Qld4u9aZxe7YMrdYfjXabskWFi1QGaPz7cx0bK74NtO9vJ22cI62Y9Rum5XvZ5TFC1TA7nnAUbkm2yPZp67LrH7XOHfIDzPe8aGW7s/7c4kyAF20ZP47BytDrZycz2Rq/T52vX5FuGCOyfeyhNVWU4vnsIzJZZmpFEBXHJyzsqUy1Mz6eV8eyS11+9h1OoO1Xk7KBlZa7d2eQ3O9MgAdtmS+n3cpQ239Jh/MlDp94GG1+Zyfz8+yvBVWxEHuAxmW36dPKYCO2S3n+VVara2eQ3NP7qrPB67HGawV8tNsZ3UV5eoclPuVAeiA0fl6PqwMRTgpn8jzAlar7J0fZqxVVZxpeV/OVgagzbbJSX4aVZD7ckiurMMHrfolwhH5r3wnC1tRBVo478kSuTizlAJok54cnlN8RS/K4vn7DMtl1b/NpNpnsFbNL7KJ1VS06/Ke3KsMQBssk5OyszIUaWIOzePV/oi9Ff5s78i14lXxNs31ftcDtMHbcr14Vaxdckt2q/ZHrOolwt4cmf91abARRuaA9PhVIdDSHvLFnJAxClGwRfJ3GZ5Lq9s7qnmJcEx+XN+H4zMov8kheVoZgBZYIj/N25WhEc7PwXlKwOqv9XNGVrVqGuePeVduVQZgiDbKL/1qsEHuy765qYofrHr3YO2W34tXjbRarszeygAMycG5XLxqlFVyVd5XxQ9WtXuwPpsfZUHrpaEWyLvzfK5SCGCQHe1bOSYjFKJhhuedWSwXVu1urJ5KlejYfNxKabwf5OOZoQzAAI3OT7OnMjTWb3NgnhWw5mSJnJ4drRCSXJT93fAODMj4nJ0JytBot2avTBaw3milnJ+1rA7+7I7slgeVAeinrfKrLK0MjTct++ayqnyYatzkvn6uEK94jbVzRdZTBqBf/i4Xi1ckGZsLclBVPkwVbnLfIb/NktYFrzMmB+WqPKAQwHwcnu+7sZ0/G55905NLBKwkeVd+lVHWBG+yYA7KPblNIYC56skx+VLF36pLp9fEDlkiF3T/N4XdDlgfzY9982Ae30Qeyx8UApijkTkpH1EG3mSLrJ5zMqvJAeuzObbSr5um+99E9syznowFzMGYnJ29lIE5Wi9b5dd5takB64h81Yld5huxdstCuVAhgNdZLOdnO2VgrlbJLjkjLzcxYH0xXzL/9Mu2WVjEAl5jqfwumyoD87Rc9siv8kKzAlZPvp3PmXv6bZsskd8qA5AkWT4XZ11loB9B/B35VZ5vUsD6aj5j3hmQLbJ4zlcGICvloqyhDPTLktkv53Tn3SDdCFjfzGfNOYOIWKNzgTJAw62SyzJeGei3xbJPzswzTQhY/+XiIIO0dcaIWNBoK+airKQMDMiieVc3IlanA9aX86/mmkHbKqMyURmgod6SS7KKMjCIiLVPft3piNXZgPVvOdI8MyRb59VcrgzQQCvkkqyqDAzKYtkzZ3T2dvdOPofqY/kfc8yQ9eWjOV4ZoGGWzaVZXRkYgruyQx4rMWC9K6dV4tXS1N/sHJRTlQEaZNFckg2VgSG6Jdt37heFnQpYO+XcjDS3tMireaeHNkBjLJQLsq0y0AJXZee82Jl/qjNvAtwyZ4pXtNACOS2bKwM0woj8UryiZXnkFxlRTsBaJWdmEbNKS43Kue7HgAboyQnZXRlomT3yo86cXGr/XVFjc0lWNKO03MLZNT/t5os8gQ44Nh9RBFpqvYzpxMvX2h2wFshZ2cRs0hbjsnV+mlkKAcX6x/yHItByW+XpXF3vgNWTH+WdZpK2WSmr55fKAIXaMyd26E5hmubtuTl31jlgfSUfN4u01boZlouVAQq0Rc7x8yjapCd75YI82t5/on0OzsnmkLbry9/l58oAhVk5V2VpZaCNHsuWeaCOAWvjXJ6FzB8d8FK2yY3KAAUZk6uytjLQZrdm6/a9PqddV7fH5nTxig5ZOGdmKWWAYvTmZPGKDlg3J7XvLr/23IM1Iud4qQEdtGi2yil+TwiF+FI+qAh0xFpJLqlTwPpu9jdrdNSKWSK/UQYowP75dgffk0vTbd+u3xO2YxG/Jz8zY3TBYTlJEaDm1s8V3v1BR72QrXNLHQLWOrnGzkGXdpLNc4cyQI0tlj9kFWWgw+7NJnm21X+01Td3LZLTxCu6ZJTVB7XWkxPFK7pg1ZzU+hNOrb4H6wfZ2UzRNUtlvCe7Q239Uw5XBLpizTybq1r9faGVPpL/NUt02YfyA0WAGtomF2eEMtAlM7J9rqxqwFo7f/DsK7rupWzS7jdMAS23ZG7I8spAFz2cjTK1dX+udfdgjcxPxSsqYOGckgWUAWqlJyeJV3TZCvlxK087te4erGOyr9mhEpbNArlQGaBGPpNPKAJdt3qm5ZrWfWtoje1zUfseNw8DNDu75CJlgJqYkGtdAaESpmfz3FylgLV4bsyK5oUKeSQbZJoyQA2MzDVZXxmoiNuyWV5uxR9qzSXCH2Ubc0KljMkKOUMZoAa+mb0VgcpYKgvnt634Q604g/UujYxK2idnKgJU3NtznjcPUil9eXsmViFgjc2tWcZ8UEGPZUKeUgaosDG5NW9RBirmkaybZ4b6R4Z+ifAH2cpcUEmjslx+pQxQYcdlB0WggsF/iZwz1D8y1DNYe+ZsM0GFvSu/VgSoqJ0y0eVBKqkvuw/1TqyhLe1Fc0eWNQ9U2KNZO88pA1TyLMEtfn9OZU3O+nl+KH9gaJcIv5G3mQMqbXRG5TxlgAo6NjspApW1WBbLuUP5A0M5g7Vprmrhk+ChPWZn61ytDFAx2+YylweptL68LZd0I2D15spsrv7UwB+yRWYpA1TI8FyXDZSBirstG2XGYP/jwZ+B+lQ+oPbUwnKZ2rq3SwEt8PkcrAhU3lJ5IZMG+x8P9gzWcrkjY9Semngua+dRZYCKWDm3ZWFloAZezIQ8MLj/dLAvaP6qeEWNjMkxigCV8W3xippYJN8b7H86uDNYW+YKNydSK33Zyq3uUAn7eAAwNVuxg3rtWs+g/pur3N4+JC/k/tyf+/NYnsy0TM20TM8z6cuMvJBkVEakJ4tlZMZmXMZmqSyT8RmflTNK6YbgqmydPmWALhuZ27KqMugfNXJvJmR6ZwLWYfmxeg9ip7g1N+Wm3Jy78+Qg/8aSWTPrZYNskHXtLINwaE5WBOiyI3K0IugftVu1X+1EwBqVu7KcavfbfZmUyzMpd2R2C/9qb9bOttkm22a8EvfbI1kzLyoDdNEyuTujlUH/qJnnskYeb3/A+lL+Ta374elMzG8yse2/XVsuu+Yd2SWLKXk/fCFHKQJ00Q/zPkXQP2roxHyw3QFrmfwxi6j0fL5znJZzc2VmdvDfHJ6t84682/eR+Xghq+YJZYAu2TRXD/q36/qH/tFNs7NZrm9vwDouH1fnuXo4Z+S0TOrirdQTckAOzSqmYq6+ncMVAbrkouyoCPpHTV2aHdr551fJ9PTZ5rC9kp9lx4p8M+vNTvm5mZrLNj0rO05AV+zmCKR/1HrbpZ2lP1mB57DdlX/KkpU7lC2Zz+UuszOH7Sf6HHRBT653/NE/ar1d174ngK6XWQr8hu3yHDCE9zm2/4C2c842S2/YZnnFLHTBQY4++kftt3e3q9y/VtzXbDNzajarxWFt85yWmWbsNdsZeh102Ijc7dijfxRwxnF4O8q8QWYr7l/Pgfw8a9Xq4LZ2TjV/f91mZz39DjrqI448+kcR24faUeLTFfbP28RsXMsD3AQ7yV+3X+h30NHzV/c77ugfRWwPZIFWF3dd91+lL325OlvV+jC3da4xi+nLrKyj50HHfMhRR/8oZvtAqwv7c0XNo/lwAY/I68lhmWI2vZUQOnj+6j79Q/8oZru3tfdhrdX481ev5uiCXo85Ol/NjMbfZLqGvgcd8T79Q/8oajuslQX9YcOLeWM2Ke6Qt37jT/Yer+9BBwxr+BOV9I/ytntadw5rmbzS4EK+lM+152eZXTc8R+SlBs/sy1lK74O2O1j/0D+K297TqkJ+udE3Ja5e9KFvjUZ/D/mC3gdtd4P+oX8Ut13XmhIunKmN/aXZsa3/OWYFv4cc1djHyE3LIroftNXO+of+UeS2QysK+InGPuti+8YcArfKvQ2d5Y/qf9BW5+kf+keR29lDL11v7mlk6X6TJRp1EByb8xs5z3cV8MNpqK4JjXw4pf7RhG121p5/gJq33bNa4w4JfTkme+WpRo15WnbPP2d24+Z6jeyqB0Lb/GN69A/9o0g9+cxQ/0Tz3qX9TPZu7MFwnzzbuPk+Uw+ENlmqcb9A1z+a9Uv0cUMp2IqNu33t/vmf9CvahExu3ANHV9YHoS3+Rf/QP4rePj/vgsz7EuHHMqxRy+OmbJs7Gr2D3JYtW/Xz05oYlg/qg9AGvfmQ/qF/FO0jg7+Ld4E83qgsel5GOyYmWSRnNWrepzTgx9TQeXvqH/pH8dvugz2DtX+jnnR9YvbM8/aOJC/mXfm/Bo13mbzLpEPLNekhKPpHU/vHoFf5hQ1Kof/j5/qv05P/btDsn2/CocVWatAdvPpHc/vHrMHdxbtiZjWmRF+xR8zB0Q260X0F0w0t9V/6h/7RiO1LgynP/2tMef7DvjAXRzZmDfyLyYYWGpaH9A/9oyFP7R/E+cs7G1Kcb9oP5uErjXmie4/JhpbZVf+gMf1jp4EWZpuGFOY79oH5+EZDVsKWphpa5hT9g8b0j58MtCzHN6IsP3DeYr568sNGrIXvmWpokTF5Uf+gMf3jhYE9omNEpjWgKOc07DGqgzUsv27AanjK07CgRT6kf9Co/vH+OQ9+zjdn7dKAd4FflwMzy+rvh1k5JNcXP8rF8zZTDS1xqP5Bo/rHYQMJWO8uvhyTs1detPb76YXsmQeKH+UBJhpaYIVso3/QqP6xXZbvb8AamXcWXoxns0ces+4HYEr2yHOFj3EfFwmhBfYv/LGb+of+8eYktW9/A9auWazoUvTl/bndmh+g23Jo+ooe4RLZ2TTDkJV9BUT/0D/6vep7G7d7JF/KGdb7IJyVowsfoYuEMFRvKfyRJ/qH/jEn2+Qt/fk/G5GnC3/nubdGDdawXFD02piW4SYZhuQf9Q8a2T8O788ZrG2LvkD4YA7ObCt9kGbloDxc8PiWKP7mXGi3ks8D6x/6x4BW/psD1l4FF2B23punrPMhmJaDi/5x8p6mGIZg2Wyhf9DI/rFVlp5/wCq5xXwlF1vjQ3RZvi5gAXO0R8FPN9c/9I956c3u8/s/WbPgK6TXZYT13QLDc1XBq2R1EwyD9iv9g8b2j9PndwZrj2Kn9eUclBlWdwvMzGF52Tks4A1GFvuoE/1D/5i/XTOyqQHryNxjbbfI3flisWPbw/TCIO2QUfoHje0fo7P9vP7nBfNyoafubnB6t6WG57pCV8rLWcj0wqB8V/+g0f3j2/M6g/XWLFjkdM7M+53ebXFFP1BoRRfM1qYXBmU3/YNG94/d5hWw3lbodH4jN1jTLXbTG7N6MXYyuTAIK2VV/YNG94/Vs+LcA1aZNyg+nv+yntvgC5kiYAH6B/rHn71tbgFr8WxY5IA/X/h7vLvl+fxbkePaJIubXPDVRP/QP1q3F+xb5E1nVxf84Ltu6821Ra6ZfUwtDFBPHtM/aHz/ePS1K+a1Z7C2K3AK+/Lp9FnJbTI7ny5yXNuaWhigdd/8ohD9g8b1j2Wz9pwDVom/njo7V1rHbTQp5xQ4Kr8jhIHaUf9A/3j9nvC3gLVQgXdg9eVIa7jN/rXAt8tvXOjjSqB9ttE/0D9e/wX9bwFr8yxQ3EBPzY1WcJvdkjOKG9PIbGJiYbBtRf+gwf1jmzkFrC2LG+asHGX9dsCRmaVZQKO9JSvoH+gfSVbKcm8OWOWd4D09d1q9HXB7fi1gQaPpH+gfb9obXnuJsDTfsHY75OvFjWgLkwoDsJX+gf7xxr3hLwFrueJ+YntprrVyO+Sq/L6wES2bZUwrNDZg6R/6x+Bt/caAtXFxk/Y161a1h2Ajkwr9tEDWd0RDtf9sw4x4fcDasLAB3p3fWLUddE7uEbCgodbJSP0D/ePPRmat1wes0s5gneD5ux3Vlx8U9x0E6B/9A/1jDl/Qe4v8vv5qfmLNdtgPM73EHQRo2N6if+gfLQ1Yi2WlogZ3Rp6wYjtsas4qajyrZoxJhX7ZQP9A/5hbwFqnsDeGn2C9dsHxRY2m57Wv7ATmqrewC+r6h/4x9K8cPX8LWGsVNbSHc4nV2gUX5dGixrOWKYV+GJ/R+gf6x2v8+argnwLWmkVN1C8KfH1kHczOqUWNZ01TCv1Q1rle/UP/aNkX9BLPYP3CWlX5Vu0gQKP2FP1D5QWsubov11mpXXJV7tU2oGFKOterf+gfLQ5YC2SVgoZ1mieYdNEZBY1ltb88jRdoSMDSP/SP1lj7LwFrfIYXNKxzrVLVb4kRGW9CoX/f1R3BUP03fu3oTbJyQYN6OldapV10RZ4taDQrm1CYj7FZUv9A/3iDpbP4nwJWSQ8ZvSAzrdIumpGJBY1mRRMK87Gq/oH+MQerlBewzrNGzUDLrGQ6oUF7if5hBlq6Z5QWsCZaoWZA64COKek8r/5hBlpn5dLuwbq3sGeJ19FDeUDrgMbQP9A/5tI/yjqDdbn1aRZayBksaM5eon+YhRbvGb3pzTLFDMgvQKpgUjEjWa6wl6CDgKV/6B8dDFhLFPQULN9AzEIrLZDFTCfMUzkX0vUPs9DiPaMnE3JrIcN5IYt6TWcF9Oa5LFLIWNbOnSYU5mqhvKR/oH/MQV8W7M1SxUzMzXaPSpid24oZy1KmExqxh+gf+kdr9WTJsgIW1XCT9gEClv5Bs/uHgIWZELBAwMJMtNbSvRlnWjATAhYMgv6BmZhr/+gt6HdSd1mZFXF3MSNZ1GTCPJTzkB/9Q/9oQ8AaXchQXshUK7MiHi/ml0VjTCbMwxL6B/rHXIzrLaaF3G9dVkZfJhcyktEmExrwFUT/0D/a0D/KOYNlBzEbAhbYQ/QPsyFgmZKC3ef7OQhY+gdN7h/lXCKcYlVWyGPaBzSA/oH+Mdf+0VvMS02mWZUVUsoNo6NMJTTgK4j+oX+04etHb0aaEhyu5mIBUwkNCFj6h/7Rhi/ovRlmB6HlnixkHCNMJczDwvoH+sdcLNJbTAtxitdstN5wUwkN2EP0D7PRhr2jnID1vFVZIS9oH9AA+gf6xzwCVikt5FWrskKmax/QAPoH+sdc+0c5Z7CmW5VmQ8ACe4j+YTaq8fWjN72FDGWGVWkHablhphIasIfoH/pHG75+9BazsHwDMRut58IBzLOFOGJhNuYesLQQcNiFwehTApjb3tFbTAvxSMgqKeXxtb5+QBP2EP1D/2jDF/ReOwh2kLnvIKYSBCz0j8HsHeUErJFWpdnQPsAeon+YjWp8QXcGCzvIPHYQUwkN2EP0D/2jDV8/yrkHa7RVWSGjfD8HAUv/oMH9o6AzWOOsygpZUvuABijlMT/6h/7Rhi/oAhZmYx47iKmEBnwF0T/MRhv2jnIuEY61KitkCQELGqCUPUT/0D/asHf05hmZl5Yr5RTv06YSGhCw9A/9o/Wm92ZaIUNZ1qqskGUKGcdTphLm4SX9A/1jLl4uJ2CtbFVWyPhCxjHVVEIDvoLoH/pH600rJ2CNtyorZJVSdhBTCQ34CqJ/6B9t2Dt67SC0XE9W0j6gAXxBR/+Y695RzhmsUW5TrIyls7D2AQKW/kGT+0dvQS1kLSuzItYoZiRucodmfAXRP/SPlveP3oIugqxvZVbEhsWM5EmTCfOgf6B/zLV/lHQGyw5SFev5fg6NoH+gf8x17+jNU+krZDAbWJkOVS01u5jH8IKApX/oH531VE+Sx7J0EYN5MWMy2+rsumF5rpCbFB/N8qYT5mF0nitkJPqH/tFqi/QmmVzKYLK21VkB6xSze0w2mTBPzxfzNlv9Q/9orZfzUkkBK9nW6qyA7YoZyf0mE+bjQf0D/WMOHkjKCljbWJ1moYUmm0xozF6if5iFFu8ZzmBhFgQssJfoH2ahle4vLWCNd1Ny162YFbUOELD0DxrdP4q7RJjsYoV22a5aBwhY+gcN7x9/PYPVV8yQdrdCzUCLzM5DphMaFLD0DzPQ0j2jJ0kyJcsUMqRns2RmWKVdMyJPZtFCxvJQQSeroV2WyyPFjEX/0D9aZ6k82VvYd5BFs6VV2kXbFLR7TDadMF9T8or+gf7xBi/myT9dIkzuLGiK9rRKu2iPgsZyl+mE+erLA/oH+scbPJD8JWDdWtCw9v/zZU86ryf7FzSaW00o9ENJD+TVP/SP1rjvbwHr5oKGtUo2t1K7ZKusXNBobjah0A+36R/oH3P6gv6ngHVLUdN0oJWq8q3aQYD50D9Q+TnuFX85Hfp4lipmYI/mLd6K3gW9eSjLFTOaKQWNBdppo1xf0Gj0D/2jFdbPLX85g1XWd5DlsqPV2gU7FbV73GJCoV/uyEz9A/3jNWb86UdSJQas5INWaxd8uKjRuAML+ueV3KN/oH+8xp15tdyAtW9BFzzrYlz2Kmo8zmBBM7+O6B/6R4v6R2+RO8gCOcyK7bAPZKSABY1U1t6if+gfLQ5Yt2dWUcP7kKeZdFRvPlDUeGblDpMKDf06on/oH0Nz6+sD1ktFPcskWcMTeTtqr6xe1HhuLuj1HyBg6R/6Ryfd9PqAlUwqbID/ZNWq9qBdYUqh3ybnGUc0VPvPns7DbwxYpbWUt3ptZ8dsnm0LG9Ekkwr91per9A/0j7+mqb7SA1byWSu3Q/65uBEJWDCwlqJ/oH+8YW/4W8C6L1MKG+S7sra12wET8s7CRvRwHjSt0OivJPqH/tHCgFXed5BhOcrq7YAvvm4VaRbQPFcX9TR3/UP/GLwZuaYJASs5IBtav222cd7l2zg03IsFvvtA/9A/BuOGvDSngFVeW+nJF63gNvtSgU+M8RtC8LVE/9A/hrgn9L4ud71c3FD3ytbWcBttm3cU+F38JhMLvpboH/rHIFw554D16t+uHBbkW8Vd4a2O3nyrwFFdVdzdJCBg6R/6R2fM5QxWMrHAwW6Wv7eS2+QD2aTAUU00sTBgD+Yh/YPG94/78+jcAtb5RU7jf2W0tdwGi+bLRY7rfFMLg3Cp/kHj+8fr9oLXB6zr83iBA14m/241t8GRWarAUT1a4K+hwFcT/UP/6Ppe8JP0FbjNKPJUZHdtmFeLXCsnmloYlHGZpX/Q6P4xM2Pnfgar1O8gw3NiRljTKtoPvzW5MChT8wdHOxpd0WsybV4B64LMLnLYG+QfreoW+nw2LnJcs3KhyYVBKvX+Rf1D/xjUHvDmh3xdlS2KHPjL2TB3W9ktsWZuzIJFjuyKbGN6YZC2LvYtCPqH/tEfW7z+YVe9jfkOslB+mgWs7RYYkR8Xu3v4BSEM3tV5Sv+gsf1jaq57/f+PNwescu9B2SRHWt0t8OVCz3EKWDA0JV9i1z/0j/npxy1WwzKlyLv7+9KXWdne+h6itxX6S6G+9OURT22GIXlfsUcH/UP/mN922BuH2zuH7yC/LHZye3PS639EyQCNy08KDiGnF/oTD+iU8wveh/QP/WNeZr/5+t+cBntqwRP8lvwiw6zzQR9gTs7yBY/vF6YYhmTKa191q3/QoP7x+zc/qH1OAevyPFJwEXbKF630QfpK3l7w6B4uujVAZ5xW9Oj0D/1jbvp9aurYgq+S9mV29rfWB2GfzC56XXzDFMOQLZuZ+geN6x+zsuycTto17ztIT07MBOt9gNbLT+bw1DTfvIHXmpIr9A8a1z8uzZT+BqxJebDoUozJb7OCNT+gb6XnFP5O+YdytWmGFji18PHpH/pHP1f9nANWX84ovBjL58yMsu77aXTOzYqFj/Hn6TPR0AKnZ5b+QaP6x6w5Z6a5/WSy/MslG+fUDLf2+2FYTs5GxY/SBUJojcfye/2DRvWPi/PEQALWlZlcfEl2z/GFXxVuhd78MHsXP8o/vvEVB4CvK/qH/tGeFf/vRd/x/5ftO/aA+TiuEevgX0w0tMzShf+SUP/QP167zci4gRZmhYbsIv9tH5iHrzRk91jOVEML/aYRRw79Q//oS1/OnFsB5v5U2ueyedZowBLYMsml9oQ5OjL/1ohxnpMTTDa00Es5sBHj1D/0j+TzuWvg/9E+DUmffTnGvjAHX2jM/O9psqGlhudR/UP/aMQ2ZXA/dxieRxpTou8V/ArKwejJtxoz94/6NRC03NGNOYLoH03uH3358mDL9F8NKtIPvcTzNdH6x3YPYAhWL/zVKPqH/vGnVyetMthCrZJZDSrUbzPGvpFkVM5u1O6xqimHNri4QccR/aOZ/aMvF86rGPM+sXlfLmnQwtg1v/cChCybSxp1T9Lvcq9jIrTBDxo1Wv2jif1jiKv8wEZl0b48kHUbvXuslwcbNuPv1gehLRbMNP1D/yh6m5qRgz+DlZye+xu1QFbMFdm/sbvH3vl93tKoEU8u/q2b0C2v5OSGjVj/eEvDxnxSpg/tD/xjwxJpX2bnvxp4w+KwHNOom1L/tH1aF4S2WatRd/HqH02b61lZc6iFG5NnGle2vlyQsY3aPcblwgbO8tMZrQdCG53VwOOK/tGU7cz5FWb+T+94rmG3Kv7JLrk1uzVmtDvmxuzUwFn+fp7XAaGNvtnIUesfzfD1VvyRFfJqI9Pp7BybBYpfIsNzVANP4/elL6827n4B6LyrG3l00T/K365tVRFPaWgB+3Lt0K+xVtqaua6xc/sTvQ/a7qDGHmH0j7K3lr1tc+MGF/HlHFXo95DhOTwvNHhmN9T7oAPHmQf0D/2juO3+Vr5i7eIGF7IvN2Wz4naPDXJto+f0Ap0POuKzjT7S6B9lboe3spy7N7yYM/L1gl6EsGi+mRkNn9Fd9D3oiDF5Vv/QP/wCfV6uaHhB+zIl7y/gnem9+WAeb/xc/l7Xg475RuOPOPpHWdsxrS7sLoqavlybrWu9e2zb6JsS/7btqOdBxyyXlxx19I9ithezdOuLe4nCpi99mZhNarlzrJdTG/is3Tltv9PxoKO+6bijfzh/Ne/0qrB/ecLJ2TX7Ddo6do7XbG/V76Cjlszzjjz6RxHb81mqPWW+UHH/us3K6dmiFjvHVvllYx8FN6ftfN0OOu4Yxx79o4jtP9tV6q0V9w3b5Tmgwi/27MlemWiW3rBtoddBx43Nc44++kftt2eyRPtKfp4Cv2m7O59r1ynDIVgqn8/dZudN29k6HXTFlxx/9I/ab0cOLKMOzOa5asD/TRO8mjNzfC7K7Ap8lt7snA9l7wa8B2vg+rJprlcG6ILFc18WUwb9o8aeyip5tp3/wKky7Fy3J/P9bNvVADohR+cRMzHX7RRHCOiaIx2D9I9ab/86sIIOfDJXzh1Z0JFiHibntJybSZnZwX9zRLbJHjkgKyn/PLyUtfKQMkCXjMm9GacM+kdNPZHV8nx7A1by5fw/lZ6vZzMx52Vi2xv6itklu2eXgl7E0D5fyFGKAF30sfyPIugfNfXhnDCw/2AwAWtU7spyat1PD+TyTMrvc3tLr6/3ZkK2zTbZLisqcT89nDXzkjJAFw3PDVlXGfSPGropm2RW+wNWclh+rNoD9FJuzU25OTfn7jw2yL+xTNbMelk/G2TdLKykA3SIO7Cg63bOREXQP2pox1wy0P9kcAGrN1dlM/UetJdzf+7L/Xk8T+bJTMu0vJwXMiMz83yS0RmeERmVhTI24zIuS2bprJLxGZ+FlG7Qrsw26VMG6Lozs7ci6B81c0b2G/h/NNhfLGyVSR7XQG30ZctcowxQAavmtoxUBmrk1UzIHwf+n/UO+nzAz9Wc2jhJvIKKuDffUQRq5RuDiVcZwlmot+S2jFZ3auC5rJ1HlQEqYtHcXcGnl8OcPZY1BvZ4hr8Y/HuQnssL2V3lqYHP5GJFgMqYnueylzJQE4fn6sH9h0O5j6o3l2Ubtafirso2lXgFBaB70KAOMrQb1dfKjW5WpNJezUa5XRmgYnQPiu8gw4b0T0/NAtneDFBhX8zpigCVo3tQfAcZ6qMWRub6rGMOqKg7s2GmKwNUkO5B4R2kd4j//PR8wP0tVNTsfFC8gorSPSi8gwwb8kd4OMtmUzNBBR2X7ysCVNbDWcY7QSi3g7TiaeyL5mavjKRyHsj6eU4ZoMLG5PYsrwxU0EOZMLinX/1Nbws+xrM5ZKDvmIY2m533ildQcc/lI4pAJf3DUONVKy4RJsmDWSjbmg8q5D/zf4oAlXdPVsv6ykDF/DjHDP2PtOqFzcMzKZubEyriD9kqM5QBamBUbshqykCF3J8NW3EFpLdFH2dmDs4LZoVKeDF/J15BTbyQ97rJhAqZmYNbc4PJsJZ9pKfyVPY0M1TAx3KhIkBtPJThHjpKZXwxJ7fmD/W09GOdlv3NDV32q+yrCFArw/P7bKkMVMAV2T4zqxiwxuXmLGt+6KJHskGmKQPUzCq5MaOVgS57IRvnnlb9sd6WfrSpOcy1dLpoZg4Rr6CG7svhikDXfbx18aqV92D9ZSeZkZ3MEV1yRH6qCFBLN2Zd7yakq36e/2jln+tp+QfsyanuxKIrfp1906cMUFOjc3XWVga65O5snmerHbCS0bnK9xA67q5s7tntUGtr5Rp3YtEVL2TL3NbaP9nbho/5fPbV6Oj4zmHVQd3dmQ8rAl3Qlw+0Ol61/h6sP5mWO3NgW86OwZx3jkNyqTJA7d2axTywgY77er7V+j86rE0f9s6MztbmjA75ar6tCFCE32X7rKwMdNDFeW9mt/7Ptu8s0/BMzA7mjY4ckN/u8SBQjGXyhyynDHTIw9kkT7TjD/e27SPPzP65y8zRdvfmIPEKCvJY9surykBHzMh72hOv2hmwkmnZM1PNHm31ZHbNk8oARbnKY0fpkE9kUrv+9LC2fvCncmkOzggzSJu8knfkZmWA4lznPl464Jh8tX1/fFibP/wjuSf7+T0hbdGXv895ygBFujDreewobXV6PtbOh1MPa/sAbs+r2dk80gafz/GKAMV+gTo7b8tbFII2uTb7tPdev86cWzouHzeXtNgP8iFFgKKNy5VZTRlog/uzZbtubu9swBqWX2Uv80kLnZe9M1MZoHBrZVKWUAZa7Kls3f7nHPR2ZCizcnCuNqO0zJV5t3gFDXBn9vXIBlpsevbpxGOkejs0nOeze24yq7TEDXlHXlAGaIRL8/523ohM48zO+/L7TvxDvR0b0tPZJbebWYbs7uyeZ5QBGuOU/IMi0CJ9+WR+1pl/algHh/VSzsw+Wdz8MgQPZsc8qgzQKNfm2eymDLTAv7Tjtc7dD1jJ8/l19s1iZphBeiTb5wFlgMa5KsOyvTIwRF/If3buHxvW4cE9m3NzQEaZZQbhybwt9ygDNNLFWSTbKAND8O38cyf/uWEdH+BTuSAHZiEzzYDD+S65RRmgsS7M0tlUGRik/+v0Ezm78xKbjfPbjDPbDMDUvD3XKwM0Wm9+koOVgUE4JYdldhMCVjIhE7OsGaefHs2uuU0ZoPGG5+fZTxkYoF/mPZ1/dmJvlwZ7W7bOfeacfnkg24tXQJKZOTA/UgYG5Gc5qBuPpu7t2oAnZ8fcbd6Zr7uyXf6oDECSZFben+8oA/12fA7JjG78w8O6OOhnc1p2zdJmn3m4PTvnEWUAXuP8jMrWykA/HJdPdOtNAMO6OvAX84vskBWsAObiD9k5jysD8AYX5JXsrAzMxzH5x+7948O6PPhXclq2yUpWAXNwaXbL08oAzMGkvJxdlIG56svn88VufoBhXS/B9Pw047O+tcAbnJb98qIyAHONWI/nHV37LTxVj1efzn939yMMq0AZZuVXWSDbWQ+8xpfziW786gOoketyb/bIcIXgDabnsJzY7Q9Rnez/vnw/I6wKkszMJ/N9ZQD6Yeuc6cHVvM5T2TeXdv9jVOnk6k75ZRa1Mhrv+RyY85QB6KfVcm7WUAb+7L7skTur8EGqdfV6Qs51w3vDPZI9c6MyAAMwNr/OtspAkqvyzjxRjY/SW6nC3JatvW+u0a7LZuIVMEDTsmt+qQzktOxYlXhVjZvcX+v5/CTLZSOrpJFOyX4eywAMwsyclmQHhWi0b+dD3Xlmez0CVjIzZ+Wp7FzBT0Y7vZpP5V+qtGsANXNJHs+uekdje8jH8p/demb7nFX1CSLb5NQsZ8U0xiM5IFcqAzBEm+Z0d/LqIdXQW9FiTcqGuciaaYjfZ1PxCmiB67JZfqcMDXNZNXtIdU+mvpSfZqTfhTTA8XlPnlMGoIW9YxtPeNdDuq3qS/CgnJBFrJ9iPZ8P5lRlAFrsPfmB3tGIHvKBnFbVD1f9jD8+J2drq6hI1+bg3KMMQBusmTOyjjIU7e7sl1ur+/Gq/3uLZ3JShmfryt4txuDMyn/lsExVCKAtpuWUrJoJClGsn2XvPFzlD1iXq9Rb5eSsYj0V48EcmsuUAWizA3J8FlOG4jyff8rxVf+Q9bkNcEyOyyFWVRFOy0c8UBToiJVzkp9LFebqHJI/Vv9j1ufC23M5NO/WlmvvuXzEPAIdMzk75p89xLgYM3NMtqtDvErtfsg6PidmRyustn6XD2ayMgAdtk1OynhlqL37ckh9nppYt1vH789O+YDzH7X0VN6XXcQroAsmZcOcrAw19+NsWKeHUtfzUWxL52s51FqrlXPy0TyiDEAX7ZHv5S3KUEtT8smcoQyd2lEeSJ+tFtsjeZcFC1TAmBybWY7KNdtm5/sZY/F20iI5OjMtvRrsGKMtVqAyts5tjs012u7ODvVcaMNqvJPMyIX5XTbL0o4XlXVj9s3/5lWFACrjoZyY2dmq1v2vKabnS/m73KsQ3dGbw/KYjF/BbWoOdwADKmr1XOw4XfFtkpcddd9i+UamW4wV2qbnq66YAxX/ev6hPO54XdFtSt7vFXnV+TZyqiVZkW1i1rYggRpYJEflZUftyn1FP9ZX9Kp5W26yNLu83ZHdLUSgRlbz9bxS29nePFxNw/PRPGyBdml7MB921xVQQzvlZsfwCmw31vUXg02xYA7PFAu1w9uj+YeMtPiAmhqWj+YJx/Iubo/7il4PI/NhIatj25M5IgtZdEDNjcoRecoxvQvbczk6i1qA9bFIDvcLkQ48jOEoNyMCxRidI/K0Y3sHt+dzdBaz8OpnTI70faRt27T8u6e0A8UZm6/kecf4joSrL2cJC67OJ30/nDst5BZv9+XwLGJxAYUal6PzomN9G7cXc2yWsdDqb1gOyFUWdIu2K7O/WxGB4i2br+YZx/w2bE/nGK+5K8sm+YnXQw9pm5Wzs7OFBDTGqByeyY7+LdzuzxHuuSrTajnOtfVBXis/LqtZQEDjDM97cq0u0ILtmhyY4RZUyRbKAZloqQ9guy4fdjs70Gjb5lTXQIZw/WNi9rKImmK9HOsXhv34peCxWc9iAUiyZr6VaTrDgB/n862safE0zcgckImZbQeY63mrhS0SAH1jUNvsXN7cPtJjX0myWg7NAVlbIf7q9pyWk3KvQgDM0ar5QN6bZRVirh7Nj3Ji7lMIkvXypdzV+O8bd+aLWddiAJiv4Xlnzs4MZ6resM3IWdnLzezOYL3RhByQ9zTyavEDOTOn5XJLAGAAlsieOSBvzwilyOxcmdPy8zyuFALW3Gyc/bJ7NmxEffpyQ87P6bnBtAMM0tLZN+/OW9Pb0PHPymU5NWfkCUtBwOqPJbNDds5exV5ln5aLcmHOzSOmGqAFxmaPHJDdGnV57E9nrU7NFNMvYA3UsGyW3bJbNi3m9TCzcm3Oz/m5NrNNL0CLLZ23Z7fsmrGFj3NqJub8/NYFQQFr6N9Mtss22TqbZGRNRzA91+WKTMrlmWY6Adr85XzT7Jbdsllx726dlWtzXs7Pdb6kC1itNTKbZutsk62zZE0+8RO5MpNyRa7LdNMH0OEv57tkt+yQlQoYy+RckvMzMU+ZVgGrvdbMltkg62X9LFXJWHVzbslNuTJ3myqALls+22TrbJ2NaneH1sxcnytyRSblUdMoYHXaUlk/62XdrJ8JWaiLn+Ol3J6bc2tuzi1+ywFQQYtks2ybrbJVFq/4J306V+aKXJ5r85JpE7C6b1jGZ5Ws/Net3b9AnJLJmZzJuT+Tc3/uzyxTAFALK2fdrJf1s27WrMxTtGbkrtySm3NLbs0DpkjAqrIFs3LG5y1ZKmP/ui2ZRQfxl57J1Ez76/ZEHszkTM4rSgxQcwtk7ayb9TIhq2R8x6+DvJTJuS+35ZbckjvzqukQsOpseMZmbBZKTxZLMjILJxmTYRmWZFZm5bkkL2V6kmfSl5czLdMyU9kAGmDp11wFWTkrZ8EW//1X/nzl4y/XP9xQImABQOMskrEZl3GvuQ4yNiMzOsnCGZlksfRkREYleSEz0pdnkkzPS0mez/TXXPmYlqmZmml5UUkBAAAAAAAAAAAAAAAAAAAAAAAAAAAAAAAAAAAAAAAAAAAAAAAAAAAAAAAAAAAAAAAAAAAAAAAAAAAAAAAAAAAAAAAAAAAAAAAAAAAAAAAAAAAAAAAAAAAAAAAAAAAAAAAAAAAAAAAAAAAAAAAAAAAAAAAAAAAAAAAAAAAAAAAAAAAAAAAAAAAAAAAAAAAAAAAAAAAAAAAAAAAAAAAAAAAAAAAAAAAAAAAAAAAAAAAAAAAAAAAAAAAAAAAAAAAAAAAAAAAAAAAAAAAAAAAAAAAAAAAAAAAAAAAAAAAAAAAAAAAAAAAAAAAAgOT/AyNdHNMNiE1WAAAAJXRFWHRkYXRlOmNyZWF0ZQAyMDE5LTA4LTI3VDAxOjQ5OjE1KzAwOjAw+77GzAAAACV0RVh0ZGF0ZTptb2RpZnkAMjAxOS0wOC0yN1QwMTo0OToxNSswMDowMIrjfnAAAAAASUVORK5CYII=;" vertex="1" parent="1">
          <mxGeometry x="250" y="510" width="40" height="53.33" as="geometry" />
        </mxCell>
        <mxCell id="i60HTQ7OFVrk5xtHkpp4-18" style="edgeStyle=orthogonalEdgeStyle;rounded=0;orthogonalLoop=1;jettySize=auto;html=1;endArrow=classic;endFill=1;startArrow=classic;startFill=1;" edge="1" parent="1" source="i60HTQ7OFVrk5xtHkpp4-6" target="i60HTQ7OFVrk5xtHkpp4-7">
          <mxGeometry relative="1" as="geometry">
            <Array as="points">
              <mxPoint x="550" y="420" />
            </Array>
          </mxGeometry>
        </mxCell>
        <mxCell id="i60HTQ7OFVrk5xtHkpp4-6" value="Atlantis" style="shape=image;verticalLabelPosition=bottom;labelBackgroundColor=default;verticalAlign=top;aspect=fixed;imageAspect=0;image=data:image/png,iVBORw0KGgoAAAANSUhEUgAAAPAAAADwCAYAAAA+VemSAAA5ZUlEQVR42u19B3iU15X22HGcTdYpzq7zxymbTeLdZ5PsJvusYztOAIkqehe9GgOmCtFVR71MUaMjaVRAAkQH00QRIDoYEJqZ75sZid5MMWA60uj97/lmBALUNX3ueZ73EZIGzTf3nveecs89Vybj4jIiB96Ua/G2/NSdn8Sfefy7JBF/VYgVnZUixij05milYM5i+FJlqCpWilUnGUS1iPMqEdfZ19vsd/dUYtUDlQGP1QY8YzAzVDI8Ya95yH73LXvdHZVovsn+fUUlmMvY1zMMR9nvd7H3WaXUm1OV+srpaiP6KfTwidXjvxnelxfhHenZ2DPymeLCBXgjzYTvMVK8E38G7yq0D36u0D/7P4WIYUoT4hgJV1mJdZ0RsIoBDkaVSsDX7BmO0bMoDIinZ1OY2DOyZ42/gHfp2ekz0GfhE8rFo8W/AN9JPHDzh7Fn8f+iS/H7BANaKYTKKYwgS5klLGbW84bVWsLFUUnPyqz/AXp2+gz0WaJN+D19tsQD+CF9Vj7jXNxelNfxz+pS/Jop+F8S9BXdmBscqhTNa5hFMzHlr3ADsjYK9FkYqcvos9FnpM9Kn5k+O40B1wQu7hHDFuGtOBPeSxDwP/FCRadEEYHMuuYrhapyJ7nBzkIVfWalzryCxkDBxoLGRF6Cn9EYcU3h4lKJpzjT/fcStc8+VugwjMWNKqWIPczFvKWyJJHg5TDTWNCY0NjQGCUa8DEtdDwhxsVZGag35pTjx0lMERlJRzIkURyrEvGNl1napifG2BhRFp3GjI3fSKUOn9BY8kQYF4eIwoTfJwoYrDRUqVX6qiIpU8stbdPjZjZm1iw3jWESjWm8Fh/Q4si1jItt3eQTV34QL8BXaUAIs7QbmNKVMUtSwYloqyQYKtjYltPY0hgr2VjLr1z5Adc8Li0jbgl+xty8QUzBNAzHlELVPU44+4LGmMZaGnNmlWkOuCZyaZKoTj7+jUJXOUElVG1gIGv7jMe2Do+Vn0meDpsDaS70j3/DNZNLvRKvffKB0mAOUovYy2K0K5y4LkJkNhc0J8y9DrLEyVy41JCY0w9/qdSb5yhF83FrJrmSk8f1KsCkDLaI42ye5tCccc31ckk+h5+o9eZJdDCAuWv3OXHdIXtdZaa5ojmjuYs/c/ddrsnelpzS4m2lrnKAWqw6zdyzp2q+DeSWBSLS3LE5VJRWDqQ55Zrt4UJF9rGlT/+sFMyFnACelr02F8aKT//MD1J4oNCRt3gB/64QkcLcr6dc4T11P7nqqVJEKs21dMyRi3tLAVuNFVr8nE3qRJXBfJ5nlL0kc83mWmEwT4o98fD9Am6R3VPmFt99N16saKcyVK1Xi3jEFdvLwOacudUbYnUV7efyRJd7JagSjfhDomAOUYrmMm+oU07mhK273lqsKmNEDiGdmMLdapcn708Thcq+bMI2W7eFPFIxUxgWlwFZZ4Fl54D8C0Au+6ph3y8ycULXEhvfZ2HUZkbivvJL+ClnigtmlxVl+A8qhGcTpvfUbaEkK3FXMcJuuwrs/xo4eBM4dMvydR/7fusVYOV5YKGJE/e1bSfBLChEhMYJ+E9/8NjYJSTpEr6fqEdHtsLmsXj3lqcqIJGXLOxWRtziGxbS1gX6/ZeMyBnlnLi1FILcUgjmfOoSIj8BfuLJ2S6zQo8ApVB11FqQ4fIKlGoEFjDruIRZ0sXs6zyjhZy1vXaB0fKa+SYLeXder5+4r6KQvX5pueX/k2tN781JLMXGT0lnmDUOCBLwL5xJTpD4U4//XaE3z2fxzWV3sJ4ZjIAFlyyWkazojmvAdvZ1C/t+Hft59tkXBFvIyL36ouV39Bp6/c5rTSNvNeh9tly1uNyb2d9bxf7ugjJOYmtsfJm51fNJlzijHCjUf0otYIvUqNzFlWQRI8vGy8AuZg3336ydZAfYz3ez32+yEqzaTT54s3mkrQv09/bfsBA5nbvX1ST+lnQp7vSzTzizHCAqY+VQpWgutd484NLKkXPOYgEbillrEnnfDctXWxK3tvfZcNniWnMSS3hGOqUQK4dxhtkr3i3A20ojolSGqivuUFGVdc5idQ/amYzNRdHXlgWGk7dGK1zRfJV0jB+MsLFQ10KlYF5K9/q4Gnlpz5WyvWsuWmLNTdaYds/Xrkveaiu88gIn7qsklu6OEszpUqdMLi2XGAN+yQZ1rcpSDulS5KVsMsW31fHqq7AH8SiGXc/eM/Nsy7GAu9B1dQEhXVsnL3n0K87A5grwBnXzV4nmXa7YAZLiR7K4zrCeZN1zz3Oy2btTJvu6i3SQ96xuarxbhLcS9GhjbQDuclVVVMpYcMG5LvD2a5aqLE42+9ZS0yVuCn2Fjxz8SphGCRWcU5UMWwEPuGpJJLmeRdedS2BypVfwGNYxJZhMFxUCOvHDEA1Z3hP4gVKo6KEUzIdcOdOcWe4aiSjaCuLVVY6Ki82HlAJ68PLLOkRZgn9WCJX92Gp3xJXJm2TNOlP862xQFjmNE9iRNy4eZZa4H+kqZ+wrlpcGhsUcJ7iicLh4cusr0lVuia1CvYsSmNusMkqWlysJh+s30BOrjlKo5/V9tyizl2hER7aqHeT9qjjcy502H6LElvdmp4E3VLRVZMk2c/JyuGPBxwHSYa/cJ0448/R/aJ+XN1XncO/m8lXF1Gvcq8ibZMAvpQorTl6XBx2HpEMPdMyR9p1pC21+PU0IvLJxnsG8K9Fbyi4TTtDBBKzjF2S7Lqj7B52kMt0Hrj0GbjwBbj9lYF+/Zt9ffgicuQNsutz0emrat6Y6bFoQ6P9TowFqckCHQdy1BZCky0ynSbc9/0igULVUxfs0u6y1PXwTuMVI+rACqKxCrVLFfl5hBh48s5CZGhDUtx9NpKUOI8dvA5fY6++wxeBb9n/vMzyosIC+p59fe8Red8vSuM/NSPxIJSDdo48iJormKJWDjwQuLbMUPNAxP+pEseI870ZRG9Yya3iVkedppYWgjRUze+1j9n+0dy1j/epRy/WXgHMPgEeMpM/MltfXJ/TezyotC8g55gGsveRGmWlD1V2FaI72TPIaMVS6qNkB5KWGcXRi5ypb7Z9UWqwFWZNKq+UgJSVl3XPd0jTO28hK8Wuq9VAGfU8W9JunFnI1hbzPSWcl8pVHlrGvbshHLnhlI0hbF5Hp/xHxS755fXFw3aYAVVc9rrNHohYfqyxtcOxKXurwuOOqJVZrjCLSa0hxqe2NJ5ckJlkXteKvLSQjS0hCixm5sU/NsJnQwkhW994z2/1NIjK56ivPuwuJzVqP6bGl0uM3SqkBnX2TVuQWf3XbYl2bKqTAtMpTEoXitTQrUjyA1LSokafxwIaEcpbQ4kCxdJIbJLVUgnkr6b57bxdp8VMW2M9T27l7JBGPsqLNcdWqhaxR+X1LJ42TbCE49Y2lwRwlUxbVcN+I2HQOl/otE+jfaS66rUJuLI2Lpwh5TBQX5523jHeyNRRwycWW6TzT/fnEAbckb+AhfF+hNweoxKpL9j6bS5nTCrN9lIb+rvAtUMBW/uVMcQ4wUpex76/T9spjy7+LrWdz57uQEpFSn/wGHie0SAv3LH3Hqtv1UoO+bdcsc0RbYAuMLmOJL1PzePmJK+518IHunbFcd1J11N4N5TZcsiQ67C2UDHtQUbdloLh779cWb2Ch9cYFZyoPJabstag5WygxRpnqVz0uSlLSNtShmxYr7Qp5DeIA1fu71V1M0kVj0l1F9u3dTO6r6VvXUSxaSHR3gWPURP2GpUhhmRNat5IncOVh8zLKnmKlyTsqvOb8S96IAyoj8ulCNbcgb9zRb/9FIZpD7X3RGMVA5DI9q3RtS3HhgeXGQEcqDWWBH1fCq4UWLyoOodZDzu6+yVzp29ZbEV37HqYpW/E9up9XbajSO+KSMHKV3EFoq2btRccpzJFbL7aKvJ3Ed59aLLEL3JmsVwno69J9teK0T/+oEqs2OeKQArV1PXvfvbZAHBWTld59UcDSXFR6yAJA7jSVb+afd7orbVYK2KxiHHFJ8safwbtKwRziqAvHyC269cR9FIlIsdxBSkQZ8c2XLYcEmgs6vOApQosZ7VQ4fauJcYPCy/gLeNe1DikUFb2l1Fa0Y+Qtc2SBAhVuaO+5B87ctWRG3aH4g5KDnlD4UdOVpu2+rLMucRtiWaKuoj31PncZAsfqH77PAvX17AErHVkeSIq2pNw9QM+a6ibVW7S/WulhGeybTyxX0rjA+FYq9eYNyXq87zJN6ZRi5UTm4z/kp3o8A5S5NXsYgSkjTcUeLtIEgHHFPIlZ4X9yOoGTBfw7e6DzXPE9B3S4njL8h295DmhRcqUQRilWXVCWPP6tk2NfvKUymlN4UzrPPMHkaXDBU0upTo2FY0vxZxaUP+UKz8HRrITW04RS/MUp5B13At9V6syFfCI4OFrgSgvmQuKSwwmsFCsH8Ang4Gg5FPrKgQ4l79ziu++qRJTwwefgsEmtdEk845TDCKzWmyepRfueNOLg8CI8UwqVkx1C3pjTD3+pFqtOqo28KTsHh82uaRFwKolxy/6xrx5zVIaq+3zQOThsmpF+wLzaOfY9qF+K3ytFHGfWt9JTBi7Z2rEx56xloz//guXQgabctVrkNAnHbyB560nMX1UsIWX9YSQVX4BK94STxYWvaFEKOBGvxQf2s76COYi90TeeUqhAvYZXX7J0zii6bqnWKb5paWZHvZaoETyROtVNiKw68wApW0uwcPFqLI1OhSYoHlkM6eFKLEnOwbz8XVAfYEQWKjlpXBEi7igEc7B97jTS4t+Y9d3ryAML9iRv9jlg+1VLQ7pDt+oG9bmi4n6yxikGFz6QcPgK5uduQ3rcQmQHJyInKOElZDNkhimxOCUbqWuLoT55hxPG9VDJYuF9CeX4N9tnnsXKCSz2veoJA0WdC3dft7SQrY+81TjAXrf9mqVRHIHO2tIB8XkuYJlVQgWSdwpYPC8fmjC1RNScekC/z4hMxoKMdVAXn2Oxl5kTx6ViYfM1OhxkW9e5BD9TCVUbWKDt9jcKEunIPW4McWsDkZ5ay5JlJiI7854llfYRkjcfxxLFUmSFKOol7sskjocmVIEl6kwWK5+CqvSxW89pdW/oxtY7p1hfn+yayawKpVi1kThnu9sVBAxmBC7zhEML1Nm/sZa3ISKT+73l6suN3x2GkodIW12M9KjUBq1ufdY4PTIFqav3sb93363mkfIXdGqKPCNakHd/bflKV5ZSeJRUSwcX6lRCDQZrvn6LNc/hQmSuokP/xDnbnDi6gh+oRGjUBs8o3Nh3o+XkrQkiMSlSiiM/x+lvMS9vF7OiSmTPZdZ0dizSZ0VhyYwILJ4utyDQAvpZ5uyYBqyxEmlZ69wiLk6zXlVKzdxp7Cm8OfjKfOz72rKwUhMFmhdq7bvLmqSUXn/z5fCo2Jq0zHSdWyufKUVkEfdskHmGLyPwMU+wvrRq28L6vmqJyQo4zJU+fQ+pORuRzkhJBJ0fEIK0qUENYmFgGDRzYuskMVnjhak5UB+/RW6cS84fWdGNlywhTH3zWB3m7LHuJBTfaHje6fdEcLp+lrYUifS0veikY4h01PB4oraibcvdZ+rxLFbd8wTrSxNDK66tQQmxnHN2j42gZORNZJYytRGErQ1E9sxZMZLVrssiL4lfCNWhi3RKxrXiXGZ511yyjLctF+CGSE03V2aUOyUWvqfUm8MYBd9ofqdJ7ZMPVIJ5g6dk+GgriDLQtgZN8DyTncl76i4S01c2m7zVWDAtVHK56yVxpBqqPSLU+gqX2jmgxKGjyPvqVuLy8463xipD1YakshYUdiQKlYOZC13O0/tOPjPKYtPExXktIu5L7vS0MGTNias3wZURkoDkLaegLn3kEjsHdNuEM8hbjcJrTtlxKGf8G9K8wo1y/FhtqFKzP1LBSeRE8n51G4mLltmMvIR5U4Ol5FZDJNYEJyBldRHUJ+86vc3tzmvOJTC505Q8c3BVXoVSRLL8FH7S9OSVDp8w162Ik8iJB72P30ACI2+qDcn7nMQBwVg6I7JeV7p6vzg1ZxPUx244LblFlo/cWHvkL5oCSog5/LI0sWqv0ohPmrZ1BLypMmAkw9ecSE4i77HrzPIuRwojWpodCFyd1EqfGYWsufVb4qxQJRYsLkDSgctOqaMm0lACa62Tkeec6ruvFUaMIk42/o4jE95TCEhyxB1HHLWQ9+g1KBbnIyUw1C7WtzYS12eJJRKHKLA4bTmSd4lQafmpJsduKTE3uuR+4yuzEg34WCVUFfPBcyBphWeI0n0N+cFTktucPCPc7uStSWJypykmro/IWcGJWKJMR8rm425XueXeRw2riimkbXSvZ4WIYSoRd/jg2TlBJVYiRvcN5p7RYfKpnZhUtAxh8xVQzwhxGHlrJrYWBYZLVVv1x8UJSI9dgLQVu6A+fpN9jio+l/bvmXVHYcKwRvWQVpbhZwoDVGrerN0u+7mJwlNEaK9g1pmTmHhyO0afyMOQYwswbGcsZqWFQDUjyOHkfWmfOCC0QZeakluZEUlYuHQt1HvLoNI95fNr7/poxkniZsPbRwL+h/nce/ig2QaJwmNE6K5gTkkJppzcjc+Pr8TwY+kYdDQF/Y7Eoe+RaAzeFYlZ80KdTt6a1pjKNBtMbrG4eKliKVLofHHJAz7f9vTW9FVFjJd/brh0Uo+OzFLc4oPWPJc4Vn8HIWeMCDx9AOO+Wo8RxzUYemwRBh5JQf8jiRJha2LQ7kjMXMDIO9M1yPuSNQ4MrbN++iVrHJmCBUvXQHX4ClQCP19sJ+/tlkJAp/rjXy3eSdRXBvLsc2Pd4ceQay9jZslXzB3eipHHs5k7PB8DjybD/6iCWdjY1whbEwP3RGL6ItexvHXWT9dzmuklaxy/EEmFOqh5kwD79MzSV04njtbddaMMv1aJ5nw+YLUjVn8Pc89oMeXUbha7LmNucCojqlKyrNXucGMxcG8kApeEQh3oGPLSeyQHBEExKwhKZu2TpzX9EERjzhdrwtVQrd/D9cU+yax8am1VN4EN+ItSqOK1zzUQx0g7/fQhyRW2WNQYK6KbDf99UQhID5NIZG/ypjDSzkoNxagNcva+keh3MErCwKJIjF4nx+y0EChmN/wcRGI6BNGYbh/USE+9upDrj61DNMZNhRH/Wyt5/QvwHaW+ohvPPkPaGkkUnmDa6WJmYVUtIutLOByN/sVRGJ8vx8x5oRizRo6h2yLw2Xo55jCSKZl1TJlqG1LT30gIDsKQ7ZENewOMzDOYK0+Wub73b8xJphd7xglQbt7He27ZOBut1ld0J66+Xrwh4ocKvTmUDxIlo54h4NReDDiitB15rQTuy6zfgKLIWn83apMckdHBktVsKXnjQhl5CyOa9Hwj2ftHxAQjaXrdJK5uDFBNYimJFRKPjLAEpIcnYGkEgzyBfR+P9Ag1FIUneRtb27rRofIjt3/0etN2LX6uFM1rOHkrMftMCQYfm2db8jYSZI0TgoNbSN5gDN/KyHs4qunuPfMQpi0NQ2IQI3Id8Tm17MkMisMSRta0hASEZysweZsKY/apMPREEj7br0bAZiXkWYlImjcf8YfLuSW2WRdS81ri6msEji7F71UGmLw9sxyuvSjFu84gL6HfgShER4Y0L95liA0LwqiNcvQ9FNWi5xjxZYS0vRUjD0binCCoKPnFkDg3CPHyUEQsiMHUL1UYXJKCfqY09CurBaZUDGK/n3woD9HiLZvOk4J5SQniI8SLDyXQ967aCsjGMClM+P3L20dyvBmnq2jNzLNXn/2NE+7hi5Ob0e9IvNMITC52dFRIs5JV0ZHBGLNOLiWpbOPyR2Hg7giMXxGOqVnhmJwdjnGrwjFkRwT6HYtDXyFJImmt5K0Bf9NCfCHuQJx4v0WeUbz4AJHidYSK5zBLLMVU8SAmi3sZ9rPvzyCE/ZwWCnqtB7vQFQoDWhNnnxM4zYTvKYTKKd5dMfUEM04flSqknEbeZhKYXN2w+GDJ8tqMvI3B6UT0NaQ0SGDCIFM6polHkSg+abKljRRvYK5BwCTDXowwrIC/ceHrVp993984H2PEjZgj6thicc+Ds9GVU4mzryaw0r037jUjtPSsU13nalCWurEuNMWnCubezkoLxTCKeQ9FOfZ5j8Wgr1bVKCtMBBtqyGXkEhkpKxoukmFEDxcvMtIfw2eG9RhgXFK3q/7K+/gbFmKiuAdRjPieGQcjnTj7onndBbxLR5a8lcAx+tsY/9XGJhdjEHofjkTXg6HociAEvQ5H2oTAUVENn0aiPWRymSdnh0nlmFKG2xmLzsmERlthItcow2pGzEt1xqv0czrsEVCyHyOEPPQzzqs1tu5nTJHeV4Ix5eVFhP3bn1njceIWyeX2PIODA8TZlzLQKqHqhjeSN0F4hMCSQxjQxP3ePiw+7H4wDO32z8Tfi6bi06Ip7N+z0I2RuXdLiMz+LpVX0lZOnfu7QUFSgomKM/oXRzrXazjKrLCukVaYob9pAcYZtr2W1CLiRumuI+B0MUYdz0X/o2xhOBmPvqVK9NWrpffoq2X/PqOwuO4nrb+vRin7uSH5tdh7nEjvddvTkq03YvUP33/ePkehf/Z/aoPn3PnblMRISKkRQ44ubLLV9SsOwj+KAvDRnon4654JEujfRGbffTPQ+UBws4k8pDASs+a/OOBASGIWNyoqGDMWhuLzNXKpjtppVvdVnGqCFWYYYFosJaAoKcU8P0bcm1LRjETcVw980AJxPNYCctmP1rWQMHzFPCgx+SWLP8C4WHKnYz0pJjbSLYbPPpQIPGWr6XuJ+srh3rhlFM0U57MTeY23ukeimJscgfbM0n6yZ/Jz4taGv7Hft98/u3kkPmw5pfTZOjkmLAvHpNxwjF0tl/Z2pSIQR8e6jYmFG5mRrsZgYyYC9IclizuaEXfAERtVvJ2g7PjLJB7I4uephoPSdpPn6G/lcKlPlvzUnZ+oTYjzRtd58smdTYp7yW1uy1zmmla3PnzMXkeWuM/hqGa7030PREl7w30PuxhpXwW5uk0gsGQdxcXw/yq5xbXlr5OYWWsx6aX3GmRMR6B4oklZcBdPvCYUAN+RxZ95/DsWFBd4m+scdEYH/yOKJikGuc0fNYK4NfF35mb3cXXy2SSZFW9JJjWWwAxEeCm+PRZr++chd9rwsiUebNRgtqhl81/h/jpsQMG4E/iuLEnEX1Wi+ag3uc4xulsYfGx+kxSi5yF5oy3vq6AMtccTmGJQMblJBH5OYq3KEuvaIUPer+aiwkg8xJCDYNH9SztVhqpjci3elinEis4qA657TfdHtvqOObGiycrQet+0ZpGX0HpvoOcTmEBEbIobXZPElGU+ap9ik5e3mNIw3LAccvGqlEBz4wP+X0vFHMx9HuMRRwhpX7GBWlhademUUVO3iyiObS55q9HzUITnE5iSWcxtbQ6JJSILSba3xPRMtMX0yjONMqxCtHjTneunq+Taez+VKfTmaLcnrvYp1CfvQX3iDtSn7kN95hHUuoqXCE3kpfatTVWAXox4n+6Z0mICU/LLK2Lh0wlNjoVfIjEtALaOiWkLSqd+jcSfi5sRI95xWxKrBHwoUwrmLLcmLxF35T6kBCcgNTAUKWEqJKetgHrDCagPXYP69AOo9BWQay82eauCCNdu/+xmx741QX+jB4ujvcKVLmEWz5jafBJTlRUVbNjSGn8V//pWF3OnJ4q7ES/ed0sSKwT0IwJ/6bbkZdY2KWcHUqfVXjucEpKIpMXroNhWgnG7lkitbJqyh9r9YDg+KZrcYvJWw2ffjJZVabkViRMtWeBmutP0/ySXmopEjtmIyKfiLYm2V0hMRSWJ4mN3PNQwWea2NdB0+fT6Y0idIW+w6J/qhqnTxLSloRi3So7P1kVg9IYIjNwcgeFbIjB0eySG7IyUiif890ZK+669D0VKhLOF9a1phf1asi/sbqCiCkpsGVrgUhspS622bFPZwiJL3sErz2NMQ6B4HArR3RrUm+UypVh10i2tb/EVpISrm9WxgsoS6XB6fEgwoiKCER4XgmBVqNSXavriMEzOCUf/LUH4dLftrG81Pi2aiq4HQryHxEetxw5pv9eQ0rgTRXW51VQsciKu5UmtWrLldBRxpljiVnvEKgPSiMCi2xFY+xTJC1fbrZNj4sw56J87FR/vnGBzAluKO6aic3GwZOW9gsTViSQiMm0XNde1ltxqtSVR1hJrTIuA/vWk1gDDUswRBbfZI6Y2szK1iPNuR+BtOqROl9unDSvDFPUM+Hw5yS7kfWGJLaeXqMiDikS8xiKTBaS4lk4WiUnNIrKUqS5pYZLrZO3xMBV6BIlGt9gjVolVO2SMxe5VxHHqPlKiF9jN+kaGzkbPFVPx0a4JdiVwdUxMRG69d5p0gokI3WH/HHQsnotOB+ayeDlI2oPuejAE3Q6GSUT3mCQYkY/KHSnbTMmqJhL5uUvdkgQXJdpejYdN8zDckI8QsdwdLPAJssC33YrAy3bZrRm6avpcjF40DZ9un2h38tZOaAupP94zCZ8UTcLfiiYzTJFI/ve9U9GKEb3NvkDplJPUQMATikOOWl1acq/FphWBSCSmeLa5+8b03qW1VI8xEo80FCBUPO/qBBZpG+me25B33wWkBMXbzfrOjp2JDusn46+7JziFwE213G32BsKvONhzrDLFycy1bpJbXX0g4nhs81164fV4uL9pPkYb1iFcvOzK9dDnmAtd9cAtyFv6GMmqLGZ9g+1C3oiw2eiTF4CPd7k2eV8/sjhJ2u7qcSjco7LWTSYxueHNJTG58rVUj1H3kM8Nm1y2LY9SrLoqUxnw2B22jZJyCpEyQ24X9zkmZA4G5E7DJ4XuRd6aFpkOTHRnJKamA55SCNJ0Eic3PyY+nVDrmeX+RmoBtNUl2/IwF/o2XWj2zOUJvOkUUoLj7UPe4NnotzzAbltGjsQ/WIzsUeWapQr4i6kYsz8JocsUSFImYF5MAlISEpAwLwEhyxWYtkGJsUUq9NczC2q0WuLmnmoi972s9na1XxgKESvedTECmx8QgV37LuBCESlhapuTlxqhh0bORue1U/DXXe5P3ueHJvbNtEl3TKeCLoE7EI3A/GgkK+KRGWy58TD7FWRZL1HTMND9TIvD4xnB45ASH4uUmBjMi4jBwvBYLA6LxQJ5DBSKGMzKicbQ3fW8d21nmk2Waq0vxJ2u1VtLxDOZyzazE8xI2iEiVZ5s433euVAHzsEXadPxt8KJHkPcmvArnisViThlb/mwpf1Pv0NRz68ylf59yFqHXo3DNWD9Wb+D0Ri1LRrBGTFYEhrX4A2IzcXi8DgErKB7oKJfbwxIGe26Sj8ZkastsSscflBZCfzE5cokdRVI2i4gJSrNphdcqwPnIjx8FnquCvBI4lbjkz2TpJa3DiPwYUvfLjosQnXlX+SFY9a8EKn+PCI6GOGxIQhVhEilqnRx2sTccKmzJtWkU236lBw5whZEYUF4DLLmxjV4fSn9vhr0+mo05trTatDlbDOZNR6wrxYSU6FJXfE3kVgsdIljiJILzVj80KXIS2d5N59GSmSqjYg7V9rfjQyZjWGZgfho9wSPJm/NLiB2L9VkVtN/PyPtjghMXB6O8PiQFl1avnBaGJZMj0DmbEbkOXEvEfU5YdnP6ffpM6OwKDAc8wKCJdC1pxmzoptEZHLLA/Ms7vpLJD4aXWsTgJdJvENKbDmTxFISiz3At67iMqu/uoukFXulY4C2cJWppjksbBZGLw5E622TXH5/19boxFxpe1hhcoupLzXdxRS4JAzxIUEtvtO4tnuIl8yIkEhJIMLS9/TzefVsJRKp6fU17zBuyJ3+fFNtrrSlYX19JB4nbpXubVI6qXZa2kZigfAd5x8NrIT64DUkZ2xG6szIFian5iJuzmzMiZ6J4Uumoc2XNiYu+1uUsW6zZRI6bZyCrusC0H1NAHowdFk/Fe03Tcan2ye4xGJBbW2pBNNWbjLdAkHWlm4onJMSKl07aq+quBYvAMyap8+KkojcEIlViTEYVFRHYYleXe92Fl0VE2a45JQbEa2FHOabzo13n0G9y4TklDykTgut3Q2eMhfJk2YjaeIsCSmT5yCN/ezV+Jbc5MDEGRiUFYDWWybanEStt05Cz9XTMDJ7JqbPD0Z0YjjU0WzBiYxCamQ0EuIiEJYUhnEZc9CrYBpabZvodCL/Y2+AtD/c7Nj2YCSGFEZI15ZO1YRJbrJqhmuS9lWQpSaXnNzuemNq5krP1cTU3uyhtk4er2CIMVs6xeTopgBSKSVzoa84jbwn7iBp9WGkxC6qlbSqCdMR+9kkyIeOQeigkQgaMFxC2OBRiBw+FnFjpyB25kzMjpmJsfNYzJc3Fa222j6z/I+tE9Arfwompc1EnDwES2ZFPnfTcoJed9M07GfqmEgELAxC97UBztum2v0F/rZxLDqvmAD/vEBpYRu0dAoGL5iEwfMnWb4umoxBS6ZgkCYAA5dPx4CCWRiwdg6GrgnC53khmJIeghBlsHQfU8pU9yDuayRmrndD7vTSsDiMWx9VfyeP+q6LMSxFoHgMceK3jj3MoBLMZQ4nLzWcKzQgecFqpMyOft0NZhY2jhF3rv9QTO3WC1907IzxHfxewoROXRDQsy8mjhuGHgs/x8d2qKKiyqyeeVMwITkQ0cGzXihFQDDmB4RI8Ra5aXWt8JQkiWFW2j8/0HGWeOcX+PuaMWi/aDi6xgxC3xn9MHhMb4wa3gdjBvbC5326Y2y3LhjbhaFbV3zeoxs+790dYwb0wmfD+2L0GH+MHj8Q48cNQeDwYQgaNFxaPMOHfIaIYZ8jeuR4xI2ZDMW4acwrmiUttK5O4gXMs6PEV0OudFJ8DIYV1nFyynrYol89MXH1taZUP+2IM8XW44RVZxxHXHKXy5Ck2VLnFhEpRdSIcZjWo3etxK2JcQxjOnfGoM97oVPyUHzy5VibEaHN5okYvWAa5CGzpLi6zhWekXnxdLmkIHWt8knRURiQP93m1vWj7ePxt/Wfo3XeaLRbOgKdkoagZ9gADJjQGyMGMGL6+dU7fk0BzcVEv66Y3KUHArr3wfRe/pjTbzDChoxGzOiJUE+Y4dJkpjlqyJXOCopDTFoMhhfWUaNNZ4hraQTwatUWxcXU3cPe1lg60M8IbOdbGaj5HPsgOwQkpW9CcvQ8pNQR6yZPno2okeMkq9sU5RrX0Q8j+3VF7zn90Xr5KMkKtYQc7ddPxCR1IBQz5kjbUI1d5cmtrovE6pgoKdnV4rrnHePRetkodIkbjH7T+mLg+N4YMqoHhg3ujlF9u0qkHdfBdsRtCBM6dcXUrr0ws/cAZqVHI3HsNJckcvX8NBQLa4LjEMtIPHprPSemSqwtgl69l/ilu5gyMN6wDXNFEfHCQzslsailjvBsr82TUtSfef8lqLeWIil7O5KVWUgJT0Lq9LDnWUupL9XMIMSz2ComPBgRYXMQPH4cpnTr3SxFkqxx186SMnePGAif7FH42wZmkQvHS9aqsRnmzqsnITB+OlSBc5qcYZVctVm1W+JsyZ2Wo93mZvbZ2vUFW5xGo9fc/hg6rAdG92QucEfHEbUxmOjXTbLOQf7DpBBIPWGmS5GZQp6GstI0T5mMxOrEWMzKjsaIHXUdQ4y1nGOmog/qDkJbTnQskWqx6XZE5m73F1MxWNRgjLABgcIxhAkXECvctWHG2iyXKYQbe1PLbsMmMDEYbyJVuIZU7WWknj6LtCM6pBWfRNr+r15CavFXSD54EkmHTkJ95CRUR76CYu8RJOzY3yLEM8TsK0bE8UMIKzmCUO1RhOqONQohuzchShHHFpe5Ldq+0EjxVnwtihGPhIWpCD11oNHP9Bzsc8hPHEZsUXGLx8jeUBQWI6noKFL3nXht3p2Lk1hw4DQWHixpEAsOnkbysdOIP3Ma0WIDMJQg2shgOvMcMRJKrdAi3mSC0nQJSabrSDHdsgnf4ktvymVx2mtb5pVfh7cj7RhbaOZnIS0w1Dbx1ty4WlZ3FmdFJGPx+l3gY87RUoSduDSXEfh6iteT97QJaRn5NiFvNeqKh4nEmYolbIU/w5WQo0WYdfSaP4uBrwxJK7vmveTVnkNa3gak1XG7Q7OTJoFhdWY9s0MSkb50JeaJl7kicjQLKaZrmHXsxs9l0SVXeqoM1yq9jrhs0UoTLiJtw06kTQ+zS9KE9ojrykpr4uZj0faDmOfFiydH85Gov1YpXS869+jldrGl1+6qDVfhTUjSX0LK9gNImxNlv6zn9PA6CUyu9NLF+UguOQtvG3uOliPy9JXbU0ym78nGbL/0wcjC8/uGF5bDK7CjDMO3GjBpWRES58bZfetCM7vuUzELo+ZjRm6R5Zm8Zfw5bIJh288WjTuB78o+OyD+cNSucyne8sFHMPJOyd4JZS0lnPbA0pmRdRI4KzgR0fMLMHKryJWSo4kELk/xlRe9JfMvuPT9MbsvzvSGDz1qsxYBGVuhauGRxSZtKQXK6y2kT1JoMGHtCa6UHE3C6J0XZ/oXFHxH5ltU9NbYnRc6DCssr/LUDztyi4AvVh7C3OR8JAWGObT6hw491EfgRZFpmJm7h7nRXCk5GouzVaMZZ2XAGzKSQQcu/mLYjvInnhHjmpibLGLUplKMXXMMk3N3Y3ZaAWLDk5x2HK6+InpNsAJhizdh+HYTV0yOxhL4ydCtpl/JqmVw0ZV/HVF41uQRH44RgSzu6I1nMH7VYQRodmDW/DWYM6/AaQhbtAHyJZvqRMCKAxix3cgVk6NxeRzGVeLscwIzNv9oRGH5Sj44HBxukMDacW7l0K23f/ScwN03nfjBqN2X5HxwODjcIKdTeCHc/9Cl7z8nsH8BvjNq17nOFBzzAeLgcF0M3V5eNbLwYicpA11Thn95/g8jC8/d5YPEweHSBRx3Ru0491+yV2XEZsMvR2w/u5MPEgeH62LIjvJCf8bV1wjsv/3ST4fvOJvGB4mDw6Ut8Dzi6msEprrKUYWX/fkgcXC48BbSjosDpRro2mTUrosfjdx57g4fKA4OF8w+7zp3Z8Tusx/L6pLhO87/duTO8o18sDg4XLKAY9OQnRd+VyeBR+y6/C8jC8/HeXJdNAeHW8a+hbR9dC6OOFongWVyvDl029mew3aUPeKDxsHhSsmrskdDt5l6yuTyN2X1ydBt5R+N2HH2JB80Dg5XqvEvP0nclDUknxVe/MWIwvML+KBxcLhK7bNU/7yw1v3f1/aDtXh71M4LY9l/fMwHj4PDFQh89hHDOP8CvC1rjAwvPOfD3OgSPngcHK5wxp24eMlH1lgZtKPs14O3lKUP/NKEwVtNGLLNxFYB3niNg8MJ2WeGs+nEyUYTmCo9uq8yTeqcJ9zruEyPTsv18MvXo8sKAd1WCeixWkSvNQb0XW9A/41GDNhsgoXsZRi6nROdg8OG3TfuMws8pc7qq7qkS77Jp22WcKRVuhY10TpDizaZWvgw+Gbp0DZbh3Y5OrTP0aNDrh4S4fP06ExkLxAlsvdeK6IPI3u/DUb4b2KE/9JotexlUoDOJ4mDo47qq53njo3Yfr6trKnSPd/wr22z9AtaZeiqXiVxY1GT7D4aRniNzkL6rGrSMzDSd7Ba+c7MynddKaD7KhE9JeJbrHy/jQaJ+GTlBzHiD+Wk5/AOVI0oLF88euu195pMYOp41yFH/MxHo7/cXAI3h/DVIOLXJL8Pkb96AbBafcniS8QXmHsvMvfeYvF7rmHkX1dNfuML8m8xSS4+t/ocbrJ9dHX4zgtjn3efbLIVXmn6P99M3S5HEbhF5H9lAXh1IXh1QfDN0qJdNnkAOmkR8Mt7EeN3L6ixCGx4sQjQAjCYuf3cA+Bw0PbR7iE7Lnwoa7bI5W/6ZOsTW2fqnroDiR29UFSHBRaPwBr/LxesHoEgeQSWxcCAPuuMbDEwSkk/f2vSb9DWMp4H4KjL+j4dtqVM2WDpZEPSOa+saxuN/nRLYmGOxocQtCi0Je9AChF01hCBeQcrX+wAkHfQa+3LYUJ/Sg5uplDB6ilQknC7ZfvPvijnC5AdDi7Q3u+w7ee7yVoq/ju/+XHbTH0eszyVnGTuuzC0yayxOFhDhw7LLAtEJ2sIIXkOK18OI3quNUjJxD5SOGGssVhYvIiBW8okT4K2ECm8GFIXtlu2GOsDXySeW9/KodvLV4wquvMTmS3Eb7lhbJsM3UVOBo5GLxTV24vSQmFJNtL2ol+eJcToutISYtBWo7RYrDZItQXSYrH+5dwDhRwDpMXCgkF1YaulFuE1NHNhadDzsFvhRvmlETvOjZfZSvwLzv/WJ1O3sxW3whyusEjUWCgsCUnr1qQ1F1G9NVmdk+jEFo3qhaM6P0GeRtdqb8Oaq3gRnlgWEgpR+qw3sjDFkr/oZ/VAqr0QgmWBeQHyTJ7jyxcYWBdeW5TKKgdvK981cuvF38tsKR1yhBDmRt/iSsTBUfcW6Es7HjUWmGpInkmN4idabKQFx1oE5bdcf7v32rJQma2lz0rjH5gVPsoe1swnjIPDLjD7aHTH+qwz/kFmD+m83BTPVpl7fKA5OOxixb/1W2ZIkNlLeqy58Kc2Gp2uVbqOW2EODtuiinm4euKYzI7yRsdcYyJ7s4d8wDk4bIpHHXKMCuKYPQks811W9oFvpq6MVgw+6BwctrG+vhp9mR/jlswR4rfcEM7e9BkfeA4Om6Cic55BLnOUdCkwvdc+RzzLB56Do+Voly2eI07JHCndVhgn8MHn4Gg5uq0onyBztHyQZvpee41wkk8AB0fzQRwiLsmcIT3yy9rxU0ocHM0E406PgrJ2MmeJbxHe6rjcmMcz0hwcTc88E3c+XHLiuzJnSr815/6rrUZ/k08IB0fjQZzps+78H2TOlk8LLn2/83JTUOt03RM+MRwcjenqonvit8wQ7M+4I3MF8U03/YqtKHt5PMzB0XDc21Yj7G2jKf21zFXkjwXat/1yTL18MnRX+SRxcNQN4ohfnqmXP+OMzJWki8b0XvtsY2LrDO1jPlEcHLWeNnrcPktUOLxoo7HSadnZv7TT6PdwV5qD43XXmbjRMcv4vzJXFQrKO+SKw30y9ef5pHFw1HCdGSc6LTOMcJnEVZ0JraxzP2+rERNbL9V+yyeOg8NyUJ84QdyQuYO0zxH/7JMtbmRuAz/4z+HtrrPZV6Pb3D7/7J9l7iIfLsF3O+WX9fbJ1JXwSeTwbtdZV9I519iXOCFzJ/FdoH2nQ44hpE2G7gafSA5vBOl+h2wx1Lfgxjsyd5SuBRQP63NaZ5TyrSUOr9syaqsRcvyW6d+XubN0KbjwR98s/X4eD3N4VdybpS/2yzf9SeYJ0m2VoQNbkQx8cjm8wvpm6oyk8zJPkm75xmnMlb75D370kMNDQbrNDNXNrnlioMwTpWOuML9Vuu4+JzGHZ5JXd79jrmG+zFPFv0D7jm+WWMBIzC8M5/AsLNU+89XoV5OOyzxZ+q49/761XpontTg8JmlFOj1s+/n3Zd4gXVeW/2dbjXCUH3rg8IjzvVnCUdJpmTdJl5XGv/lk6E5xJeBw80qrU50LTJ/KvE6AN7ouN3Zvk6E7zRWBw00rrU6TDsvk8jdl3ihSJ4/88n5tNbxmmsPtmtKVdFpu6v9HV+us4YymeH7LjUPYgOi4YnC4CXl1nXLFoS5/ttdhBx8KbrzTMdc4ylcjiFxBOFwZpKMd88pGue0BBbsltZabftSZkbitdIE4VxQO17S8ftnCaNJVzthaLbH2HXJNfDJ1Z7jCcLiU5WU62SnXOJRb3gartS59n5IDPDvN4TLZZo3+dOc8kz+PeRspUkcPyxbTKV7sweHMIo02mfpTHXONPbw+29ycfWK26n3qo9Ef5WWXHM4oj/TJ0h8jHSRd5IRsQdlluyypdvopP8XE4YhTRaRrbbP1RV3XeVl5pL2k5wbxF201ujWtlmofcBJz2JW8TMfaaoQ1PTdc/AVnni1JvPHmDztmG+a3Ti/lV5ly2KeTRrr2ZocccQHpGmecvfaL88unMRIbW6XzuJjDVtCZW6frjCzeDeQMc4D45ZV38NXoi9mKybtdcrTU6j4mXeq6zNiRM8uRlrjgwh+pZW2bDC3vO83RzNNE2hu+Wfpc0iWmUjzT7PAMdcG5n3fIEah5fAnfauJoyhZRm0x9CV08QDrEmeTk8suOy8v6+Gh0m1lsfJ8rKEf9LnPpfdKVDrnGvrws0oUqt+hCtbZZekXrTN15Xr3FUWtVVYbuAulI+5yzf3a7u4q8whpnaX/eIVs/wlej30NXW3DF5ZCsLtMF3yxdUYdlhhGkI5wpLizUIMA3z/i/zCIr2mRqr7bK4IUf3mt1tVVtMnVX22XplaQT/DCCG0nrAtN7nZYZejOXaS+bSN6H2vvI+7StRr+v07Ky3qQLnBFuKP4F2rfbaEp/3SlHCPHN1N1qxcswvQFVNNed6GpbNvf+/BSRB7jVSZe+75et+1OHHHEVT3B5dqKqfba+wC/b9Ceac675nibyorfo1rh2Gj1vFuBhaKcRTndbVd6B5pgrusdnq8/9U4+Vponts4QLrZaWVnDX2j1dZZo7msPuKwyTaE65ZnuZdLEkuiJ8NLryVumlj5hS8GoudyAumyufTP3ZjssNkZ1yS37GNdmrBW+00ej/o0OOXumTqdO3Wqr9lhPZJWGmuWHE1bfPFlRtNGX/QXPH9ZeLlcd4o9vKsv/umGtM9NHoj7VK191mSlPJieN0VNJcsMX1OM0NzRFvccOlXqGMdftsfXibTN2uNhm6S0yBKnj22rHZZBpzGnuag45sLvzydX/imsmlSdIt78LvOuYYx/tq9CvbZGjPtM7kF5PbveyRjTEj7hkacxr7bmsu/I5rIpcWyZC8C++2zzF299WIShYv72Zkvsotsq0PGmivMjd5j2+WqGyXJfSgMeeax8W2Iseb3fLKPmyXZRjrq9EtprjMJ0PHjzA2EzR2PhrdcWZtF9OY0tiy+PZNrmhc7J7w6qIxvdd5mcm3bZYwpU2mPoORuYRZkUecmA12wXjESFtCY0ZjR2NI23lee8cuF+eKdIuEpuzXbTUmn/bZhnG+WfpFDKdYLPeQn4SynAhqzUhLY0JjQ2PUIUvwpTH78AQ/k8vFhcS/AG+3yzH8sv0y8aPW6bpe7ZfpY30zdZtYTHfbC2/y+4Y+e0c2Bq01NBbiRzQ2NEZcU7i4Qbwsf9Ov4NJP2+SKv22fJX7UablhILM8abQt4qsRvvGoJBj7LPSZ6LN1yBHSOubqB9Fnps9OY8DdYy5uL+OYu+iXof3pp8wKtck1/sFvmakzi//k7bL0BQwmFkM/dgtSs2ekZ22n0ZfRs9NnoM9Cn+mT9JJf0Wccx11jLh4vBfgOdYj4cMmJH7fWnHyPzq52X32+fbeV5TPaasTUDrnC3vbZ4lUfjd5pe8/03vQM9Cz0TN1WlM2kEz/0rK01pvfo2aUuF+yz8AnlwoVqe/0LvuMrL3qLkeO7H6Rt/Z5vVtE/dS8w/LL/ugvde60+O4XFkmFtMoV45rJmd8gRizrmGoQOuYav22UL99tm6alJ+TPmyla2ytCbJYsuQW+mn9Hv6DX0Wvo/nXINIv0N3ywhm/4m/e1eq89Pofei96T3pmegZ6Fnomfj9ceuJf8fJchCGmp0Al4AAAAASUVORK5CYII=;" vertex="1" parent="1">
          <mxGeometry x="500" y="486.66" width="100" height="100" as="geometry" />
        </mxCell>
        <mxCell id="i60HTQ7OFVrk5xtHkpp4-36" style="edgeStyle=orthogonalEdgeStyle;rounded=0;orthogonalLoop=1;jettySize=auto;html=1;" edge="1" parent="1" source="i60HTQ7OFVrk5xtHkpp4-7" target="i60HTQ7OFVrk5xtHkpp4-33">
          <mxGeometry relative="1" as="geometry" />
        </mxCell>
        <mxCell id="i60HTQ7OFVrk5xtHkpp4-7" value="Terraform" style="shape=image;verticalLabelPosition=bottom;labelBackgroundColor=default;verticalAlign=top;aspect=fixed;imageAspect=0;image=data:image/svg+xml,PHN2ZyB4bWxucz0iaHR0cDovL3d3dy53My5vcmcvMjAwMC9zdmciIGZpbGw9Im5vbmUiIHZpZXdCb3g9IjAgMCA2NCA2NCIgaGVpZ2h0PSI4MDBweCIgd2lkdGg9IjgwMHB4Ij48cGF0aCBmaWxsPSIjNDA0MEIyIiBkPSJNMzguMDYgMjYuMTUxdjExLjQ3M0w0OCAzMS44OTFWMjAuNDA2bC05Ljk0IDUuNzQ1eiIvPjxwYXRoIGZpbGw9IiM1QzRFRTUiIGQ9Im0yNy4wMyAyMC40MDYgOS45NCA1Ljc0NXYxMS40NzNsLTkuOTQtNS43NFYyMC40MDd6TTE2IDE0djExLjQ3OWw5Ljk0IDUuNzR2LTExLjQ4TDE2IDE0em0xMS4wMyAzMC42MjQgOS45NCA1Ljc0di0xMS40OGwtOS45NC01LjczOXYxMS40OHoiLz48L3N2Zz4=;" vertex="1" parent="1">
          <mxGeometry x="720" y="375" width="90" height="90" as="geometry" />
        </mxCell>
        <mxCell id="i60HTQ7OFVrk5xtHkpp4-8" value="AWS CT-Legacy" style="sketch=0;outlineConnect=0;fontColor=#232F3E;gradientColor=none;strokeColor=#232F3E;fillColor=#ffffff;dashed=0;verticalLabelPosition=bottom;verticalAlign=top;align=center;html=1;fontSize=12;fontStyle=0;aspect=fixed;shape=mxgraph.aws4.resourceIcon;resIcon=mxgraph.aws4.aws_cloud;" vertex="1" parent="1">
          <mxGeometry x="1030" y="277.5" width="60" height="60" as="geometry" />
        </mxCell>
        <mxCell id="i60HTQ7OFVrk5xtHkpp4-13" value="1. Push code to IaaS Repo in feature branch" style="text;html=1;strokeColor=none;fillColor=none;align=center;verticalAlign=middle;whiteSpace=wrap;rounded=0;" vertex="1" parent="1">
          <mxGeometry x="110" y="420" width="90" height="30" as="geometry" />
        </mxCell>
        <mxCell id="i60HTQ7OFVrk5xtHkpp4-15" value="2. User Raises PR to main branch" style="text;html=1;strokeColor=none;fillColor=none;align=center;verticalAlign=middle;whiteSpace=wrap;rounded=0;" vertex="1" parent="1">
          <mxGeometry x="140" y="521.66" width="110" height="30" as="geometry" />
        </mxCell>
        <mxCell id="i60HTQ7OFVrk5xtHkpp4-17" value="3. Webhook to Atlantis&amp;nbsp;" style="text;html=1;strokeColor=none;fillColor=none;align=center;verticalAlign=middle;whiteSpace=wrap;rounded=0;" vertex="1" parent="1">
          <mxGeometry x="320" y="510.00000000000006" width="140" height="30" as="geometry" />
        </mxCell>
        <mxCell id="i60HTQ7OFVrk5xtHkpp4-19" value="4. Terraform Plan" style="text;html=1;strokeColor=none;fillColor=none;align=center;verticalAlign=middle;whiteSpace=wrap;rounded=0;" vertex="1" parent="1">
          <mxGeometry x="570" y="420" width="120" height="30" as="geometry" />
        </mxCell>
        <mxCell id="i60HTQ7OFVrk5xtHkpp4-21" value="User 2" style="shape=umlActor;verticalLabelPosition=bottom;verticalAlign=top;html=1;outlineConnect=0;" vertex="1" parent="1">
          <mxGeometry x="330" y="290" width="20" height="35" as="geometry" />
        </mxCell>
        <mxCell id="i60HTQ7OFVrk5xtHkpp4-23" style="edgeStyle=orthogonalEdgeStyle;rounded=0;orthogonalLoop=1;jettySize=auto;html=1;exitX=0.5;exitY=1;exitDx=0;exitDy=0;exitPerimeter=0;" edge="1" parent="1" source="i60HTQ7OFVrk5xtHkpp4-22" target="i60HTQ7OFVrk5xtHkpp4-5">
          <mxGeometry relative="1" as="geometry">
            <mxPoint x="460" y="375" as="sourcePoint" />
            <mxPoint x="370" y="570" as="targetPoint" />
            <Array as="points">
              <mxPoint x="395" y="480" />
              <mxPoint x="270" y="480" />
            </Array>
          </mxGeometry>
        </mxCell>
        <mxCell id="i60HTQ7OFVrk5xtHkpp4-22" value="" style="verticalLabelPosition=bottom;html=1;verticalAlign=top;align=center;strokeColor=none;fillColor=#00BEF2;shape=mxgraph.azure.laptop;pointerEvents=1;" vertex="1" parent="1">
          <mxGeometry x="370" y="300" width="50" height="30" as="geometry" />
        </mxCell>
        <mxCell id="i60HTQ7OFVrk5xtHkpp4-24" value="5. Peer Review and Approval" style="text;html=1;strokeColor=none;fillColor=none;align=center;verticalAlign=middle;whiteSpace=wrap;rounded=0;" vertex="1" parent="1">
          <mxGeometry x="353" y="360" width="160" height="30" as="geometry" />
        </mxCell>
        <mxCell id="i60HTQ7OFVrk5xtHkpp4-25" value="4.Terraform plan comment on PR" style="text;html=1;strokeColor=none;fillColor=none;align=center;verticalAlign=middle;whiteSpace=wrap;rounded=0;" vertex="1" parent="1">
          <mxGeometry x="310" y="540" width="170" height="30" as="geometry" />
        </mxCell>
        <mxCell id="i60HTQ7OFVrk5xtHkpp4-26" value="6. User comments on PR atlantis apply" style="text;html=1;strokeColor=none;fillColor=none;align=center;verticalAlign=middle;whiteSpace=wrap;rounded=0;" vertex="1" parent="1">
          <mxGeometry x="80" y="630" width="190" height="30" as="geometry" />
        </mxCell>
        <mxCell id="i60HTQ7OFVrk5xtHkpp4-29" value="" style="endArrow=classic;startArrow=classic;html=1;rounded=0;entryX=-0.02;entryY=0.823;entryDx=0;entryDy=0;entryPerimeter=0;" edge="1" parent="1">
          <mxGeometry width="50" height="50" relative="1" as="geometry">
            <mxPoint x="298.84060945764577" y="563.3299999999999" as="sourcePoint" />
            <mxPoint x="510" y="568.96" as="targetPoint" />
            <Array as="points">
              <mxPoint x="315" y="640" />
              <mxPoint x="482" y="640" />
            </Array>
          </mxGeometry>
        </mxCell>
        <mxCell id="i60HTQ7OFVrk5xtHkpp4-30" value="7. Terraform Apply webhook to Atlantis" style="text;html=1;strokeColor=none;fillColor=none;align=center;verticalAlign=middle;whiteSpace=wrap;rounded=0;" vertex="1" parent="1">
          <mxGeometry x="310" y="639.99" width="180" height="30" as="geometry" />
        </mxCell>
        <mxCell id="i60HTQ7OFVrk5xtHkpp4-31" value="" style="endArrow=classic;startArrow=classic;html=1;rounded=0;entryX=0;entryY=0.75;entryDx=0;entryDy=0;exitX=1;exitY=0.5;exitDx=0;exitDy=0;" edge="1" parent="1" source="i60HTQ7OFVrk5xtHkpp4-6" target="i60HTQ7OFVrk5xtHkpp4-7">
          <mxGeometry width="50" height="50" relative="1" as="geometry">
            <mxPoint x="680" y="550" as="sourcePoint" />
            <mxPoint x="730" y="500" as="targetPoint" />
            <Array as="points">
              <mxPoint x="720" y="537" />
            </Array>
          </mxGeometry>
        </mxCell>
        <mxCell id="i60HTQ7OFVrk5xtHkpp4-32" value="8. Terraform Apply&amp;nbsp;" style="text;html=1;strokeColor=none;fillColor=none;align=center;verticalAlign=middle;whiteSpace=wrap;rounded=0;" vertex="1" parent="1">
          <mxGeometry x="600" y="533.33" width="150" height="30" as="geometry" />
        </mxCell>
        <mxCell id="i60HTQ7OFVrk5xtHkpp4-37" style="edgeStyle=orthogonalEdgeStyle;rounded=0;orthogonalLoop=1;jettySize=auto;html=1;" edge="1" parent="1" source="i60HTQ7OFVrk5xtHkpp4-33" target="i60HTQ7OFVrk5xtHkpp4-8">
          <mxGeometry relative="1" as="geometry">
            <mxPoint x="1000" y="310" as="targetPoint" />
            <Array as="points">
              <mxPoint x="970" y="420" />
              <mxPoint x="970" y="310" />
            </Array>
          </mxGeometry>
        </mxCell>
        <mxCell id="i60HTQ7OFVrk5xtHkpp4-33" value="IAM Role/Profile" style="outlineConnect=0;dashed=0;verticalLabelPosition=bottom;verticalAlign=top;align=center;html=1;shape=mxgraph.aws3.role;fillColor=#759C3E;gradientColor=none;" vertex="1" parent="1">
          <mxGeometry x="860" y="397.75" width="54.5" height="44.5" as="geometry" />
        </mxCell>
        <mxCell id="i60HTQ7OFVrk5xtHkpp4-34" value="AWS CT-Prod" style="sketch=0;outlineConnect=0;fontColor=#232F3E;gradientColor=none;strokeColor=#232F3E;fillColor=#ffffff;dashed=0;verticalLabelPosition=bottom;verticalAlign=top;align=center;html=1;fontSize=12;fontStyle=0;aspect=fixed;shape=mxgraph.aws4.resourceIcon;resIcon=mxgraph.aws4.aws_cloud;" vertex="1" parent="1">
          <mxGeometry x="1030" y="390" width="60" height="60" as="geometry" />
        </mxCell>
        <mxCell id="i60HTQ7OFVrk5xtHkpp4-35" value="AWS Odis-Prod" style="sketch=0;outlineConnect=0;fontColor=#232F3E;gradientColor=none;strokeColor=#232F3E;fillColor=#ffffff;dashed=0;verticalLabelPosition=bottom;verticalAlign=top;align=center;html=1;fontSize=12;fontStyle=0;aspect=fixed;shape=mxgraph.aws4.resourceIcon;resIcon=mxgraph.aws4.aws_cloud;" vertex="1" parent="1">
          <mxGeometry x="1030" y="500" width="60" height="60" as="geometry" />
        </mxCell>
        <mxCell id="i60HTQ7OFVrk5xtHkpp4-38" value="" style="endArrow=classic;html=1;rounded=0;" edge="1" parent="1" target="i60HTQ7OFVrk5xtHkpp4-35">
          <mxGeometry width="50" height="50" relative="1" as="geometry">
            <mxPoint x="970" y="420" as="sourcePoint" />
            <mxPoint x="940" y="490" as="targetPoint" />
            <Array as="points">
              <mxPoint x="970" y="530" />
            </Array>
          </mxGeometry>
        </mxCell>
        <mxCell id="i60HTQ7OFVrk5xtHkpp4-39" value="" style="endArrow=classic;html=1;rounded=0;" edge="1" parent="1" target="i60HTQ7OFVrk5xtHkpp4-34">
          <mxGeometry width="50" height="50" relative="1" as="geometry">
            <mxPoint x="970" y="420" as="sourcePoint" />
            <mxPoint x="890" y="500" as="targetPoint" />
          </mxGeometry>
        </mxCell>
        <mxCell id="i60HTQ7OFVrk5xtHkpp4-40" value="Assume Role for target account" style="text;html=1;strokeColor=none;fillColor=none;align=center;verticalAlign=middle;whiteSpace=wrap;rounded=0;" vertex="1" parent="1">
          <mxGeometry x="810" y="368" width="130" height="30" as="geometry" />
        </mxCell>
        <mxCell id="i60HTQ7OFVrk5xtHkpp4-43" value="" style="shape=image;verticalLabelPosition=bottom;labelBackgroundColor=default;verticalAlign=top;aspect=fixed;imageAspect=0;image=data:image/jpeg,/9j/4AAQSkZJRgABAgEAZABkAAD/4QiURXhpZgAATU0AKgAAAAgABwESAAMAAAABAAEAAAEaAAUAAAABAAAAYgEbAAUAAAABAAAAagEoAAMAAAABAAIAAAExAAIAAAAeAAAAcgEyAAIAAAAUAAAAkIdpAAQAAAABAAAApAAAANAAD0JAAAAnEAAPQkAAACcQQWRvYmUgUGhvdG9zaG9wIENTNCBNYWNpbnRvc2gAMjAxMDowOToyOSAxMDoxMjoyMQAAA6ABAAMAAAABAAEAAKACAAQAAAABAAADAqADAAQAAAABAAAAyAAAAAAAAAAGAQMAAwAAAAEABgAAARoABQAAAAEAAAEeARsABQAAAAEAAAEmASgAAwAAAAEAAgAAAgEABAAAAAEAAAEuAgIABAAAAAEAAAdeAAAAAAAAAEgAAAABAAAASAAAAAH/2P/gABBKRklGAAECAABIAEgAAP/tAAxBZG9iZV9DTQAB/+4ADkFkb2JlAGSAAAAAAf/bAIQADAgICAkIDAkJDBELCgsRFQ8MDA8VGBMTFRMTGBEMDAwMDAwRDAwMDAwMDAwMDAwMDAwMDAwMDAwMDAwMDAwMDAENCwsNDg0QDg4QFA4ODhQUDg4ODhQRDAwMDAwREQwMDAwMDBEMDAwMDAwMDAwMDAwMDAwMDAwMDAwMDAwMDAwM/8AAEQgAKgCgAwEiAAIRAQMRAf/dAAQACv/EAT8AAAEFAQEBAQEBAAAAAAAAAAMAAQIEBQYHCAkKCwEAAQUBAQEBAQEAAAAAAAAAAQACAwQFBgcICQoLEAABBAEDAgQCBQcGCAUDDDMBAAIRAwQhEjEFQVFhEyJxgTIGFJGhsUIjJBVSwWIzNHKC0UMHJZJT8OHxY3M1FqKygyZEk1RkRcKjdDYX0lXiZfKzhMPTdePzRieUpIW0lcTU5PSltcXV5fVWZnaGlqa2xtbm9jdHV2d3h5ent8fX5/cRAAICAQIEBAMEBQYHBwYFNQEAAhEDITESBEFRYXEiEwUygZEUobFCI8FS0fAzJGLhcoKSQ1MVY3M08SUGFqKygwcmNcLSRJNUoxdkRVU2dGXi8rOEw9N14/NGlKSFtJXE1OT0pbXF1eX1VmZ2hpamtsbW5vYnN0dXZ3eHl6e3x//aAAwDAQACEQMRAD8A9VSSSSUpJMSAJOgC8J+vv+MHO6/mXYOBc6rorHbGMZLDeB/hr/ovdW/6VdL/AOR6lfrJKfZLfrP9W6bHVW9Wwq7Wna5jsioOB/dc11m5aFVtV1bbaXtsreJY9hDmkHu1zfpL5YWz9WvrZ1j6tZgyMC0+i4/p8VxJqsH8tn5tn7lzf0rElP0ikqHQ+sYnXOlY3VMMn0clu4NcILXA7LanfyqrWvr/AOoV9JSlSzetdH6e8V5+fjYj3CWtvuZWSPENtc1cN/jQ+v8Af0knoPSH+nnWMDsvKaRupY8e2mn85mTYz9J6v+Ap9P0f0tvqUeOWWWW2OsscX2PJc97jJJOrnOcfpOckp+oMLqXTuoMdZgZVOXW0w59FjbAD4OdU5ysr5cws7M6fksy8G9+NkV/QtqcWuE6H3N/e/OXuX+Lj67O+s/T7KM7a3qmEGi4tgC1h0ZlNr/Mdu9mQyv8AR+p/o/XZTWlPYpJLA+uv1pq+q/RH521tmVYfSw6XTDrCJ3P2+70qmj1LP+2vUZ6qSnZy83DwqTkZt9eNSDBtue2tgJ/l2FrVWxOv9CzbhRhdSxMm48V0312OP9it7nL5w6t1nqnWcs5nU8l+TedAXnRondsqrHsqr/4OtqppKfqpJeSf4s/8YmX9sp+r/W7XZFWQ7ZhZVh3PZY4+zHuscd9lVrvZS7+cqs2VfzH9H9bSUpJJJJT/AP/Q9VSSSSU4f13vsx/qj1eyv6X2WxnwDx6Tj/Za9fOK+oeo4NXUen5OBcSKsup9Dy3kNsaa3Fv8r3L5p6v0rM6P1LI6bmt2ZGM8sdE7SPzLK9wburtZ+kr/AJCSmokkkASYGpPASU+x/wCJLItd0PPxnD9HVkh7HedjGh7f/Amr0dcv/i5+rt31f+rNOPlDbl5TzlZDP3HPDWsq4b7q6a6vVb/pvVXUJKfm365XW3fWzrD7XF7hm3sBP7tdjqqm/wBitjGLHXbf41vq1f0r6w29Trr/AFDqjvVZYOG3ETk1P1+m9/6x/L9X9H/M2riUlKXYf4p8m6n674ddZhmTXdVcPFgqfkAf9u0VLj16h/iZ+rV5yb/rHk1ltDWGjCLm/Tc4/rF9bv3ams+z/R2P9W7/AEKSn1pePf478m13V+m4pH6GrHdaw/yrH7LP+jj1L2Feff44fq7d1Ho9PV8Vpfb0wu9djRJNFm31LdPd+rPr3/8AFPvt/MSU+LJJJJKXY99b22VuLHsIc1wMEEatc0r6nrcXVtcdC4AkfEL51+pX1av+snXqMMMJxK3C3Ns4DaWn3t3f6S7+aq/l/wAjevoxJSkkkklP/9H1VJJJJSlhfWf6m9D+s9TW9RqLcisbasuohtrBO7ZuIcx9f/B2sf8AT/R/pFupJKfKLP8AEa/1P0fWB6ZP52P7gJ8r/cum+q3+LHoP1ftZmWl3Uc+uCy+4AMY4fn4+ON2x/wDLtsuez/BemuxSSUpJJJJTV6j03A6ph2YPUKG5GNaIfW//AKprh7mPb+ZYz9Ixec9R/wASGK+8v6b1N9FJ4pvqFpHj+mrfR/55/tr1BJJT5v0f/Er0rGuFvVs1+ewaiitvoMPlY8WW3Pb/AMW6hei001UVMooY2qmpoZXWwBrWtaNrGMY32tY1qmkkpSSSSSngfrB/if6H1K92T0y53SrXmX1sYLKNZJ9OjdU6n/rdvo/uUrJxP8RzRc12b1YupBG9lNO1zh3DbbLbG1/9s2r1RJJTm9C+r/Sfq/hDC6ZSKq+bHnV9jv8ASXWH3Pf/ANBn+DWkkkkpSSSSSn//2f/tDrZQaG90b3Nob3AgMy4wADhCSU0EBAAAAAAABxwCAAACAAAAOEJJTQQlAAAAAAAQ6PFc8y/BGKGie2etxWTVujhCSU0D7QAAAAAAEABkAAAAAQABAGQAAAABAAE4QklNBCYAAAAAAA4AAAAAAAAAAAAAP4AAADhCSU0EDQAAAAAABAAAAHg4QklNBBkAAAAAAAQAAAAeOEJJTQPzAAAAAAAJAAAAAAAAAAABADhCSU0nEAAAAAAACgABAAAAAAAAAAE4QklNA/UAAAAAAEgAL2ZmAAEAbGZmAAYAAAAAAAEAL2ZmAAEAoZmaAAYAAAAAAAEAMgAAAAEAWgAAAAYAAAAAAAEANQAAAAEALQAAAAYAAAAAAAE4QklNA/gAAAAAAHAAAP////////////////////////////8D6AAAAAD/////////////////////////////A+gAAAAA/////////////////////////////wPoAAAAAP////////////////////////////8D6AAAOEJJTQQAAAAAAAACAAI4QklNBAIAAAAAAAYAAAAAAAA4QklNBDAAAAAAAAMBAQEAOEJJTQQtAAAAAAAGAAEAAAAJOEJJTQQIAAAAAAAQAAAAAQAAAkAAAAJAAAAAADhCSU0EHgAAAAAABAAAAAA4QklNBBoAAAAAA0kAAAAGAAAAAAAAAAAAAADIAAADAgAAAAoASABlAGEAZABlAHIAXwBOAEUAVwAAAAEAAAAAAAAAAAAAAAAAAAAAAAAAAQAAAAAAAAAAAAADAgAAAMgAAAAAAAAAAAAAAAAAAAAAAQAAAAAAAAAAAAAAAAAAAAAAAAAQAAAAAQAAAAAAAG51bGwAAAACAAAABmJvdW5kc09iamMAAAABAAAAAAAAUmN0MQAAAAQAAAAAVG9wIGxvbmcAAAAAAAAAAExlZnRsb25nAAAAAAAAAABCdG9tbG9uZwAAAMgAAAAAUmdodGxvbmcAAAMCAAAABnNsaWNlc1ZsTHMAAAABT2JqYwAAAAEAAAAAAAVzbGljZQAAABIAAAAHc2xpY2VJRGxvbmcAAAAAAAAAB2dyb3VwSURsb25nAAAAAAAAAAZvcmlnaW5lbnVtAAAADEVTbGljZU9yaWdpbgAAAA1hdXRvR2VuZXJhdGVkAAAAAFR5cGVlbnVtAAAACkVTbGljZVR5cGUAAAAASW1nIAAAAAZib3VuZHNPYmpjAAAAAQAAAAAAAFJjdDEAAAAEAAAAAFRvcCBsb25nAAAAAAAAAABMZWZ0bG9uZwAAAAAAAAAAQnRvbWxvbmcAAADIAAAAAFJnaHRsb25nAAADAgAAAAN1cmxURVhUAAAAAQAAAAAAAG51bGxURVhUAAAAAQAAAAAAAE1zZ2VURVhUAAAAAQAAAAAABmFsdFRhZ1RFWFQAAAABAAAAAAAOY2VsbFRleHRJc0hUTUxib29sAQAAAAhjZWxsVGV4dFRFWFQAAAABAAAAAAAJaG9yekFsaWduZW51bQAAAA9FU2xpY2VIb3J6QWxpZ24AAAAHZGVmYXVsdAAAAAl2ZXJ0QWxpZ25lbnVtAAAAD0VTbGljZVZlcnRBbGlnbgAAAAdkZWZhdWx0AAAAC2JnQ29sb3JUeXBlZW51bQAAABFFU2xpY2VCR0NvbG9yVHlwZQAAAABOb25lAAAACXRvcE91dHNldGxvbmcAAAAAAAAACmxlZnRPdXRzZXRsb25nAAAAAAAAAAxib3R0b21PdXRzZXRsb25nAAAAAAAAAAtyaWdodE91dHNldGxvbmcAAAAAADhCSU0EKAAAAAAADAAAAAI/8AAAAAAAADhCSU0EFAAAAAAABAAAAAs4QklNBAwAAAAAB3oAAAABAAAAoAAAACoAAAHgAABOwAAAB14AGAAB/9j/4AAQSkZJRgABAgAASABIAAD/7QAMQWRvYmVfQ00AAf/uAA5BZG9iZQBkgAAAAAH/2wCEAAwICAgJCAwJCQwRCwoLERUPDAwPFRgTExUTExgRDAwMDAwMEQwMDAwMDAwMDAwMDAwMDAwMDAwMDAwMDAwMDAwBDQsLDQ4NEA4OEBQODg4UFA4ODg4UEQwMDAwMEREMDAwMDAwRDAwMDAwMDAwMDAwMDAwMDAwMDAwMDAwMDAwMDP/AABEIACoAoAMBIgACEQEDEQH/3QAEAAr/xAE/AAABBQEBAQEBAQAAAAAAAAADAAECBAUGBwgJCgsBAAEFAQEBAQEBAAAAAAAAAAEAAgMEBQYHCAkKCxAAAQQBAwIEAgUHBggFAwwzAQACEQMEIRIxBUFRYRMicYEyBhSRobFCIyQVUsFiMzRygtFDByWSU/Dh8WNzNRaisoMmRJNUZEXCo3Q2F9JV4mXys4TD03Xj80YnlKSFtJXE1OT0pbXF1eX1VmZ2hpamtsbW5vY3R1dnd4eXp7fH1+f3EQACAgECBAQDBAUGBwcGBTUBAAIRAyExEgRBUWFxIhMFMoGRFKGxQiPBUtHwMyRi4XKCkkNTFWNzNPElBhaisoMHJjXC0kSTVKMXZEVVNnRl4vKzhMPTdePzRpSkhbSVxNTk9KW1xdXl9VZmdoaWprbG1ub2JzdHV2d3h5ent8f/2gAMAwEAAhEDEQA/APVUkkklKSTEgCToAvCfr7/jBzuv5l2DgXOq6Kx2xjGSw3gf4a/6L3Vv+lXS/wDkepX6ySn2S36z/Vumx1VvVsKu1p2uY7IqDgf3XNdZuWhVbVdW22l7bK3iWPYQ5pB7tc36S+WFs/Vr62dY+rWYMjAtPouP6fFcSarB/LZ+bZ+5c39KxJT9IpKh0PrGJ1zpWN1TDJ9HJbuDXCC1wOy2p38qq1r6/wDqFfSUpUs3rXR+nvFefn42I9wlrb7mVkjxDbXNXDf40Pr/AH9JJ6D0h/p51jA7LymkbqWPHtpp/OZk2M/Ser/gKfT9H9Lb6lHjlllltjrLHF9jyXPe4ySTq5znH6TnJKfqDC6l07qDHWYGVTl1tMOfRY2wA+DnVOcrK+XMLOzOn5LMvBvfjZFf0LanFrhOh9zf3vzl7l/i4+uzvrP0+yjO2t6phBouLYAtYdGZTa/zHbvZkMr/AEfqf6P12U1pT2KSSwPrr9aavqv0R+dtbZlWH0sOl0w6widz9vu9Kpo9Sz/tr1Geqkp2cvNw8Kk5GbfXjUgwbbntrYCf5dha1VsTr/Qs24UYXUsTJuPFdN9djj/Yre5y+cOrdZ6p1nLOZ1PJfk3nQF50aJ3bKqx7Kq/+DraqaSn6qSXkn+LP/GJl/bKfq/1u12RVkO2YWVYdz2WOPsx7rHHfZVa72Uu/nKrNlX8x/R/W0lKSSSSU/wD/0PVUkkklOH9d77Mf6o9Xsr+l9lsZ8A8ek4/2WvXzivqHqODV1Hp+TgXEirLqfQ8t5DbGmtxb/K9y+aer9KzOj9SyOm5rdmRjPLHRO0j8yyvcG7q7WfpK/wCQkpqJJJAEmBqTwElPsf8AiSyLXdDz8Zw/R1ZIex3nYxoe3/wJq9HXL/4ufq7d9X/qzTj5Q25eU85WQz9xzw1rKuG+6umur1W/6b1V1CSn5t+uV1t31s6w+1xe4Zt7AT+7XY6qpv8AYrYxix123+Nb6tX9K+sNvU66/wBQ6o71WWDhtxE5NT9fpvf+sfy/V/R/zNq4lJSl2H+KfJup+u+HXWYZk13VXDxYKn5AH/btFS49eof4mfq1ecm/6x5NZbQ1howi5v03OP6xfW792prPs/0dj/Vu/wBCkp9aXj3+O/Jtd1fpuKR+hqx3WsP8qx+yz/o49S9hXn3+OH6u3dR6PT1fFaX29MLvXY0STRZt9S3T3fqz69//ABT77fzElPiySSSSl2PfW9tlbix7CHNcDBBGrXNK+p63F1bXHQuAJHxC+dfqV9Wr/rJ16jDDCcStwtzbOA2lp97d3+ku/mqv5f8AI3r6MSUpJJJJT//R9VSSSSUpYX1n+pvQ/rPU1vUai3IrG2rLqIbawTu2biHMfX/wdrH/AE/0f6RbqSSnyiz/ABGv9T9H1gemT+dj+4CfK/3Lpvqt/ix6D9X7WZlpd1HPrgsvuADGOH5+Pjjdsf8Ay7bLns/wXprsUklKSSSSU1eo9NwOqYdmD1ChuRjWiH1v/wCqa4e5j2/mWM/SMXnPUf8AEhivvL+m9TfRSeKb6haR4/pq30f+ef7a9QSSU+b9H/xK9Kxrhb1bNfnsGoorb6DD5WPFltz2/wDFuoXotNNVFTKKGNqpqaGV1sAa1rWjaxjGN9rWNappJKUkkkkp4H6wf4n+h9Svdk9Mud0q15l9bGCyjWSfTo3VOp/63b6P7lKycT/Ec0XNdm9WLqQRvZTTtc4dw22y2xtf/bNq9USSU5vQvq/0n6v4QwumUiqvmx51fY7/AEl1h9z3/wDQZ/g1pJJJKUkkkkp//9k4QklNBCEAAAAAAFUAAAABAQAAAA8AQQBkAG8AYgBlACAAUABoAG8AdABvAHMAaABvAHAAAAATAEEAZABvAGIAZQAgAFAAaABvAHQAbwBzAGgAbwBwACAAQwBTADQAAAABADhCSU0PoAAAAAABCG1hbmlJUkZSAAAA/DhCSU1BbkRzAAAA3AAAABAAAAABAAAAAAAAbnVsbAAAAAMAAAAAQUZTdGxvbmcAAAAAAAAAAEZySW5WbExzAAAAAU9iamMAAAABAAAAAAAAbnVsbAAAAAIAAAAARnJJRGxvbmddw8d8AAAAAEZyRGxsb25nAAAD6AAAAABGU3RzVmxMcwAAAAFPYmpjAAAAAQAAAAAAAG51bGwAAAAEAAAAAEZzSURsb25nAAAAAAAAAABBRnJtbG9uZwAAAAAAAAAARnNGclZsTHMAAAABbG9uZ13Dx3wAAAAATENudGxvbmcAAAABAAA4QklNUm9sbAAAAAgAAAAAAAAAADhCSU0PoQAAAAAAHG1mcmkAAAACAAAAEAAAAAEAAAAAAAAAAQAAAAA4QklNBAYAAAAAAAcACAAAAAEBAP/iDFhJQ0NfUFJPRklMRQABAQAADEhMaW5vAhAAAG1udHJSR0IgWFlaIAfOAAIACQAGADEAAGFjc3BNU0ZUAAAAAElFQyBzUkdCAAAAAAAAAAAAAAABAAD21gABAAAAANMtSFAgIAAAAAAAAAAAAAAAAAAAAAAAAAAAAAAAAAAAAAAAAAAAAAAAAAAAAAAAAAAAAAAAEWNwcnQAAAFQAAAAM2Rlc2MAAAGEAAAAbHd0cHQAAAHwAAAAFGJrcHQAAAIEAAAAFHJYWVoAAAIYAAAAFGdYWVoAAAIsAAAAFGJYWVoAAAJAAAAAFGRtbmQAAAJUAAAAcGRtZGQAAALEAAAAiHZ1ZWQAAANMAAAAhnZpZXcAAAPUAAAAJGx1bWkAAAP4AAAAFG1lYXMAAAQMAAAAJHRlY2gAAAQwAAAADHJUUkMAAAQ8AAAIDGdUUkMAAAQ8AAAIDGJUUkMAAAQ8AAAIDHRleHQAAAAAQ29weXJpZ2h0IChjKSAxOTk4IEhld2xldHQtUGFja2FyZCBDb21wYW55AABkZXNjAAAAAAAAABJzUkdCIElFQzYxOTY2LTIuMQAAAAAAAAAAAAAAEnNSR0IgSUVDNjE5NjYtMi4xAAAAAAAAAAAAAAAAAAAAAAAAAAAAAAAAAAAAAAAAAAAAAAAAAAAAAAAAAAAAAAAAAABYWVogAAAAAAAA81EAAQAAAAEWzFhZWiAAAAAAAAAAAAAAAAAAAAAAWFlaIAAAAAAAAG+iAAA49QAAA5BYWVogAAAAAAAAYpkAALeFAAAY2lhZWiAAAAAAAAAkoAAAD4QAALbPZGVzYwAAAAAAAAAWSUVDIGh0dHA6Ly93d3cuaWVjLmNoAAAAAAAAAAAAAAAWSUVDIGh0dHA6Ly93d3cuaWVjLmNoAAAAAAAAAAAAAAAAAAAAAAAAAAAAAAAAAAAAAAAAAAAAAAAAAAAAAAAAAAAAAGRlc2MAAAAAAAAALklFQyA2MTk2Ni0yLjEgRGVmYXVsdCBSR0IgY29sb3VyIHNwYWNlIC0gc1JHQgAAAAAAAAAAAAAALklFQyA2MTk2Ni0yLjEgRGVmYXVsdCBSR0IgY29sb3VyIHNwYWNlIC0gc1JHQgAAAAAAAAAAAAAAAAAAAAAAAAAAAABkZXNjAAAAAAAAACxSZWZlcmVuY2UgVmlld2luZyBDb25kaXRpb24gaW4gSUVDNjE5NjYtMi4xAAAAAAAAAAAAAAAsUmVmZXJlbmNlIFZpZXdpbmcgQ29uZGl0aW9uIGluIElFQzYxOTY2LTIuMQAAAAAAAAAAAAAAAAAAAAAAAAAAAAAAAAAAdmlldwAAAAAAE6T+ABRfLgAQzxQAA+3MAAQTCwADXJ4AAAABWFlaIAAAAAAATAlWAFAAAABXH+dtZWFzAAAAAAAAAAEAAAAAAAAAAAAAAAAAAAAAAAACjwAAAAJzaWcgAAAAAENSVCBjdXJ2AAAAAAAABAAAAAAFAAoADwAUABkAHgAjACgALQAyADcAOwBAAEUASgBPAFQAWQBeAGMAaABtAHIAdwB8AIEAhgCLAJAAlQCaAJ8ApACpAK4AsgC3ALwAwQDGAMsA0ADVANsA4ADlAOsA8AD2APsBAQEHAQ0BEwEZAR8BJQErATIBOAE+AUUBTAFSAVkBYAFnAW4BdQF8AYMBiwGSAZoBoQGpAbEBuQHBAckB0QHZAeEB6QHyAfoCAwIMAhQCHQImAi8COAJBAksCVAJdAmcCcQJ6AoQCjgKYAqICrAK2AsECywLVAuAC6wL1AwADCwMWAyEDLQM4A0MDTwNaA2YDcgN+A4oDlgOiA64DugPHA9MD4APsA/kEBgQTBCAELQQ7BEgEVQRjBHEEfgSMBJoEqAS2BMQE0wThBPAE/gUNBRwFKwU6BUkFWAVnBXcFhgWWBaYFtQXFBdUF5QX2BgYGFgYnBjcGSAZZBmoGewaMBp0GrwbABtEG4wb1BwcHGQcrBz0HTwdhB3QHhgeZB6wHvwfSB+UH+AgLCB8IMghGCFoIbgiCCJYIqgi+CNII5wj7CRAJJQk6CU8JZAl5CY8JpAm6Cc8J5Qn7ChEKJwo9ClQKagqBCpgKrgrFCtwK8wsLCyILOQtRC2kLgAuYC7ALyAvhC/kMEgwqDEMMXAx1DI4MpwzADNkM8w0NDSYNQA1aDXQNjg2pDcMN3g34DhMOLg5JDmQOfw6bDrYO0g7uDwkPJQ9BD14Peg+WD7MPzw/sEAkQJhBDEGEQfhCbELkQ1xD1ERMRMRFPEW0RjBGqEckR6BIHEiYSRRJkEoQSoxLDEuMTAxMjE0MTYxODE6QTxRPlFAYUJxRJFGoUixStFM4U8BUSFTQVVhV4FZsVvRXgFgMWJhZJFmwWjxayFtYW+hcdF0EXZReJF64X0hf3GBsYQBhlGIoYrxjVGPoZIBlFGWsZkRm3Gd0aBBoqGlEadxqeGsUa7BsUGzsbYxuKG7Ib2hwCHCocUhx7HKMczBz1HR4dRx1wHZkdwx3sHhYeQB5qHpQevh7pHxMfPh9pH5Qfvx/qIBUgQSBsIJggxCDwIRwhSCF1IaEhziH7IiciVSKCIq8i3SMKIzgjZiOUI8Ij8CQfJE0kfCSrJNolCSU4JWgllyXHJfcmJyZXJocmtyboJxgnSSd6J6sn3CgNKD8ocSiiKNQpBik4KWspnSnQKgIqNSpoKpsqzysCKzYraSudK9EsBSw5LG4soizXLQwtQS12Last4S4WLkwugi63Lu4vJC9aL5Evxy/+MDUwbDCkMNsxEjFKMYIxujHyMioyYzKbMtQzDTNGM38zuDPxNCs0ZTSeNNg1EzVNNYc1wjX9Njc2cjauNuk3JDdgN5w31zgUOFA4jDjIOQU5Qjl/Obw5+To2OnQ6sjrvOy07azuqO+g8JzxlPKQ84z0iPWE9oT3gPiA+YD6gPuA/IT9hP6I/4kAjQGRApkDnQSlBakGsQe5CMEJyQrVC90M6Q31DwEQDREdEikTORRJFVUWaRd5GIkZnRqtG8Ec1R3tHwEgFSEtIkUjXSR1JY0mpSfBKN0p9SsRLDEtTS5pL4kwqTHJMuk0CTUpNk03cTiVObk63TwBPSU+TT91QJ1BxULtRBlFQUZtR5lIxUnxSx1MTU19TqlP2VEJUj1TbVShVdVXCVg9WXFapVvdXRFeSV+BYL1h9WMtZGllpWbhaB1pWWqZa9VtFW5Vb5Vw1XIZc1l0nXXhdyV4aXmxevV8PX2Ffs2AFYFdgqmD8YU9homH1YklinGLwY0Njl2PrZEBklGTpZT1lkmXnZj1mkmboZz1nk2fpaD9olmjsaUNpmmnxakhqn2r3a09rp2v/bFdsr20IbWBtuW4SbmtuxG8eb3hv0XArcIZw4HE6cZVx8HJLcqZzAXNdc7h0FHRwdMx1KHWFdeF2Pnabdvh3VnezeBF4bnjMeSp5iXnnekZ6pXsEe2N7wnwhfIF84X1BfaF+AX5ifsJ/I3+Ef+WAR4CogQqBa4HNgjCCkoL0g1eDuoQdhICE44VHhauGDoZyhteHO4efiASIaYjOiTOJmYn+imSKyoswi5aL/IxjjMqNMY2Yjf+OZo7OjzaPnpAGkG6Q1pE/kaiSEZJ6kuOTTZO2lCCUipT0lV+VyZY0lp+XCpd1l+CYTJi4mSSZkJn8mmia1ZtCm6+cHJyJnPedZJ3SnkCerp8dn4uf+qBpoNihR6G2oiailqMGo3aj5qRWpMelOKWpphqmi6b9p26n4KhSqMSpN6mpqhyqj6sCq3Wr6axcrNCtRK24ri2uoa8Wr4uwALB1sOqxYLHWskuywrM4s660JbSctRO1irYBtnm28Ldot+C4WbjRuUq5wro7urW7LrunvCG8m70VvY++Cr6Evv+/er/1wHDA7MFnwePCX8Lbw1jD1MRRxM7FS8XIxkbGw8dBx7/IPci8yTrJuco4yrfLNsu2zDXMtc01zbXONs62zzfPuNA50LrRPNG+0j/SwdNE08bUSdTL1U7V0dZV1tjXXNfg2GTY6Nls2fHadtr724DcBdyK3RDdlt4c3qLfKd+v4DbgveFE4cziU+Lb42Pj6+Rz5PzlhOYN5pbnH+ep6DLovOlG6dDqW+rl63Dr++yG7RHtnO4o7rTvQO/M8Fjw5fFy8f/yjPMZ86f0NPTC9VD13vZt9vv3ivgZ+Kj5OPnH+lf65/t3/Af8mP0p/br+S/7c/23////bAEMAAQEBAQEBAQEBAQEBAQEBAQEBAQEBAQEBAQEBAQEBAQEBAQEBAQEBAQEBAQICAgICAgICAgICAwMDAwMDAwMDA//bAEMBAQEBAQEBAQEBAQICAQICAwMDAwMDAwMDAwMDAwMDAwMDAwMDAwMDAwMDAwMDAwMDAwMDAwMDAwMDAwMDAwMDA//AABEIAMgDAgMBEQACEQEDEQH/xAAeAAEAAwADAQEBAQAAAAAAAAAACQoLBgcIBQIDBP/EAC4QAAAGAgIBBAIDAQEAAgMAAAABAgMEBQYHCAkSChETFCEiFRYjMSQzQRclMv/EABQBAQAAAAAAAAAAAAAAAAAAAAD/xAAUEQEAAAAAAAAAAAAAAAAAAAAA/9oADAMBAAIRAxEAPwC/wAAAAAAAAAAAAAAAAAAAAAAAAAAAAAAAAAAAAAAAAAAAAAAAAAAAAAAAAAAAAAAAAAAAAAAAAAAAAAAAAAAAAAAAAAAAAAAAAAAAAAAAAAAAAAAAAAAAAAAAAAAAAAAAAAAAAAAAAAAAAAAAAAAAAAAAAAAAAAAAAAAAAAAAAAAAAAAAAAAAAAAAAAAAAAAAAAAAAAAAAAAAAAAAAAAAAAAAAAAAAAAAAAAAAAAAAAAAAAAAAAAAAAAAAAAAAAAAAAAAAAAAAAAAAAAAAAAAAAAAAAAAAAAAAAAAAAAAAAAAAAAAAAAAAAAAAAAAAAAAAAAAAAAAAAAAAAAAAAAAAAAAAAAAAAAAAAAAAAAAAAAAAAAAAAAAAAAAAAAAAAAAAAAAAAAAAAAAAAAAAAAAAAAAAAAAAAAAAAAAAAAAAAAAAAAAAAAAAAAAAAAAAAAAAAAAAAAAAAAAAAAAAAAAAAAAAAAAAAAAAAAAAAAAAAAAAAAAAAAAAAAAAAAAAAAAAAAAAAAAAAAAAAAAAAAAAAAAAAAAAA8k8tud/D/gnhX9+5acgtc6Uo3mXXqiDlFx8+YZT8K/B1jCtf0rVpnWbSmVf/I1VV0xbSSNayShKlEFSTl7613RGIzbDG+EvFjNNyPsOSIzWzN537GrMPW42X+NjS4JjrGV5jkVXIM/wmfMxuUki/ZogFfHePq0O5fbr8j+o7b1Rx2q5Dh+dRpTSmHvpKP4GgozdzuVvb+TRf2Mlm7HnMveZfhRIM0GEdWX92fbnm5yzuexnl1C+6lhL39Q3RmGviQUd5D7ZxCwKwxooClLQRLNj4zdR7oWakGaTDidJ3AdrePyHZMDsl5zPuPM/AtN3yl3TksckeaHPJqJkeZWsVh7yQX+iEJc8fdPl7GZGHsTVnqXe63VEqKuDzXyLN6xl5Lsqj2nrnUOxItkhCXCKPKuMiwKVl0Vk1OeRnDsorijSRGo0l7AJouMnrZeTGMyoFXy64k6h2zSEqPGk5Ro/IMn1BlzEZKfF+zl0eWytoYzkVkpX7fBHXQx1f8ACNv/AKAtR8GPUb9VvOyVTYri+929E7YufpsRtS8lo0DVd9Ns5jhRo9TjuWyLWy1fltpMmH8caFXXsiyf8k/+VJqJICdcAAAAAAAAAAAAAAAAAAAAAAf55cuLAiyZ06THhQYUd6XMmS3m40WJFjNqekSZMh5SGWI7DKDWtazJKUkZmZEQCvLzk9T91V8Lpt1iFRtO05VbUp3HIcjB+M8WszWjr7FJeJMXm2LC0qNXMNx3/duW3XWdrYQ3EKQ5E+RPgAqz8kvWp83s5kTq/jDxt0LoDH3lPtx7fPZeUby2Aw2S0/VkxLApGuMHiPLbIzdakUNgkjURJX+vksIcdn+ov7pNsSJbt/zy2djrElUgm4OsMf1vqSPCjvrJSI0R7WuFYtYmmMhJIbddfdk+Je6nVKUpSg8vWnbp2rXE9+xl9lHO9mRI+L5G6vlnvWjgJ+FlthHwVdLnVfWRfdDRGr4mUeazNavdalKMO08K71u4PAX2JNH2I8nJzkduK02nNc/k7JYUmGhTbRvxdix8piyXFpWfyrcQtb6vY3DWZEZBJXon1e/b/qp+KjZOSaI5L1yHPGW3tbTdNitq5FU8S1IhWeipmo4saY0x/m08/ElpL8KcbdV7mYWIuIHrSOHuypNdjvMjj/szjJayPFiRnuAzy3prJpafYnJ9tBr6fF9lUcd0vc0x4VPfuIP8G4f/APQC2Hxs5Z8Z+YeBN7O4vby1rvPCDVGZm3GvMorr12hmy2PtMVGV07LqbzD744/7qr7WNDmoT+VNEA9DAAAAAAAAAAAAAAAAAAAAAADyTy2538P+CeFf37lpyC1zpSjeZdeqIOUXHz5hlPwr8HWMK1/StWmdZtKZV/8AI1VV0xbSSNayShKlEFSTl7613RGIzbDG+EvFjNNyPsOSIzWzN537GrMPW42X+NjS4JjrGV5jkVXIM/wmfMxuUki/ZogFfHePq0O5fbr8j+o7b1Rx2q5Dh+dRpTSmHvpKP4GgozdzuVvb+TRf2Mlm7HnMveZfhRIM0GEdWX92fbnm5yzuexnl1C+6lhL39Q3RmGviQUd5D7ZxCwKwxooClLQRLNj4zdR7oWakGaTDidJ3AdrePyHZMDsl5zPuPM/AtN3yl3TksckeaHPJqJkeZWsVh7yQX+iEJc8fdPl7GZGHsTVnqXe63VEqKuDzXyLN6xl5Lsqj2nrnUOxItkhCXCKPKuMiwKVl0Vk1OeRnDsorijSRGo0l7AJouMnrZeTGMyoFXy64k6h2zSEqPGk5Ro/IMn1BlzEZKfF+zl0eWytoYzkVkpX7fBHXQx1f8I2/+gLUfBj1G/VbzslU2K4vvdvRO2Ln6bEbUvJaNA1XfTbOY4UaPU47lsi1stX5baTJh/HGhV17Isn/ACT/AOVJqJICdcAAAAAAAAAAAAAAAAAAAAAAAAAAAAAAAAAAAAAAAAAAAAAAAHHcuy/FMAxe/wA3zrJaHDcNxSpnX2T5XlFtAoccx6krGFyrG3u7q0fi11ZWwYzanHXnnENtoIzUZEAoTduXrAJUWfkuieqiFBW1FVLqLvmFneOpnJefT8jTrmjda5LC+mplhxKfjvcmiPtvl8iWajx+GasKJO2dxbX31nt7tLdmyc42zsfJ5H2b/ONiZPcZflFq4Rn8aZdzeS5s5ceMlXgy0SyaYbIkNpSgiIg64AAAAAAAAAT69YPqMOwLranY3hh5pM5KcZqxyDCmcftyXtlZs0VBHWhC4WotgyE2mTaskMRfNMWMyU7H21uG47VPL9lEGl91jdvPDntY1q5lvHfM1VWxsdrY8vZ+gc2dgVe2tburXHjOzZtKxKfZyTDXZ0lDcW+rFyK55TiGnVR5fyRWglFAAAAAAAAAAAAAAAAAAEQXav3WcOupvBUStxXz2fbzySpkWGtON+BzYjuwcsJPkzFuMilOpkQNdYKqaXg5cWSTN1LbxQI099lccBmUdm/fLz77QLa1otmbDe1Rx8dlSP4XjVqGdZ47rr6BvJVEPYE1MhN9ti6baZaUt66edgMyUrdgQYCXVtgIWwAAAAAAAAHd/Hzkrv8A4o7Hq9u8bdwbA0psen9kRcr17klhj0+RDN1t56ouGojqYWQY/OU0kpVdPakwJaC8HmXEGaQF+LqL9Xxi2x5+LaE7R66h1zl096LS0XLXDq5NVre6mPfBFh//AJowiIhbWvJUqQSlP39R5USVvEb8CqisuSTC8nR3lLk1LT5JjdxV5DjuQ1dfeUF/R2ES2pbyltojM+quKe1gPSINlV2UGQ29HkMuLaeaWlaFGkyMw+oAAAAAAAAAAAAAAAAA47l2X4pgGL3+b51ktDhuG4pUzr7J8ryi2gUOOY9SVjC5Vjb3d1aPxa6srYMZtTjrzziG20EZqMiAUJu3L1gEqLPyXRPVRCgraiql1F3zCzvHUzkvPp+Rp1zRutclhfTUyw4lPx3uTRH23y+RLNR4/DNWFEnbO4tr76z292luzZOcbZ2Pk8j7N/nGxMnuMvyi1cIz+NMu5vJc2cuPGSrwZaJZNMNkSG0pQREQdcAAAAAAAAAJ9esH1GHYF1tTsbww80mclOM1Y5BhTOP25L2ys2aKgjrQhcLUWwZCbTJtWSGIvmmLGZKdj7a3Dcdqnl+yiDS+6xu3nhz2sa1cy3jvmaqrY2O1seXs/QObOwKvbWt3VrjxnZs2lYlPs5Jhrs6ShuLfVi5Fc8pxDTqo8v5IrQSigAAAAAAAAAAAAAAAAAAAAAAAAAAAAAAAAAAAAAAAAAAA6t3burVvHLUuwN6bszOp19qnV2M2OXZzmF2p4oFLSVrZKdd+CK1InWE6U8tEeJDjNPS5st1uOw2484hCgyfO8fv+3d2s5vN1hrxeRac4SYjdPLw3U6LD617tOXXTpB1ext0uVzhsWFs8wTbsGgS9IqqNREaFSZZLmrCu4AAAAAAAAAAAAA7d0PvzcvGHbGF7z0BsbJtVbZ19bM3WJ5ric0olnXS2/dL0aQy82/XXFLZxlLjz66czJr7GG45HlMvMOONqDVX6GPUAaz7WMNRpnbrFDqrnBgWOszcmwqNKJjF910VXDjt2+y9UNyiQ7FeYk+TtvjilvyaptaX2XZMT5VxgsiAAAAAAAAAAAAAAAArH9/8A6gzDOrfGnOPWg2qXYfOPO8ZVYwa+elE7EuP2M3cKS3S7Dz2MbbrF3lU932foscUZJkNI+7YG3DOMzYhlebb27s/fWyMw3BubO8m2Xs7P7qVkOY5vl9pIuL+9tpivdyRLmSVKNDLLZJaYYbJEeMwhDLKENIQhIddAAAAAAAAAAAAALLfRV6h/cvV/k9NozeMnJty8GL+2Q3OwlUwp+XaElW1gwq0zjUD05Ljr9KlC3ZFjia3mK+c+pciIuHMdkOSw1V9Rbd1nvvWOD7m03mtDsXV2ycdr8rwjNcZllNpsgorNr5I0uM4aW3mHm1EpqRHfQ1JiSW3GH223m1oSHYwAAAAAAAAAAAAAA6t3burVvHLUuwN6bszOp19qnV2M2OXZzmF2p4oFLSVrZKdd+CK1InWE6U8tEeJDjNPS5st1uOw2484hCgyfO8fv+3d2s5vN1hrxeRac4SYjdPLw3U6LD617tOXXTpB1ext0uVzhsWFs8wTbsGgS9IqqNREaFSZZLmrCu4AAAAAAAAAAAAA7d0PvzcvGHbGF7z0BsbJtVbZ19bM3WJ5ric0olnXS2/dL0aQy82/XXFLZxlLjz66czJr7GG45HlMvMOONqDVX6GPUAaz7WMNRpnbrFDqrnBgWOszcmwqNKJjF910VXDjt2+y9UNyiQ7FeYk+TtvjilvyaptaX2XZMT5VxgsiAAAAAAAAAAAAAAAAAAAAAAAAAAAAAAAAAAAAAAAAAPytaG0KccUlCEJUta1qJKEISRqUpSlGRJSki9zM/wRAMp71K3d7bdiW9rDi7x+yxwuE2g8slRoU2mlf+DkDtGkXKq7DaE+RHWbdlg9G4t+LirJGpl6OtyyX5LlsNxAq1AAAAAAAAAAAAAAAA7J07uHZvH/aOC7p0zmt9rvaOtcigZThWZ41Ocr7ijua9Zm28y82fi/FksrWxKjOpXGmRXXGH0OMuLQoNhbpB7bsF7bOI9fslbdLi3IzVqqnCuTGsauR7R6HM34by6rOcYgyX3rJrXOzosB+bVfMbpw5LE2tN+U5XuSXQmZAAAAAAAAAAAAAQsd5nbdh/UtxEm7Agfw+Q8kdtOW+Eca9e2akvMWWVxoTLt3sDIq9DzUp/A9ZxbCPKsCQaftTJMGB5tHNJ5sMezae0th7u2Pm+3ts5fdZ9svZGTW+Y5xmWQyvt3ORZJeS3J1nZzXSShtKnpDp+DTaG2WWyS20hDaUpIOAgAAAAAAAAAAAAAAAtX+mk7y7br73VUcSeSOXvPcJt4ZMzBh3F/aPfR417PvpSWYGe1r0184FTrHKLF8mcrjf4sRVOIuUOIVGmszw1R0LQ4hLjakrQtKVoWhRKQtCiJSVJUkzJSVEfuRl+DIB+gAAAAAAAAAAAfla0NoU44pKEISpa1rUSUIQkjUpSlKMiSlJF7mZ/giAZT3qVu7227Et7WHF3j9ljhcJtB5ZKjQptNK/8HIHaNIuVV2G0J8iOs27LB6Nxb8XFWSNTL0dblkvyXLYbiBVqAAAAAAAAAAAAAAAB2Tp3cOzeP+0cF3TpnNb7Xe0da5FAynCszxqc5X3FHc16zNt5l5s/F+LJZWtiVGdSuNMiuuMPocZcWhQbC3SD23YL22cR6/ZK26XFuRmrVVOFcmNY1cj2j0OZvw3l1Wc4xBkvvWTWudnRYD82q+Y3ThyWJtab8pyvckuhMyAAAAAAAAAAAAAAAAAAAAAAAAAAAAAAAAAAAAAAACp76r7tPk8MOHsLiRqLJf4zkNzKq7uht5dZN+C61/x1jkur2DkaFMkt+BYbElvf1qtWom/kiuWzzDiX4KQGWSAAAAAAAAAAAAAAAAAAJUum7spzDq15x605DV71pP1VbyGNeciMLrzN48w0vkdlAPJThwFOssy8ow96Mzd0pKW152Ne2wtxEd98lBtDYnleN53iuM5xh11X5JiGZY/TZXiuRVMhEuqv8byKujW9HdVkpv8ASTX2lZMafZcL8LbcIy/6A5AAAAAAAAAAAPg5VlGOYPjGR5rmF3W41iWIUNxlGU5Hcy2oFPQY5j9fItru7tZz6kMQ62qrIjr77qzJDbTalGfsQDF97meyfK+0fnVs/kHKlWUbU1LKf1zx1xGap5tGLaYxmxnJxyS9AcQ39LIs2kSH763SrzW1PsVxycWzHZ8QinAAAAAAAAAAAAAAAAAAGpd6T/tUm8z+ItlxB3BkDlnyD4a09DT0VlZSSetNhcdJJIp8Du3HXXTkz7jW01j+u2a/j9kwjp3nHXZEt40hbKAAAAAAAAAAABU99V92nyeGHD2FxI1Fkv8AGchuZVXd0NvLrJvwXWv+Oscl1ewcjQpklvwLDYkt7+tVq1E38kVy2eYcS/BSAyyQAAAAAAAAAAAAAAAAABKl03dlOYdWvOPWnIavetJ+qreQxrzkRhdeZvHmGl8jsoB5KcOAp1lmXlGHvRmbulJS2vOxr22FuIjvvkoNobE8rxvO8VxnOMOuq/JMQzLH6bK8VyKpkIl1V/jeRV0a3o7qslN/pJr7SsmNPsuF+FtuEZf9AcgAAAAAAAAAAAAAAAAAAAAAAAAAAAAAAAAAAAAAfla0NoU44pKEISpa1rUSUIQkjUpSlKMiSlJF7mZ/giAYrvdTzun9inY/yL5Bxrp631pEyqTq3QrZyPmgwNH62mzaLCJNY37e0NnM1lKyaSwSlpbsbyT4rUkyMBFWAAAAAAAAAAAAAAAAAAADUu9IXz1lcm+ve+4vZtcuWWyuEWUQMMq1TH3H5s7RGwUW19qh5x9/xN3+s21VfY+0y0SkQ6uqr0mZfIlIC2UAAAAAAAAAAKqvq4ueM3ix1xRePGE3jlTs7m/lE/WDpxJJRrGNo3EokG83XLjqIlqdj3qbOkxmWyaSS9XZFJ/dKkESgysQAAAAAAAAAAAAAAAAAAAScdO3Oyy65+xDjpyWVZSoWv6/Lo2CbwhsKkKZtdIbBeYx3YhSYUYlLtHsarpKL6BGP9V21REMzLx9yDa6jyI8yOxLiPsyosplqRGkx3UPx5Ed9CXWX2HmlKbeZebUSkqSZpUkyMj9gH9gAAAAAAAAH5WtDaFOOKShCEqWta1ElCEJI1KUpSjIkpSRe5mf4IgGK73U87p/Yp2P8i+Qca6et9aRMqk6t0K2cj5oMDR+tps2iwiTWN+3tDZzNZSsmksEpaW7G8k+K1JMjARVgAAAAAAAAAAAAAAAAAAA1LvSF89ZXJvr3vuL2bXLllsrhFlEDDKtUx9x+bO0RsFFtfaoecff8Td/rNtVX2PtMtEpEOrqq9JmXyJSAtlAAAAAAAAAAAAAAAAAAAAAAAAAAAAAAAAAAAAAImu8/k9K4h9T3NfcVPaqpstd1DO1fgs+O4lFjDzXddnW6joLSoSr3+Syx2RmZ2iP1UTaIKnFEaEKAYtgAAAAAAAAAAAAAAAAAAAACzT6TDlBJ0D27a+1zNsvpYfys1vsTR943IcMq9OQQqZe0sAmLa8vzaSco183TxFklSkncrR+EOLUQax4AAAAAAAAAAynvV5cnpW7+2G207BtVSsS4m6h1/q+JAYcS5XN5rmlYjbmbWjKk+/vZPR82q6uX7K9kLpkNmRLQv3CrQAAAAAAAAAAAAAAAAAAAAA2ZfT+8oJPLTqJ4YbGubL+SzDEtbr0fm7jrhvWBZBoq5stWxZlu6al/LaZHi+M11w4s1GpwrFK1ey1KSQTJgAAAAAAAAImu8/k9K4h9T3NfcVPaqpstd1DO1fgs+O4lFjDzXddnW6joLSoSr3+Syx2RmZ2iP1UTaIKnFEaEKAYtgAAAAAAAAAAAAAAAAAAAACzT6TDlBJ0D27a+1zNsvpYfys1vsTR943IcMq9OQQqZe0sAmLa8vzaSco183TxFklSkncrR+EOLUQax4AAAAAAAAAAAAAAAAAAAAAAAAAAAAAAAAAAAACnd603akjFuuLQerIMhyO/tblnjs+0Sh2ShM3Gdd6z2PZS4LzbbBxXW/7NeU8gvleSaVxkmhtz9lshmMAAAAAAAAAAAAAAAAAAAAAPWPAza7uieb/D3dDTymE6r5O6Jz2Uafsml2uxfZ2M29pEeRDQ7Kdizq2K6y822hanGnFJJJ+/sYbo4AAAAAAAAAAw8u0DakjdvY7zs2m9IcksZjyz35Pp1OuyXlMYzG2ZkdbikEnJjEWUputxmFEjo82WTJDRF8bft4JDwoAAAAAAAAAAAAAAAAAAAAA0rfRMbXdv+EHLTS77ynlaz5O1uexCc+ypUWu23rHG6huI0taCipilZaolvJbbWakuvuKWlPmk1BdLAAAAAAAAAU7vWm7UkYt1xaD1ZBkOR39rcs8dn2iUOyUJm4zrvWex7KXBebbYOK63/ZrynkF8ryTSuMk0NufstkMxgAAAAAAAAAAAAAAAAAAAAB6x4GbXd0Tzf4e7oaeUwnVfJ3ROeyjT9k0u12L7Oxm3tIjyIaHZTsWdWxXWXm20LU404pJJP39jDdHAAAAAAAAAAAAAAAAAAAAAAAAAAAAAAAAAAAAAURvXFPOp1P13sE64TDmw+RTzjJLUTTjrGN6kQy6tsj8FOMokOElRl7pJaiL/AKfuGeAAAAAAAAAAAAAAAAAAAAAA/o066w60+w64y+y4h1l5pam3WnW1Ett1pxBkttxtZEaVEZGRl7kA39AAAAAAAAAABglbdedkbY2e++64++/sPNXnnnlqcdedcySyW4664s1LcccWozUozMzM/cwHXgAAAAAAAAAAAAAAAAAAAADQA9DI66bXaCwbrhsNucK3W2TWo2m3Xk8s0POobM/BLjqGGyUoi91EhJH/AMIBf4AAAAAAAAAURvXFPOp1P13sE64TDmw+RTzjJLUTTjrGN6kQy6tsj8FOMokOElRl7pJaiL/p+4Z4AAAAAAAAAAAAAAAAAAAAAD+jTrrDrT7DrjL7LiHWXmlqbdadbUS23WnEGS23G1kRpURkZGXuQDf0AAAAAAAAAAAAAAAAAAAAAAAAAAAAAAAAAAAAAUavXAYrOmceOBebt/J/G49ufcGKy/aOtTX3sxwfFreu85RKJtlz6+CyvFs0mbpeRkZE2fuGc4AAAAAAAAAAAAAAAAAAAAA5RhGLTs5zTEcJq/kOyzHKKDFq4mY65bv3shtYlTE+KK2pDklz7EtPi2kyNZ/gjIzAb6AAAAAAAAAAAwbuR+KzsF5D75wi0+T+Sw7c+0cVsfmjriO/ex7OLyol/LFcUtyM59iGrybUozQf4MzMgHTAAAAAAAAAAAAAAAAAAAAADQk9Ddi06JhfZLmznyfxuQ5RxVxaIZx1pa+9h1VyBtrHwlGo23nPr5zF8myIjaLxMzMnC9gvqAAAAAAAAAKNXrgMVnTOPHAvN2/k/jce3PuDFZftHWpr72Y4Pi1vXecolE2y59fBZXi2aTN0vIyMibP3DOcAAAAAAAAAAAAAAAAAAAAAcowjFp2c5piOE1fyHZZjlFBi1cTMdct372Q2sSpifFFbUhyS59iWnxbSZGs/wRkZgN9AAAAAAAAAAAAAAAAAAAAAAAAAAAAAAAAAAAAABV39Xro+Rtfp9yPOoUFMqVxy39pvb77rbS1zGKe5l3mkrImTaI3Dik7t5h+Qk/8AIm4/yqL3aSpIZR4AAAAAAAAAAAAAAAAAAAACT7pX0bJ5Gdr/AAF1YxCcsosnkpr7O76C2k1HKxDTs9e4s2ac9vymOeIYHO+VRflDfkovyQDa6AAAAAAAAAAGL330aPkcfe4Ln5grsFMCLeb+yPb9S0y0tqGdPvuJXbtgFAJRE39WO1n/AMHi1/ky40ppJESPEgiLAAAAAAAAAAAAAAAAAAAAAanXo5tGydZ9UFvtOxhOMyuR3JTaOd085xJpKbiGDwMY07AaY/8ApyPDy/AL79v+/I4tP/EkAtfAAAAAAAAAKu/q9dHyNr9PuR51CgplSuOW/tN7ffdbaWuYxT3Mu80lZEybRG4cUndvMPyEn/kTcf5VF7tJUkMo8AAAAAAAAAAAAAAAAAAAABJ90r6Nk8jO1/gLqxiE5ZRZPJTX2d30FtJqOViGnZ69xZs057flMc8QwOd8qi/KG/JRfkgG10AAAAAAAAAAAAAAAAAAAAAAAAAAAAAAAAAAAAA8v82ON1NzB4ick+L16qOxE3rpfYOuIVjKJRt0WQ5Fjk6LimTpJKV+8jFcoOHZNe6Vp+WKnyQtPukwwxcpxi/wnJ8jwzK6qVRZTiN9b4xktJOSlE2nv6CwkVVzVTEIUtCZVfYxHGXCIzIloP2MwHwQAAAAAAAAAAAAAAAAAAAXTvRa8Q5GwuYHIHmVe1ql4zxz1axrTC5j7S0NubR3ZJeRLm1kg0G3Iex3W+K2saY2R+TScgjKP8LT7hpVAAAAAAAAAADOB9a1xHew/kpxg5qUNapFDunWtnpHPpUZH/mY2BqSzfyDF7KzcX+/8lleDZoqGwSDNBx8YV7pQojU4FIUAAAAAAAAAAAAAAAAAAAH1KSkt8luqjHMfrZlxfX9pX0lJUVzDkqwtbe1ltQa2tgxmiU7ImTpj6Gmm0kalrURF+TAbkXX5xdgcK+EvF7ivC+quRpPTOF4fkkuCryh22dN1bVlsS/jH7J/xyHPLCxnJL/6KR7APYQAAAAAAAADy/zY43U3MHiJyT4vXqo7ETeul9g64hWMolG3RZDkWOTouKZOkkpX7yMVyg4dk17pWn5YqfJC0+6TDDFynGL/AAnJ8jwzK6qVRZTiN9b4xktJOSlE2nv6CwkVVzVTEIUtCZVfYxHGXCIzIloP2MwHwQAAAAAAAAAAAAAAAAAAAXTvRa8Q5GwuYHIHmVe1ql4zxz1axrTC5j7S0NubR3ZJeRLm1kg0G3Iex3W+K2saY2R+TScgjKP8LT7hpVAAAAAAAAAAAAAAAAAAAAAAAAAAAAAAAAAAAAAADKW9WF15TeIvYxccjMSplRtLc4k222q2VGZd+jT7sgLgR9449IfWp1Rzr2+sY2VeajSlxWQutNJ8YqiSFXAAAAAAAAAAAAAAAAAAAf0aadfdaYYacefecQ0yy0hTjrrriiQ2002gjW444syJKSIzMz9iAbMPQx17SOtzrZ0tpjK6pus3RnjcneO/2zYQxLibT2PDrZDuKz/EjNczXOIV9TjbyiW427JqXXmzJDpEQTJgAAAAAAAAACIrvK6/V9kvW7vPQOP17M7bmPRYe5dBKdMyWncWtWLCdS08YzcbYaez3HJ9ri5vO+TcZu8U8Ze7ZGQYwkuJKgSpMGdGkQpsKQ9EmQ5bLkaVElRnFMyI0mO8lDzEhh5BoWhZEpKiMjIjIB/nAAAAAAAAAAAAAAAAAAFm30q3XhN5m9kON7uyum+3pDhH/C7syuVLik/X222HJU1rRGIocWlxtuwTllW/kv7IUhUXGXmlGhTzRgNYsAAAAAAAAAAAGUt6sLrym8Rexi45GYlTKjaW5xJtttVsqMy79Gn3ZAXAj7xx6Q+tTqjnXt9Yxsq81GlLishdaaT4xVEkKuAAAAAAAAAAAAAAAAAAA/o006+60ww048+84hpllpCnHXXXFEhtpptBGtxxxZkSUkRmZn7EA2Yehjr2kdbnWzpbTGV1TdZujPG5O8d/tmwhiXE2nseHWyHcVn+JGa5mucQr6nG3lEtxt2TUuvNmSHSIgmTAAAAAAAAAAAAAAAAAAAAAAAAAAAAAAAAAAAAAAEU3c11qYv2m8F9kcdpJVtZtamUjZXHnMrFao7OJ7lxeDPRQIsJiGn1s4zmNdOl0Vv7tPfFAslyG2zkx46kBjIbBwDNNU53mWsdj43aYdsDXuUXuF5ril2x9a3xvKcZs5NPfUlkx5KJuZW2cNxpwiNSfJHuRmXsZhw8AAAAAAAAAAAAAAAABbB9Kt1JzeanLGPzG3Di7j/GHiNklZdU7drBJ2n2pyGh/VuMLxBluXFchW1HrxpbWQXZJWfxv/wAXFcbWzOd8A1NwAAAAAAAAAAAAGW16rXqVl8OOVsjmvp/GlR+NXLzKrK1yditbUddrHkfYNSrvNKF5skeMCl2kliTkdX+6kFN/lYzaGGI0VCgqWAAAAAAAAAAAAAAAAAOWYHguY7QzbEdb67xq4zLPc9ySlw/DMSx+E7Y3mS5PkVhHqaOjqYLCVOy7CzsZTbLSEl7qWsgGzL0s9ZuNdWHBjXmgfCrstxZJ4bK5F5hXEy+3kW38jroKbisrbNMeM/OxPBIUZmkqFLSj5YsM5Sm0PSniMJZwAAAAAAAAAAARTdzXWpi/abwX2Rx2klW1m1qZSNlcecysVqjs4nuXF4M9FAiwmIafWzjOY106XRW/u098UCyXIbbOTHjqQGMhsHAM01TneZax2Pjdph2wNe5Re4XmuKXbH1rfG8pxmzk099SWTHkom5lbZw3GnCI1J8ke5GZexmHDwAAAAAAAAAAAAAAAAFsH0q3UnN5qcsY/MbcOLuP8YeI2SVl1Tt2sEnafanIaH9W4wvEGW5cVyFbUevGltZBdklZ/G/8AxcVxtbM53wDU3AAAAAAAAAAAAAAAAAAAAAAAAAAAAAAAAAAAAAAAAAUnvVJ9D9hySpL7sg4hYc5Y76wrH4x8ktV41WPSbbc+C45BRDhbKxWtrYz8m12fglLGajT4hJNdxQRWzZMpcBtieGbQAAAAAAAAAAAAAAACSrqt6wt8dq/KGg0Bp+K5SYpV/RyTdu3Z8F+Ri+odblPbjT72eafjas8otiJyNQ06XG3rWeXsa2YjMyXGDZA4k8VNL8JePGsOMXH/ABdnFdYaqx2PR08b2YXa3U9alS7/AC7KJzDEYrfLsvu337GzlmhHzzJC1JShHihIejgAAAAAAAAAAAAHnPlpxW01zY477S4w7+xpvKNX7Zxt+gvIqfiatKia261PoMsxqc8zITVZZiF9FjWVZL8FkxNitqUlaSUhQY3Paf1j716rOUmS8ftvRJF1is1ybf6V29DrJkLFdv65VKJNffVTj6DYiZJUtvtRb6qS685U2PugnHozkWVICNkAAAAAAAAAAAAAAAGkz6XPoXn8a6Wg7HOYeGphb6zXHTkcbNVZFA//AGel8GyauSl7ZeVV81hL1RtXNqWWuPChGRPUVJJcKR7TprsevC6+AAAAAAAAAAAAAAKT3qk+h+w5JUl92QcQsOcsd9YVj8Y+SWq8arHpNtufBccgohwtlYrW1sZ+Ta7PwSljNRp8Qkmu4oIrZsmUuA2xPDNoAAAAAAAAAAAAAAABJV1W9YW+O1flDQaA0/FcpMUq/o5Ju3bs+C/IxfUOtyntxp97PNPxtWeUWxE5GoadLjb1rPL2NbMRmZLjBsgcSeKml+EvHjWHGLj/AIuziusNVY7Ho6eN7MLtbqetSpd/l2UTmGIxW+XZfdvv2NnLNCPnmSFqSlCPFCQ9HAAAAAAAAAAAAAAAAAAAAAAAAAAAAAAAAAAAAAAAAAACjF6gT0wDu57bO+b3W1ilfD2nZOTss3bxWqW4tTW7InK+aZeZ9pFgks19dsOe4ZyLLHFKZjXjnyPwFIs1fTsgzur6hvMWu7fGsnpbbHMjx+ym019j99XTKi7pLitkOQ7Gqt6qwZjz62ygS2VtPsPNodacSaVJIyMgHyQAAAAAAAAAAAS2dUPTdyv7ZtrpxnUFG9hOlcZsmWNucj8rqpiteYBG+NqS9U1vs5DVnOwpcV5BxKGA985/M29LchwzXKQGtL17dd3GjrN490vHfjPijlXSMSP5rNc1vFRJ+wNp5k+yhmdmWfX0aJCKztHWkJZjMNtswq+IhEeKy00gkgPc4AAAAAAAAAAAAAAAPCXYj118buzXjnkPHTkfjSplZKU5b4HntKiJHz7U2cNRnGKzN8EuJMeQUKyjE4bcqM6lyFZQ1LjSm3GlmRBkrdq/Tryy6m9tvYlufH3Mv05klpLa0/yMxKumq1zsasSbr8SBOcX86sI2JEgtmdjj09z7DLjbjkR2dA+Gc8EToAAAAAAAAAAAPsY9j1/lt9TYtilHcZNk+R2kCjx7HMerJt1fX11aSWoVZT01RWsSbC0tLGY8hliOw2t151aUoSajIgGij0Bel9Y0jPwXmv2R4rBtNv1z1Vl+luL1oUO0pNXT2vmlVeZ7ojkUuuv9hRVqjyq2iStUSgfQTs35rAij1wXjwAAAAAAAAAAAAAAAAFGL1AnpgHdz22d83utrFK+HtOycnZZu3itUtxamt2ROV80y8z7SLBJZr67Yc9wzkWWOKUzGvHPkfgKRZq+nZBndX1DeYtd2+NZPS22OZHj9lNpr7H76umVF3SXFbIch2NVb1VgzHn1tlAlsrafYebQ604k0qSRkZAPkgAAAAAAAAAAAls6oem7lf2zbXTjOoKN7CdK4zZMsbc5H5XVTFa8wCN8bUl6prfZyGrOdhS4ryDiUMB75z+Zt6W5DhmuUgNaXr267uNHWbx7peO/GfFHKukYkfzWa5reKiT9gbTzJ9lDM7Ms+vo0SEVnaOtISzGYbbZhV8RCI8VlppBJAe5wAAAAAAAAAAAAAAAAAAAAAAAAAAAAAAAAAAAAAAAAAAAAEE3a/6fjhJ2oQrPOMgp1aG5SFWqjUvI/WdPAK1t5DLKWq+Pt7DvlrKnbNTFQ022lyS/DvGI7aGY1nHYI2lBnJdivp/wDsg64rDIL3PdP2G4tE1TkqTD5D6Mh2ecYC3StPElmfnNZFhllurpCGXWSkfzcGPXlJWbUWbMSg3TCE0AAAAAAAHcuiOO29+UGwavVXHbUWwt0bEt1I+niWucWtsptUR1PNsOWVi3WRn2qeliLdI5E6WtiHFR7redQgjUQXdOrv0cOSTrHHNudpWYxaSkYVCtY/FTUOStzr2zWhxt86nbm2aj5Kungn8ampNfij8x99pwlNXMVxJoML6uoNN6p4/wCuMV1DpLXmI6r1jhNa3U4rg2D0cHH8dpoSDUtZRq+vaZaXKlvrU9JkOeciVIcW88tx1a1qDsoAAAAAAAAAAAAAAAAAAdX7m0pqPkRrbKdPb01xh+19X5rXrrMnwfOaODkGP2sdX7NOrhzmnCjWEF8kvRJbJtyoclCHmHG3UIWkKDvaV6OXL6GVkO3erPK05fj61PWEjijtfJI8HLalPi867D1TtzIJUenyaKTikNx63KHoEphlClLuJrqktgKTG8OP28uNGe2WruQeo9iaX2HU+ypuIbKxK6xC8KOo/wDGfGh3UOIqfVy0/sxLj/LGkNmS23FJMjMOoAAAAAAAATh9cnp7+x/seepcowvVb2kdD2So0h3f++ItrhWHT6p7wd+5gFA5BdzPZqpEbz+s9UwXKhT6PikT4vv5EGjV1RdAvCXqsrq/McTpXN38nXa8497yR2ZVVzuQ1jkqKmNZ1+qMZb+3Varx+USnUn9VyVcyGHlsy7KSz4toCcsAAAAAAAAAAAAAAAAAAAEE3a/6fjhJ2oQrPOMgp1aG5SFWqjUvI/WdPAK1t5DLKWq+Pt7DvlrKnbNTFQ022lyS/DvGI7aGY1nHYI2lBnJdivp/+yDrisMgvc90/Ybi0TVOSpMPkPoyHZ5xgLdK08SWZ+c1kWGWW6ukIZdZKR/NwY9eUlZtRZsxKDdMITQAAAAAAAdy6I47b35QbBq9VcdtRbC3RsS3Uj6eJa5xa2ym1RHU82w5ZWLdZGfap6WIt0jkTpa2IcVHut51CCNRBd06u/Rw5JOscc252lZjFpKRhUK1j8VNQ5K3OvbNaHG3zqdubZqPkq6eCfxqak1+KPzH32nCU1cxXEmgwvq6g03qnj/rjFdQ6S15iOq9Y4TWt1OK4Ng9HBx/HaaEg1LWUavr2mWlypb61PSZDnnIlSHFvPLcdWtag7KAAAAAAAAAAAAAAAAAAAAAAAAAAAAAAAAAAAAAAAAAAAAAAAAAQ9cwehTqm5tvWl3triZguLZ/avOTJO09JJf0tn0mze8idtrqbgKqmjzOycQo0qcv4FsRkST9vdCDSFdnefog9LW0iVM41c6tnYJHSpbkPHt3aqxbai3iUtXjGey3Bcg1B9FLaFF/qVNKMzT7eH7eSQjayz0TvYpDmpRgvJ7hXkdf8j5KlZZkG8sLmk0kmPqrTAp9JZ8wpx41OfIn7JE34J9lL8z8A4NC9Fp2qyjmk/ungdWFFnPRGFTdr74cKyjtIaUizhfx3GawNuDINw0oTIJiSRoV5tJLxNQeq9V+iB5AWcqKrdvO7TuFQieSqY3qvU+a7PlLjpS4pbUV7Lcg1E0088tKEEtba0tks1+C/Am1hNJxh9Hr1a6Vm119uqz3hywvobkaQ9VbBzNnANcOSopEtDrOJ6qhYvkrkdyT+7kafkFhGdQlLa0KQbhOBZO0Rxs4+8XsLY13xy0rq/R2EM/EpWNauwnH8LrZkhr5TKfaN0UCEu4tHFvuLcly1PSXXHFrW4pS1GYd2AAAAAAAAAAAAAAAAAAAAAAAA6R3zxq49co8Mc15yP0lq3eWFLU661jm08Hx3Nq6BKeQhCrGoRfQJrlLbIJtJtzIimJTSkJUhxKkpMgrZ8nvR69Wu6ptjfaVs94cT76Y5JkM1WvszZz/AFw3KlEa1uvYntWFlGStx25P7txoGQV8ZpClNoQlBNk2EL+0vRAb7rZbh6T546hzSAt41Mo2lqPM9Yy2I6lJMmnHcSyXbjMt5lKlJNZIYS6aSV4N+XigPKE70WnarEKIcfdPA60OROjRHkwdr74bOBHfWaXbOX/JcZq4lwYRF5OpYN6SZH/m04f4Ac4xP0T3YvMn/HnPJ3hVjtX5NF9zE8i3pmc/wP5PnV/G3Gj8Cj+TfsjwL7fsvyP3NPiXkEkmifRCaZqn4s3kxzp2ZnTBuecvHdHasxjVymUIe9iYay/O73bhzfmYT7qcOljGhS/Ekq8PNYWKuHfQv1U8IX6y81FxOwfJtg1ThSY21N1lI3Pn8ewSj4k2lLNzxdtSYZYEx/n50ECqLxUr8e61moJgwAAAAAAAAAAAAAAAAAAAAAAAAEPXMHoU6pubb1pd7a4mYLi2f2rzkyTtPSSX9LZ9Js3vInba6m4Cqpo8zsnEKNKnL+BbEZEk/b3Qg0hXZ3n6IPS1tIlTONXOrZ2CR0qW5Dx7d2qsW2ot4lLV4xnstwXINQfRS2hRf6lTSjM0+3h+3kkI2ss9E72KQ5qUYLye4V5HX/I+SpWWZBvLC5pNJJj6q0wKfSWfMKceNTnyJ+yRN+CfZS/M/AODQvRadqso5pP7p4HVhRZz0RhU3a++HCso7SGlIs4X8dxmsDbgyDcNKEyCYkkaFebSS8TUHqvVfogeQFnKiq3bzu07hUInkqmN6r1Pmuz5S46UuKW1Fey3INRNNPPLShBLW2tLZLNfgvwJtYTScYfR69WulZtdfbqs94csL6G5GkPVWwczZwDXDkqKRLQ6zieqoWL5K5Hck/u5Gn5BYRnUJS2tCkG4TgWTtEcbOPvF7C2Nd8ctK6v0dhDPxKVjWrsJx/C62ZIa+Uyn2jdFAhLuLRxb7i3JctT0l1xxa1uKUtRmHdgAAAAAAAAAAAAAAAAAAAAAAAAAAAAAAAAAAAAAAAAAAAAAAAAAAAAAAAAAAAAAAAAAAAAAAAAAAAAAAAAAAAAAAAAAAAAAAAAAAAAAAAAAAAAAAAAAAAAAAAAAAAAAAAAAAAAAAAAAAAAAAAAAAAAAAAAAAAAAAAAAAAAAAAAAAAAAAAAAAAAAAAAAAAAAAAAAAAAAAAAAAAAAAAAAAAAAAAAAAAAAAAAAAAAAAAAAAAAAAAAAAAAAAAAAAAAAAAAAAAAAAAAAAAAAAAAAAAAAAAAAAAAAAAAAAAAAAAAAAAAAAAAAAAAAAAAAAAAAAAAAAAAAAAAAAAAAAAAAAAAAAAAAAAAAAAAAAAAAAAAAAAAAAAAAAAAAAAAAAAAAAAAAAAAAAAAAAAAAAAAAAAAAAAAAAAAAA//Z;direction=south;" vertex="1" parent="1">
          <mxGeometry x="1053.505" y="589.995" width="12.99" height="50" as="geometry" />
        </mxCell>
        <mxCell id="i60HTQ7OFVrk5xtHkpp4-44" value="AWS accounts" style="sketch=0;outlineConnect=0;fontColor=#232F3E;gradientColor=none;strokeColor=#232F3E;fillColor=#ffffff;dashed=0;verticalLabelPosition=bottom;verticalAlign=top;align=center;html=1;fontSize=12;fontStyle=0;aspect=fixed;shape=mxgraph.aws4.resourceIcon;resIcon=mxgraph.aws4.aws_cloud;" vertex="1" parent="1">
          <mxGeometry x="1030" y="650" width="60" height="60" as="geometry" />
        </mxCell>
      </root>
    </mxGraphModel>
  </diagram>
</mxfile>
